<?xml version="1.0" encoding="UTF-8"?>
<svg xmlns="http://www.w3.org/2000/svg" xmlns:xlink="http://www.w3.org/1999/xlink" version="1.2" >
<font id="Avenir Next Ultra Light Italic">
<font-face  font-family="Avenir Next" units-per-em="1000" ascent="1000" descent="-366" font-style="normal" font-weight="275" font-stretch="normal" slope="-10" cap-height="708" x-height="460" underline-position="-75" underline-thickness="50" />
<missing-glyph  horiz-adv-x="512" d="M222 117 L222 184 L278 184 L278 117 L222 117 Z M225 234 L223 251 Q223 307 236 332 Q243 345 254 359.5 Q265 374 282 391 Q298 406 308 417.5 Q318 429 323 438.5 Q328 448 330 456.5 Q332 465 332 474 Q332 510 309.5 534.5 Q287 559 256 559 Q225 559 202.5 537 Q180 515 174 464 L124 472 Q131 544 168 576.5 Q205 609 259 609 Q313 609 348 573.5 Q383 538 383 478 Q383 446 370.5 419.5 Q358 393 320 358 Q283 325 277 306 Q271 286 271 234 L225 234 Z M462 50 L462 667 L50 667 L50 50 L462 50 Z M512 718 L512 0 L0 0 L0 718 L512 718 Z " />
<glyph glyph-name=".null" horiz-adv-x="500" d="" />
<glyph glyph-name="nonmarkingreturn" unicode="&#xd;" d="" />
<glyph glyph-name="space" unicode="&#x20;" horiz-adv-x="250" d="" />
<glyph glyph-name="exclam" unicode="&#x21;" horiz-adv-x="276" d="M143 195 L121 195 L212 708 L234 708 L143 195 Z M105 -6 Q96 -6 90 -0.5 Q84 5 84 17 Q84 28 91 36.5 Q98 45 109 45 Q118 45 124 39.5 Q130 34 130 23 Q130 11 122.5 2.5 Q115 -6 105 -6 Z " />
<glyph glyph-name="quotedbl" unicode="&#x22;" horiz-adv-x="404" d="M164 480 L204 708 L226 708 L186 480 L164 480 Z M308 480 L348 708 L370 708 L330 480 L308 480 Z " />
<glyph glyph-name="numbersign" unicode="&#x23;" horiz-adv-x="550" d="M418 453 L357 257 L469 257 L466 240 L352 240 L280 0 L261 0 L333 240 L161 240 L89 0 L70 0 L142 240 L31 240 L34 257 L147 257 L209 453 L98 453 L101 470 L214 470 L286 708 L305 708 L232 470 L404 470 L477 708 L496 708 L423 470 L535 470 L532 453 L418 453 Z M228 453 L167 257 L338 257 L399 453 L228 453 Z " />
<glyph glyph-name="dollar" unicode="&#x24;" horiz-adv-x="560" d="M304 375 Q343 361 375.5 345.5 Q408 330 432 309 Q456 288 469 260 Q482 232 482 193 Q482 145 464 107 Q446 69 414 42 Q382 15 336.5 0.5 Q291 -14 236 -14 L224 -84 L204 -84 L216 -13 Q157 -9 108.5 16.5 Q60 42 37 79 L53 92 Q72 62 115.5 36.5 Q159 11 220 6 L282 360 Q248 372 218.5 385 Q189 398 167 416.5 Q145 435 132.5 461.5 Q120 488 120 526 Q120 574 140 610 Q160 646 192.5 670.5 Q225 695 265 708 Q305 721 345 723 L357 792 L377 792 L365 723 Q433 721 479.5 697 Q526 673 547 639 L531 625 Q513 659 465.5 680.5 Q418 702 361 703 L304 375 Z M240 5 Q288 5 328.5 17.5 Q369 30 398.5 54 Q428 78 444.5 112.5 Q461 147 461 192 Q461 226 449 251 Q437 276 415.5 294.5 Q394 313 364.5 327 Q335 341 301 353 L240 5 Z M341 703 Q308 701 273 690 Q238 679 209 657.5 Q180 636 161 604 Q142 572 142 527 Q142 494 152 471 Q162 448 181 432 Q200 416 226.5 404.5 Q253 393 285 381 L341 703 Z " />
<glyph glyph-name="percent" unicode="&#x25;" horiz-adv-x="820" d="M406 579 Q406 602 399 623 Q392 644 377 660 Q362 676 340 685.5 Q318 695 288 695 Q254 695 226.5 681.5 Q199 668 180 645.5 Q161 623 150.5 594 Q140 565 140 534 Q140 510 147 489 Q154 468 168 452.5 Q182 437 204.5 427.5 Q227 418 257 418 Q291 418 318.5 431.5 Q346 445 365.5 467 Q385 489 395.5 518 Q406 547 406 579 Z M119 532 Q119 568 131 600.5 Q143 633 165 658.5 Q187 684 219 699 Q251 714 290 714 Q324 714 349.5 703.5 Q375 693 392.5 675 Q410 657 418.5 633 Q427 609 427 581 Q427 545 415 512 Q403 479 381 454.5 Q359 430 327 415 Q295 400 256 400 Q222 400 196.5 410 Q171 420 153.5 438 Q136 456 127.5 480 Q119 504 119 532 Z M734 172 Q734 195 727 216 Q720 237 705 253 Q690 269 668 278.5 Q646 288 616 288 Q582 288 554.5 274.5 Q527 261 508 238.5 Q489 216 478.5 187 Q468 158 468 127 Q468 103 475 82 Q482 61 496 45.5 Q510 30 532.5 20.5 Q555 11 585 11 Q619 11 646.5 24.5 Q674 38 693.5 60 Q713 82 723.5 111 Q734 140 734 172 Z M447 125 Q447 161 459 193.5 Q471 226 493 251.5 Q515 277 547 292 Q579 307 618 307 Q652 307 677.5 296.5 Q703 286 720.5 268 Q738 250 746.5 226 Q755 202 755 174 Q755 138 743 105 Q731 72 709 47.5 Q687 23 655 8 Q623 -7 584 -7 Q550 -7 524.5 3 Q499 13 481.5 31 Q464 49 455.5 73 Q447 97 447 125 Z M150 -27 L134 -16 L707 736 L723 725 L150 -27 Z " />
<glyph glyph-name="ampersand" unicode="&#x26;" horiz-adv-x="704" d="M579 0 L484 124 Q432 57 376.5 19.5 Q321 -18 246 -18 Q213 -18 180 -8 Q147 2 121.5 23.5 Q96 45 80 78 Q64 111 64 157 Q64 203 80.5 239.5 Q97 276 126 304.5 Q155 333 194 355 Q233 377 278 395 Q242 443 224.5 481 Q207 519 207 554 Q207 593 220 624.5 Q233 656 256.5 678.5 Q280 701 311 713.5 Q342 726 378 726 Q409 726 434 716 Q459 706 477 689 Q495 672 505 648.5 Q515 625 515 598 Q515 564 505 535.5 Q495 507 471.5 481.5 Q448 456 409 432.5 Q370 409 311 385 L484 158 L628 369 L655 369 L497 142 L606 0 L579 0 Z M492 595 Q492 644 459.5 676 Q427 708 377 708 Q353 708 327 699 Q301 690 279 671.5 Q257 653 243 624 Q229 595 229 556 Q229 517 249 480 Q269 443 299 401 Q397 439 444.5 482.5 Q492 526 492 595 Z M290 378 Q252 364 215 344.5 Q178 325 149.5 298 Q121 271 103.5 236 Q86 201 86 158 Q86 119 99 90 Q112 61 134.5 41 Q157 21 186 11 Q215 1 247 1 Q315 1 370 39 Q425 77 471 140 L290 378 Z " />
<glyph glyph-name="quotesingle" unicode="&#x27;" horiz-adv-x="260" d="M164 480 L204 708 L226 708 L186 480 L164 480 Z " />
<glyph glyph-name="parenleft" unicode="&#x28;" horiz-adv-x="300" d="M311 722 Q272 680 233.5 619 Q195 558 164 483.5 Q133 409 113.5 323 Q94 237 94 144 Q94 63 110 -13 Q126 -89 156 -146 L136 -156 Q106 -96 89 -18.5 Q72 59 72 141 Q72 214 85 291 Q98 368 125 444.5 Q152 521 193.5 594 Q235 667 292 732 L311 722 Z " />
<glyph glyph-name="parenright" unicode="&#x29;" horiz-adv-x="300" d="M8 -146 Q47 -104 85.5 -43 Q124 18 155 92.5 Q186 167 205.5 253 Q225 339 225 432 Q225 513 209 589 Q193 665 163 722 L183 732 Q213 672 230 594.5 Q247 517 247 435 Q247 362 234 285 Q221 208 194 131.5 Q167 55 125.5 -18 Q84 -91 27 -156 L8 -146 Z " />
<glyph glyph-name="asterisk" unicode="&#x2a;" horiz-adv-x="444" d="M430 589 L436 572 L271 522 L373 380 L359 370 L258 513 L157 370 L143 380 L245 522 L80 572 L86 589 L249 537 L249 708 L267 708 L267 537 L430 589 Z " />
<glyph glyph-name="plus" unicode="&#x2b;" horiz-adv-x="666" d="M345 65 L324 65 L324 295 L100 295 L100 314 L324 314 L324 544 L345 544 L345 314 L566 314 L566 295 L345 295 L345 65 Z " />
<glyph glyph-name="comma" unicode="&#x2c;" horiz-adv-x="240" d="M24 -138 L7 -138 L104 90 L128 90 L24 -138 Z " />
<glyph glyph-name="hyphen" unicode="&#x2d;" horiz-adv-x="300" d="M63 245 L67 264 L247 264 L243 245 L63 245 Z " />
<glyph glyph-name="period" unicode="&#x2e;" horiz-adv-x="240" d="M81 -6 Q72 -6 66 -0.5 Q60 5 60 17 Q60 28 67 36.5 Q74 45 85 45 Q94 45 100 39.5 Q106 34 106 23 Q106 11 98.5 2.5 Q91 -6 81 -6 Z " />
<glyph glyph-name="slash" unicode="&#x2f;" horiz-adv-x="370" d="M-1 -15 L-18 -8 L419 729 L436 722 L-1 -15 Z " />
<glyph glyph-name="zero" unicode="0" horiz-adv-x="560" d="M247 -12 Q197 -12 164 7 Q131 26 111 58.5 Q91 91 82.5 132.5 Q74 174 74 219 Q74 273 81 331 Q88 389 103 444.5 Q118 500 141 550 Q164 600 196 638 Q228 676 269 698 Q310 720 361 720 Q410 720 443 701 Q476 682 496 649.5 Q516 617 524.5 575.5 Q533 534 533 489 Q533 435 526 377 Q519 319 504 263.5 Q489 208 466 158 Q443 108 411.5 70 Q380 32 339 10 Q298 -12 247 -12 Z M360 700 Q296 700 247 658 Q198 616 164.5 548.5 Q131 481 113.5 396.5 Q96 312 96 226 Q96 186 102.5 147 Q109 108 126 77 Q143 46 172.5 27 Q202 8 247 8 Q311 8 360 50 Q409 92 442.5 159.5 Q476 227 493.5 311.5 Q511 396 511 482 Q511 522 504.5 561 Q498 600 481 631 Q464 662 434.5 681 Q405 700 360 700 Z " />
<glyph glyph-name="one" unicode="1" horiz-adv-x="560" d="M250 0 L370 682 L216 575 L206 592 L375 708 L397 708 L272 0 L250 0 Z " />
<glyph glyph-name="two" unicode="2" horiz-adv-x="560" d="M23 0 L28 26 L326 315 Q372 360 403.5 395.5 Q435 431 454.5 461 Q474 491 482 518 Q490 545 490 572 Q490 603 478.5 627 Q467 651 447 667.5 Q427 684 400.5 692.5 Q374 701 344 701 Q286 701 238 670.5 Q190 640 161 580 L142 587 Q171 651 224.5 685.5 Q278 720 344 720 Q380 720 410.5 709.5 Q441 699 463.5 680 Q486 661 499 634 Q512 607 512 573 Q512 535 501 503 Q490 471 467.5 438.5 Q445 406 411.5 371.5 Q378 337 334 294 L53 21 L434 21 L430 0 L23 0 Z " />
<glyph glyph-name="three" unicode="3" horiz-adv-x="560" d="M231 -12 Q163 -12 113.5 18 Q64 48 43 99 L61 110 Q84 61 128.5 34.5 Q173 8 232 8 Q283 8 321.5 25 Q360 42 386 69.5 Q412 97 425.5 132.5 Q439 168 439 205 Q439 244 424.5 273.5 Q410 303 385.5 322.5 Q361 342 329.5 352 Q298 362 264 362 L242 362 L245 382 L267 382 Q317 382 355.5 397.5 Q394 413 420.5 438.5 Q447 464 460.5 498 Q474 532 474 570 Q474 598 463 622 Q452 646 432.5 663.5 Q413 681 387 691 Q361 701 332 701 Q288 701 249 682 Q210 663 181 628 L165 640 Q196 677 236.5 698.5 Q277 720 331 720 Q367 720 397 708.5 Q427 697 449 677 Q471 657 483 629.5 Q495 602 495 571 Q495 535 484.5 502 Q474 469 452 442.5 Q430 416 397.5 397.5 Q365 379 320 372 L320 370 Q354 364 380.5 349 Q407 334 425 312.5 Q443 291 452 263.5 Q461 236 461 206 Q461 166 447.5 127 Q434 88 405.5 57 Q377 26 334 7 Q291 -12 231 -12 Z " />
<glyph glyph-name="four" unicode="4" horiz-adv-x="560" d="M389 184 L357 0 L335 0 L367 184 L33 184 L38 211 L445 708 L481 708 L392 204 L510 204 L506 184 L389 184 Z M455 684 L452 684 L59 204 L370 204 L455 684 Z " />
<glyph glyph-name="five" unicode="5" horiz-adv-x="560" d="M233 -12 Q167 -12 120 14 Q73 40 46 82 L64 96 Q88 55 132 31.5 Q176 8 232 8 Q283 8 324.5 27.5 Q366 47 395.5 80 Q425 113 440.5 156.5 Q456 200 456 249 Q456 285 444 316 Q432 347 409.5 370 Q387 393 354 406 Q321 419 280 419 Q243 419 209.5 409.5 Q176 400 146 383 L208 708 L517 708 L513 688 L226 688 L172 413 Q201 427 228 432.5 Q255 438 281 438 Q327 438 363.5 423.5 Q400 409 425.5 383.5 Q451 358 464.5 324 Q478 290 478 251 Q478 198 461.5 150 Q445 102 413.5 66 Q382 30 336.5 9 Q291 -12 233 -12 Z " />
<glyph glyph-name="six" unicode="6" horiz-adv-x="560" d="M85 174 Q85 140 96.5 110 Q108 80 130 57 Q152 34 182.5 20.5 Q213 7 252 7 Q301 7 341.5 25.5 Q382 44 410 75 Q438 106 453.5 146.5 Q469 187 469 232 Q469 266 457.5 296.5 Q446 327 425 349.5 Q404 372 374 385 Q344 398 306 398 Q258 398 217.5 379.5 Q177 361 147.5 330.5 Q118 300 101.5 259.5 Q85 219 85 174 Z M63 174 Q63 201 68.5 225.5 Q74 250 85.5 275 Q97 300 114.5 327.5 Q132 355 157 387 L401 708 L429 708 L166 368 L168 367 Q189 385 224.5 401 Q260 417 307 417 Q347 417 381 404 Q415 391 439.5 367 Q464 343 477.5 309 Q491 275 491 233 Q491 184 474 139.5 Q457 95 425.5 61.5 Q394 28 349.5 8 Q305 -12 250 -12 Q209 -12 174.5 1 Q140 14 115.5 38.5 Q91 63 77 97.5 Q63 132 63 174 Z " />
<glyph glyph-name="seven" unicode="7" horiz-adv-x="560" d="M539 681 L116 0 L90 0 L519 688 L165 688 L169 708 L544 708 L539 681 Z " />
<glyph glyph-name="eight" unicode="8" horiz-adv-x="560" d="M487 218 Q487 159 465.5 116 Q444 73 410 44.5 Q376 16 333.5 2 Q291 -12 248 -12 Q213 -12 179 -2 Q145 8 119 29 Q93 50 77 82 Q61 114 61 158 Q61 200 75 237 Q89 274 114 303 Q139 332 174 352 Q209 372 252 381 L252 383 Q196 401 173.5 441 Q151 481 151 524 Q151 569 167.5 605 Q184 641 211.5 666.5 Q239 692 275 706 Q311 720 349 720 Q385 720 416 710 Q447 700 470 680 Q493 660 506 629.5 Q519 599 519 559 Q519 523 507 492.5 Q495 462 474 439 Q453 416 425 401 Q397 386 366 379 L366 377 Q390 370 411.5 356 Q433 342 450 321.5 Q467 301 477 275 Q487 249 487 218 Z M173 523 Q173 465 209.5 426.5 Q246 388 309 388 Q352 388 387 402.5 Q422 417 446.5 440.5 Q471 464 484 494.5 Q497 525 497 557 Q497 627 455 663.5 Q413 700 349 700 Q311 700 278.5 685.5 Q246 671 222.5 646.5 Q199 622 186 590 Q173 558 173 523 Z M83 160 Q83 126 95.5 98.5 Q108 71 130 51 Q152 31 182.5 20 Q213 9 248 9 Q296 9 336 25 Q376 41 405 68.5 Q434 96 450 134 Q466 172 466 217 Q466 248 453.5 276 Q441 304 419.5 325 Q398 346 368 358 Q338 370 303 370 Q258 370 218 354 Q178 338 148 309.5 Q118 281 100.5 243 Q83 205 83 160 Z " />
<glyph glyph-name="nine" unicode="9" horiz-adv-x="560" d="M527 534 Q527 568 515.5 598 Q504 628 482 651 Q460 674 429.5 687.5 Q399 701 360 701 Q310 701 270 683.5 Q230 666 202 636 Q174 606 158.5 566 Q143 526 143 481 Q143 446 154.5 416 Q166 386 187 363.5 Q208 341 238 328 Q268 315 306 315 Q354 315 394.5 332.5 Q435 350 464.5 380 Q494 410 510.5 449.5 Q527 489 527 534 Z M549 534 Q549 481 526.5 433 Q504 385 455 321 L211 0 L183 0 L446 340 L444 341 Q423 323 387.5 309.5 Q352 296 305 296 Q264 296 230.5 309 Q197 322 172.5 346 Q148 370 134.5 404 Q121 438 121 480 Q121 529 138 572.5 Q155 616 186.5 649 Q218 682 262.5 701 Q307 720 362 720 Q403 720 437.5 707 Q472 694 496.5 669.5 Q521 645 535 610.5 Q549 576 549 534 Z " />
<glyph glyph-name="colon" unicode="&#x3a;" horiz-adv-x="280" d="M102 -6 Q93 -6 87 -0.5 Q81 5 81 17 Q81 28 88 36.5 Q95 45 106 45 Q115 45 121 39.5 Q127 34 127 23 Q127 11 119.5 2.5 Q112 -6 102 -6 Z M168 409 Q159 409 153 414.5 Q147 420 147 432 Q147 443 154 451.5 Q161 460 172 460 Q181 460 187 454.5 Q193 449 193 438 Q193 426 185.5 417.5 Q178 409 168 409 Z " />
<glyph glyph-name="semicolon" unicode="&#x3b;" horiz-adv-x="280" d="M34 -138 L17 -138 L114 90 L138 90 L34 -138 Z M168 409 Q159 409 153 414.5 Q147 420 147 432 Q147 443 154 451.5 Q161 460 172 460 Q181 460 187 454.5 Q193 449 193 438 Q193 426 185.5 417.5 Q178 409 168 409 Z " />
<glyph glyph-name="less" unicode="&#x3c;" horiz-adv-x="666" d="M100 291 L100 315 L566 539 L566 519 L112 303 L566 87 L566 67 L100 291 Z " />
<glyph glyph-name="equal" unicode="&#x3d;" horiz-adv-x="666" d="M100 380 L100 399 L566 399 L566 380 L100 380 Z M100 209 L100 228 L566 228 L566 209 L100 209 Z " />
<glyph glyph-name="greater" unicode="&#x3e;" horiz-adv-x="666" d="M100 87 L554 303 L100 519 L100 539 L566 315 L566 291 L100 67 L100 87 Z " />
<glyph glyph-name="question" unicode="&#x3f;" horiz-adv-x="472" d="M238 200 L216 200 L226 253 Q229 269 234.5 286 Q240 303 250.5 320.5 Q261 338 277.5 355.5 Q294 373 319 390 L358 420 Q376 434 393 449.5 Q410 465 423 484 Q436 503 444 525 Q452 547 452 574 Q452 607 441.5 632 Q431 657 412.5 673 Q394 689 369 697 Q344 705 316 705 Q281 705 252 694.5 Q223 684 200.5 665 Q178 646 161 621 Q144 596 134 566 L114 572 Q140 645 191.5 685.5 Q243 726 317 726 Q348 726 376.5 717 Q405 708 427 689 Q449 670 461.5 642 Q474 614 474 575 Q474 542 463.5 515.5 Q453 489 436.5 467 Q420 445 398.5 427 Q377 409 356 394 Q326 373 306.5 356 Q287 339 275 322 Q263 305 256.5 286.5 Q250 268 246 244 L238 200 Z M203 -6 Q194 -6 188 -0.5 Q182 5 182 17 Q182 28 189 36.5 Q196 45 207 45 Q216 45 222 39.5 Q228 34 228 23 Q228 11 220.5 2.5 Q213 -6 203 -6 Z " />
<glyph glyph-name="at" unicode="&#x40;" horiz-adv-x="800" d="M558 160 Q541 160 526 165.5 Q511 171 500.5 183 Q490 195 487 212.5 Q484 230 491 254 L489 254 Q481 241 467.5 225 Q454 209 434.5 194.5 Q415 180 391 170 Q367 160 339 160 Q312 160 293 168.5 Q274 177 262.5 191 Q251 205 246 223.5 Q241 242 241 262 Q241 302 259.5 353 Q278 404 311 448 Q344 492 389 522.5 Q434 553 487 553 Q529 553 553 528.5 Q577 504 577 462 L581 462 L614 535 L635 535 L526 298 Q519 284 512 262 Q505 240 505 223 Q505 199 522 189.5 Q539 180 562 180 Q602 180 641 199.5 Q680 219 710 256 Q740 293 758.5 345.5 Q777 398 777 464 Q777 517 755.5 561.5 Q734 606 696 638.5 Q658 671 605.5 689.5 Q553 708 492 708 Q403 708 328.5 673 Q254 638 200 580 Q146 522 116 448.5 Q86 375 86 297 Q86 231 109 176.5 Q132 122 173.5 82.5 Q215 43 272 21.5 Q329 0 398 0 Q489 0 562 34.5 Q635 69 688 123 L703 110 Q645 53 569.5 16.5 Q494 -20 398 -20 Q324 -20 262.5 3 Q201 26 157 67.5 Q113 109 88.5 167 Q64 225 64 295 Q64 385 97.5 463.5 Q131 542 189.5 601 Q248 660 325.5 694 Q403 728 492 728 Q558 728 614.5 708.5 Q671 689 711.5 654 Q752 619 775 570.5 Q798 522 798 464 Q798 396 778.5 340 Q759 284 726 244 Q693 204 649.5 182 Q606 160 558 160 Z M561 450 Q561 466 558 481 Q555 496 546.5 507.5 Q538 519 523.5 526 Q509 533 485 533 Q453 533 423.5 519 Q394 505 369.5 482.5 Q345 460 325 431 Q305 402 291.5 372 Q278 342 270.5 313 Q263 284 263 262 Q263 226 281.5 203 Q300 180 343 180 Q373 180 401.5 195.5 Q430 211 454 235.5 Q478 260 498 290.5 Q518 321 532 351 Q546 381 553.5 407.5 Q561 434 561 450 Z " />
<glyph glyph-name="A" unicode="A" horiz-adv-x="633" d="M555 0 L519 203 L119 203 L-10 0 L-37 0 L418 708 L451 708 L577 0 L555 0 Z M432 693 L131 222 L516 222 L432 693 Z " />
<glyph glyph-name="B" unicode="B" horiz-adv-x="605" d="M66 0 L191 708 L372 708 Q409 708 444.5 699 Q480 690 507.5 671.5 Q535 653 551.5 624.5 Q568 596 568 556 Q568 481 524 435 Q480 389 393 374 L393 372 Q417 369 443 357.5 Q469 346 490.5 326 Q512 306 526 277.5 Q540 249 540 211 Q540 155 519 115.5 Q498 76 462 50 Q426 24 378 12 Q330 0 276 0 L66 0 Z M547 554 Q547 588 532.5 613.5 Q518 639 493 655.5 Q468 672 435.5 680.5 Q403 689 367 689 L209 689 L155 382 L318 382 Q367 382 409 393 Q451 404 482 425.5 Q513 447 530 479 Q547 511 547 554 Z M518 207 Q518 247 502 276.5 Q486 306 460.5 325 Q435 344 403.5 353.5 Q372 363 341 363 L152 363 L91 19 L269 19 Q387 19 452.5 68 Q518 117 518 207 Z " />
<glyph glyph-name="C" unicode="C" horiz-adv-x="724" d="M645 72 Q593 25 532 2.5 Q471 -20 405 -20 Q325 -20 265.5 3 Q206 26 167 67.5 Q128 109 109 165.5 Q90 222 90 288 Q90 374 121 453.5 Q152 533 207.5 594 Q263 655 339 691.5 Q415 728 505 728 Q538 728 570.5 722.5 Q603 717 632 705.5 Q661 694 685.5 677 Q710 660 728 637 L712 621 Q695 643 671.5 659.5 Q648 676 620.5 687 Q593 698 563 703 Q533 708 504 708 Q420 708 348 673 Q276 638 223.5 580 Q171 522 141.5 447 Q112 372 112 292 Q112 231 129 178 Q146 125 182 85.5 Q218 46 273 23 Q328 0 404 0 Q466 0 525.5 22 Q585 44 635 89 L645 72 Z " />
<glyph glyph-name="D" unicode="D" horiz-adv-x="775" d="M66 0 L191 708 L377 708 Q449 708 511 689 Q573 670 618.5 632.5 Q664 595 690 540.5 Q716 486 716 416 Q716 306 679 227.5 Q642 149 579.5 98.5 Q517 48 433.5 24 Q350 0 257 0 L66 0 Z M210 688 L93 20 L256 20 Q345 20 424.5 42 Q504 64 564 111.5 Q624 159 659 233.5 Q694 308 694 413 Q694 480 669.5 531.5 Q645 583 602.5 617.5 Q560 652 501 670 Q442 688 373 688 L210 688 Z " />
<glyph glyph-name="E" unicode="E" horiz-adv-x="576" d="M66 0 L191 708 L584 708 L580 688 L208 688 L153 377 L511 377 L508 357 L150 357 L91 20 L493 20 L489 0 L66 0 Z " />
<glyph glyph-name="F" unicode="F" horiz-adv-x="540" d="M209 688 L154 377 L494 377 L491 357 L151 357 L88 0 L66 0 L191 708 L572 708 L568 688 L209 688 Z " />
<glyph glyph-name="G" unicode="G" horiz-adv-x="770" d="M402 -20 Q322 -20 263 3 Q204 26 165.5 67 Q127 108 108.5 164.5 Q90 221 90 288 Q90 374 121 453.5 Q152 533 207.5 594 Q263 655 339 691.5 Q415 728 505 728 Q538 728 570.5 722.5 Q603 717 632 705.5 Q661 694 685.5 677 Q710 660 728 637 L712 621 Q695 643 671.5 659.5 Q648 676 620.5 687 Q593 698 563 703 Q533 708 504 708 Q420 708 348 673 Q276 638 223.5 580 Q171 522 141.5 447 Q112 372 112 292 Q112 231 129 178 Q146 125 181 85.5 Q216 46 271 23 Q326 0 402 0 Q468 0 526.5 15 Q585 30 624 53 L673 331 L489 331 L493 350 L698 350 L643 41 Q602 15 538 -2.5 Q474 -20 402 -20 Z " />
<glyph glyph-name="H" unicode="H" horiz-adv-x="720" d="M552 0 L615 356 L151 356 L88 0 L66 0 L191 708 L213 708 L154 376 L618 376 L677 708 L699 708 L574 0 L552 0 Z " />
<glyph glyph-name="I" unicode="I" horiz-adv-x="234" d="M66 0 L191 708 L213 708 L88 0 L66 0 Z " />
<glyph glyph-name="J" unicode="J" horiz-adv-x="480" d="M372 193 Q363 144 347 105 Q331 66 305.5 38.5 Q280 11 244.5 -3.5 Q209 -18 162 -18 Q99 -18 58.5 14.5 Q18 47 6 93 L26 102 Q39 57 76 29.5 Q113 2 164 2 Q207 2 238.5 16 Q270 30 292.5 55.5 Q315 81 329 117 Q343 153 351 196 L441 708 L463 708 L372 193 L372 193 Z " />
<glyph glyph-name="K" unicode="K" horiz-adv-x="529" d="M157 385 L551 708 L583 708 L184 381 L492 0 L464 0 L156 381 L155 381 L88 0 L66 0 L191 708 L213 708 L156 385 L157 385 Z " />
<glyph glyph-name="L" unicode="L" horiz-adv-x="498" d="M66 0 L191 708 L213 708 L92 20 L444 20 L440 0 L66 0 Z " />
<glyph glyph-name="M" unicode="M" horiz-adv-x="901" d="M733 0 L853 683 L849 683 L419 0 L401 0 L211 683 L208 683 L88 0 L66 0 L191 708 L225 708 L416 32 L840 708 L880 708 L755 0 L733 0 Z " />
<glyph glyph-name="N" unicode="N" horiz-adv-x="749" d="M571 0 L211 683 L208 683 L88 0 L66 0 L191 708 L222 708 L583 26 L586 26 L706 708 L728 708 L603 0 L571 0 Z " />
<glyph glyph-name="O" unicode="O" horiz-adv-x="872" d="M791 411 Q791 472 773.5 526.5 Q756 581 719.5 621 Q683 661 627 684.5 Q571 708 495 708 Q409 708 338 673.5 Q267 639 217 581.5 Q167 524 139.5 449.5 Q112 375 112 295 Q112 233 130 179.5 Q148 126 184.5 86 Q221 46 277 23 Q333 0 409 0 Q495 0 565.5 34 Q636 68 686 125 Q736 182 763.5 256.5 Q791 331 791 411 Z M90 295 Q90 380 118.5 458.5 Q147 537 200 597 Q253 657 328 692.5 Q403 728 495 728 Q575 728 635 704 Q695 680 734.5 637 Q774 594 793.5 536 Q813 478 813 411 Q813 326 784.5 248 Q756 170 703.5 110.5 Q651 51 576 15.5 Q501 -20 409 -20 Q329 -20 269 4 Q209 28 169 70 Q129 112 109.5 169.5 Q90 227 90 295 Z " />
<glyph glyph-name="P" unicode="P" horiz-adv-x="560" d="M149 348 L88 0 L66 0 L191 708 L370 708 Q405 708 439 700 Q473 692 500 674 Q527 656 544 626 Q561 596 561 551 Q561 511 547 474 Q533 437 503.5 409 Q474 381 428 364.5 Q382 348 319 348 L149 348 Z M539 552 Q539 589 524.5 615.5 Q510 642 486.5 658 Q463 674 433.5 681.5 Q404 689 375 689 L209 689 L153 367 L324 367 Q429 367 484 418 Q539 469 539 552 Z " />
<glyph glyph-name="Q" unicode="Q" horiz-adv-x="883" d="M531 20 L802 20 L798 0 L404 0 Q324 0 265 22 Q206 44 167 83.5 Q128 123 109 177.5 Q90 232 90 298 Q90 382 118.5 459.5 Q147 537 200 596.5 Q253 656 328 692 Q403 728 495 728 Q575 728 635 703.5 Q695 679 734.5 636.5 Q774 594 793.5 537 Q813 480 813 414 Q813 349 794 286.5 Q775 224 739 171.5 Q703 119 650.5 79.5 Q598 40 531 22 L531 20 Z M791 413 Q791 473 773.5 526.5 Q756 580 719.5 620.5 Q683 661 627 684.5 Q571 708 495 708 Q409 708 338 673.5 Q267 639 217 581.5 Q167 524 139.5 450.5 Q112 377 112 299 Q112 239 129 188 Q146 137 182 99.5 Q218 62 273.5 41 Q329 20 405 20 Q492 20 563.5 52.5 Q635 85 685.5 139.5 Q736 194 763.5 265 Q791 336 791 413 Z " />
<glyph glyph-name="R" unicode="R" horiz-adv-x="594" d="M479 0 L317 357 L151 357 L88 0 L66 0 L191 708 L356 708 Q392 708 428 700.5 Q464 693 493.5 676 Q523 659 541 630 Q559 601 559 558 Q559 496 537 457.5 Q515 419 482 397 Q449 375 410.5 367 Q372 359 339 358 L503 0 L479 0 Z M537 555 Q537 593 521 618.5 Q505 644 479 660 Q453 676 418.5 682.5 Q384 689 348 689 L209 689 L154 376 L314 376 Q365 376 406 386 Q447 396 476.5 418 Q506 440 521.5 474 Q537 508 537 555 Z " />
<glyph glyph-name="S" unicode="S" horiz-adv-x="570" d="M535 629 Q516 664 467 686 Q418 708 358 708 Q324 708 285.5 698 Q247 688 215 666 Q183 644 161.5 610.5 Q140 577 140 529 Q140 494 151.5 470.5 Q163 447 183.5 430.5 Q204 414 232.5 402 Q261 390 296 378 Q337 363 372 347 Q407 331 432 309.5 Q457 288 471 259 Q485 230 485 190 Q485 142 467 103 Q449 64 416 37 Q383 10 337 -5 Q291 -20 235 -20 Q203 -20 172 -13 Q141 -6 114.5 7 Q88 20 67 37.5 Q46 55 33 75 L50 88 Q60 71 78 55 Q96 39 120.5 27 Q145 15 175.5 7.5 Q206 0 241 0 Q289 0 329.5 12.5 Q370 25 400 49.5 Q430 74 446.5 109 Q463 144 463 189 Q463 227 448.5 254 Q434 281 409 300.5 Q384 320 350.5 334 Q317 348 278 361 Q245 372 216 385.5 Q187 399 165 417.5 Q143 436 130.5 463 Q118 490 118 528 Q118 579 140 616.5 Q162 654 196.5 679 Q231 704 274.5 716 Q318 728 360 728 Q432 728 480.5 703 Q529 678 552 643 L535 629 Z " />
<glyph glyph-name="T" unicode="T" horiz-adv-x="515" d="M349 688 L228 0 L206 0 L327 688 L82 688 L86 708 L590 708 L586 688 L349 688 Z " />
<glyph glyph-name="U" unicode="U" horiz-adv-x="716" d="M629 268 Q618 208 599 155.5 Q580 103 546.5 64 Q513 25 461.5 2.5 Q410 -20 335 -20 Q216 -20 156 37.5 Q96 95 96 197 Q96 215 98.5 236 Q101 257 105 277 L181 708 L203 708 L127 276 Q123 253 120.5 233 Q118 213 118 197 Q118 155 130.5 119 Q143 83 169.5 56.5 Q196 30 237 15 Q278 0 335 0 Q414 0 463.5 26 Q513 52 542.5 92.5 Q572 133 586 180.5 Q600 228 608 272 L685 708 L707 708 L629 268 L629 268 Z " />
<glyph glyph-name="V" unicode="V" horiz-adv-x="588" d="M252 0 L218 0 L102 708 L124 708 L237 20 L239 20 L646 708 L672 708 L252 0 Z " />
<glyph glyph-name="W" unicode="W" horiz-adv-x="943" d="M652 0 L617 0 L560 685 L558 685 L209 0 L174 0 L115 708 L138 708 L194 21 L197 21 L546 708 L580 708 L637 21 L640 21 L992 708 L1017 708 L652 0 Z " />
<glyph glyph-name="X" unicode="X" horiz-adv-x="570" d="M483 0 L309 354 L10 0 L-18 0 L297 371 L131 708 L155 708 L311 388 L581 708 L608 708 L323 371 L508 0 L483 0 Z " />
<glyph glyph-name="Y" unicode="Y" horiz-adv-x="513" d="M274 310 L219 0 L197 0 L252 310 L90 708 L114 708 L266 332 L571 708 L598 708 L274 310 Z " />
<glyph glyph-name="Z" unicode="Z" horiz-adv-x="594" d="M14 0 L18 27 L600 688 L148 688 L152 708 L625 708 L620 679 L39 20 L516 20 L512 0 L14 0 Z " />
<glyph glyph-name="bracketleft" unicode="&#x5b;" horiz-adv-x="300" d="M12 -156 L169 732 L309 732 L306 713 L188 713 L38 -137 L156 -137 L152 -156 L12 -156 Z " />
<glyph glyph-name="backslash" unicode="&#x5c;" horiz-adv-x="370" d="M42 729 L349 -8 L330 -15 L23 722 L42 729 Z " />
<glyph glyph-name="bracketright" unicode="&#x5d;" horiz-adv-x="300" d="M16 -137 L134 -137 L284 713 L166 713 L169 732 L309 732 L152 -156 L12 -156 L16 -137 Z " />
<glyph glyph-name="asciicircum" unicode="&#x5e;" horiz-adv-x="666" d="M321 708 L345 708 L569 242 L549 242 L333 696 L117 242 L97 242 L321 708 Z " />
<glyph glyph-name="underscore" unicode="&#x5f;" horiz-adv-x="500" d="M0 -114 L0 -94 L500 -94 L500 -114 L0 -114 Z " />
<glyph glyph-name="grave" unicode="&#x60;" horiz-adv-x="240" d="M117 708 L223 564 L203 564 L89 708 L117 708 Z " />
<glyph glyph-name="a" unicode="a" horiz-adv-x="512" d="M396 104 Q391 78 388.5 48.5 Q386 19 386 0 L365 0 Q365 20 369 51.5 Q373 83 378 110 L375 110 Q349 51 301.5 18.5 Q254 -14 192 -14 Q169 -14 143.5 -8 Q118 -2 96 11.5 Q74 25 59.5 48 Q45 71 45 105 Q45 157 73.5 189.5 Q102 222 151 240 Q200 258 265 264 Q330 270 404 270 Q409 290 411 308 Q413 326 413 334 Q413 396 378 425.5 Q343 455 283 455 Q242 455 206.5 440 Q171 425 139 400 L127 417 Q163 445 204 459.5 Q245 474 284 474 Q356 474 395.5 438.5 Q435 403 435 337 Q435 326 433 311 Q431 296 429 286 L396 104 Z M401 251 L373 251 Q307 251 251 244.5 Q195 238 154 221.5 Q113 205 90 177.5 Q67 150 67 108 Q67 78 79.5 58 Q92 38 110.5 26.5 Q129 15 151.5 10 Q174 5 195 5 Q240 5 274.5 24 Q309 43 333.5 72.5 Q358 102 372.5 137.5 Q387 173 393 207 L401 251 Z " />
<glyph glyph-name="b" unicode="b" horiz-adv-x="623" d="M146 342 Q159 370 180 394 Q201 418 227.5 436 Q254 454 286 464 Q318 474 354 474 Q406 474 444.5 458.5 Q483 443 509 415.5 Q535 388 548 350.5 Q561 313 561 269 Q561 213 542.5 162 Q524 111 490 72 Q456 33 407.5 9.5 Q359 -14 299 -14 Q225 -14 174.5 25.5 Q124 65 109 128 L106 128 L84 0 L62 0 L195 756 L217 756 L143 342 L146 342 Z M352 455 Q302 455 259.5 432.5 Q217 410 186 372.5 Q155 335 137 287 Q119 239 119 188 Q119 150 131.5 116.5 Q144 83 167.5 58.5 Q191 34 224.5 19.5 Q258 5 299 5 Q353 5 397.5 27 Q442 49 473.5 85.5 Q505 122 522 169.5 Q539 217 539 268 Q539 307 527.5 341 Q516 375 492.5 400.5 Q469 426 434 440.5 Q399 455 352 455 Z " />
<glyph glyph-name="c" unicode="c" horiz-adv-x="468" d="M425 46 Q393 15 350.5 -1.5 Q308 -18 261 -18 Q208 -18 170 -2.5 Q132 13 107 40.5 Q82 68 70 105 Q58 142 58 184 Q58 241 78 293 Q98 345 134 385.5 Q170 426 219.5 450 Q269 474 328 474 Q372 474 413.5 459 Q455 444 478 414 L464 399 Q442 428 405 441.5 Q368 455 330 455 Q276 455 230 432.5 Q184 410 150.5 372.5 Q117 335 98.5 287 Q80 239 80 187 Q80 148 91 114.5 Q102 81 124.5 56 Q147 31 181 16.5 Q215 2 262 2 Q304 2 344.5 17.5 Q385 33 414 61 L425 46 L425 46 Z " />
<glyph glyph-name="d" unicode="d" horiz-adv-x="617" d="M265 -14 Q213 -14 174.5 1.5 Q136 17 110 44.5 Q84 72 71 109.5 Q58 147 58 191 Q58 247 76.5 298 Q95 349 129 388 Q163 427 211.5 450.5 Q260 474 320 474 Q394 474 444.5 434.5 Q495 395 510 332 L513 332 L586 756 L608 756 L475 0 L453 0 L476 118 L473 118 Q459 90 438.5 66 Q418 42 391.5 24 Q365 6 333 -4 Q301 -14 265 -14 Z M267 5 Q316 5 359 27.5 Q402 50 433 87.5 Q464 125 482 173 Q500 221 500 272 Q500 310 487.5 343.5 Q475 377 451.5 401.5 Q428 426 394.5 440.5 Q361 455 320 455 Q266 455 221.5 433 Q177 411 145.5 374.5 Q114 338 97 290.5 Q80 243 80 192 Q80 153 91.5 119 Q103 85 126 59.5 Q149 34 184.5 19.5 Q220 5 267 5 Z " />
<glyph glyph-name="e" unicode="e" horiz-adv-x="553" d="M83 235 Q80 215 80 200 Q80 107 130 56 Q180 5 270 5 Q327 5 370.5 29 Q414 53 446 91 L458 77 Q429 40 381 13 Q333 -14 270 -14 Q219 -14 179.5 1.5 Q140 17 113 44.5 Q86 72 72 110.5 Q58 149 58 195 Q58 249 77 299.5 Q96 350 131 389 Q166 428 214 451 Q262 474 321 474 Q368 474 402 459.5 Q436 445 458.5 420.5 Q481 396 491.5 363 Q502 330 502 293 Q502 283 500.5 267 Q499 251 495 235 L83 235 Z M478 254 Q481 276 481 295 Q481 367 438.5 411 Q396 455 321 455 Q268 455 227 435.5 Q186 416 156.5 386.5 Q127 357 109.5 321.5 Q92 286 86 254 L478 254 Z " />
<glyph glyph-name="f" unicode="f" horiz-adv-x="282" d="M366 745 Q346 750 326 750 Q299 750 279.5 739 Q260 728 246.5 710.5 Q233 693 225 671 Q217 649 213 626 L184 460 L309 460 L306 441 L181 441 L103 0 L81 0 L159 441 L62 441 L65 460 L161 460 L190 625 Q197 667 211.5 694.5 Q226 722 244.5 738.5 Q263 755 283.5 761.5 Q304 768 325 768 Q352 768 370 762 L366 745 Z " />
<glyph glyph-name="g" unicode="g" horiz-adv-x="617" d="M474 118 Q460 90 439.5 66 Q419 42 392.5 24 Q366 6 334 -4 Q302 -14 266 -14 Q214 -14 175.5 1.5 Q137 17 111 44.5 Q85 72 72 109.5 Q59 147 59 191 Q59 247 77.5 298 Q96 349 130 388 Q164 427 212.5 450.5 Q261 474 321 474 Q395 474 445.5 434.5 Q496 395 511 332 L514 332 L536 460 L557 460 L481 25 Q471 -30 454 -79.5 Q437 -129 407 -167 Q377 -205 332 -227.5 Q287 -250 222 -250 Q157 -250 108.5 -227.5 Q60 -205 28 -164 L43 -149 Q76 -192 122.5 -211.5 Q169 -231 222 -231 Q283 -231 324.5 -209.5 Q366 -188 393 -152 Q420 -116 435.5 -69.5 Q451 -23 460 27 L477 118 L474 118 Z M268 5 Q317 5 360 27.5 Q403 50 434 87.5 Q465 125 483 173 Q501 221 501 272 Q501 310 488.5 343.5 Q476 377 452.5 401.5 Q429 426 395.5 440.5 Q362 455 321 455 Q267 455 222.5 433 Q178 411 146.5 374.5 Q115 338 98 290.5 Q81 243 81 192 Q81 153 92.5 119 Q104 85 127 59.5 Q150 34 185.5 19.5 Q221 5 268 5 Z " />
<glyph glyph-name="h" unicode="h" horiz-adv-x="566" d="M146 339 Q176 406 225.5 440 Q275 474 335 474 Q372 474 399.5 461.5 Q427 449 445 428.5 Q463 408 472 381 Q481 354 481 325 Q481 303 475 273 L427 0 L405 0 L454 274 Q456 285 457.5 299 Q459 313 459 324 Q459 348 452 371.5 Q445 395 430 413.5 Q415 432 391 443.5 Q367 455 332 455 Q294 455 260.5 439.5 Q227 424 200 395 Q173 366 153.5 324.5 Q134 283 125 230 L84 0 L62 0 L195 756 L217 756 L144 339 L146 339 Z " />
<glyph glyph-name="i" unicode="i" horiz-adv-x="226" d="M62 0 L143 460 L165 460 L84 0 L62 0 Z M181 633 Q172 633 166 638.5 Q160 644 160 656 Q160 667 167 675.5 Q174 684 185 684 Q194 684 200 678.5 Q206 673 206 662 Q206 650 198.5 641.5 Q191 633 181 633 Z " />
<glyph glyph-name="j" unicode="j" horiz-adv-x="226" d="M67 -97 Q62 -125 53.5 -151 Q45 -177 30 -197 Q15 -217 -8 -229 Q-31 -241 -65 -241 Q-72 -241 -80 -240.5 Q-88 -240 -94 -238 L-92 -219 Q-79 -222 -67 -222 Q-35 -222 -15 -211 Q5 -200 17 -182.5 Q29 -165 35 -143 Q41 -121 45 -99 L143 460 L165 460 L67 -97 Z M181 633 Q172 633 166 638.5 Q160 644 160 656 Q160 667 167 675.5 Q174 684 185 684 Q194 684 200 678.5 Q206 673 206 662 Q206 650 198.5 641.5 Q191 633 181 633 Z " />
<glyph glyph-name="k" unicode="k" horiz-adv-x="436" d="M130 249 L402 460 L436 460 L156 245 L382 0 L351 0 L129 243 L127 243 L84 0 L62 0 L195 756 L217 756 L128 249 L130 249 Z " />
<glyph glyph-name="l" unicode="l" horiz-adv-x="226" d="M62 0 L195 756 L217 756 L84 0 L62 0 Z " />
<glyph glyph-name="m" unicode="m" horiz-adv-x="888" d="M657 474 Q694 474 721.5 461.5 Q749 449 767 428.5 Q785 408 794 381 Q803 354 803 325 Q803 303 797 273 L749 0 L727 0 L776 274 Q778 285 779.5 299 Q781 313 781 324 Q781 348 774 371.5 Q767 395 752 413.5 Q737 432 713 443.5 Q689 455 654 455 Q618 455 585.5 439.5 Q553 424 527 395 Q501 366 482.5 324.5 Q464 283 455 230 L414 0 L392 0 L441 276 Q443 287 444 300 Q445 313 445 324 Q445 348 438.5 371.5 Q432 395 417.5 413.5 Q403 432 379.5 443.5 Q356 455 321 455 Q248 455 195 395.5 Q142 336 125 230 L84 0 L62 0 L123 344 Q125 355 127.5 371 Q130 387 132 403.5 Q134 420 136 435 Q138 450 138 460 L160 460 Q159 450 157 435 Q155 420 153 402.5 Q151 385 148 368.5 Q145 352 143 339 L145 339 Q174 406 220.5 440 Q267 474 324 474 Q360 474 386.5 462.5 Q413 451 431 431.5 Q449 412 458 386.5 Q467 361 467 333 L469 333 Q498 403 549 438.5 Q600 474 657 474 Z " />
<glyph glyph-name="n" unicode="n" horiz-adv-x="566" d="M335 474 Q372 474 399.5 461.5 Q427 449 445 428.5 Q463 408 472 381 Q481 354 481 325 Q481 303 475 273 L427 0 L405 0 L454 274 Q456 285 457.5 299 Q459 313 459 324 Q459 348 452 371.5 Q445 395 430 413.5 Q415 432 391 443.5 Q367 455 332 455 Q294 455 260.5 439.5 Q227 424 200 395 Q173 366 153.5 324.5 Q134 283 125 230 L84 0 L62 0 L123 344 Q125 355 127.5 371 Q130 387 132 403.5 Q134 420 136 435 Q138 450 138 460 L160 460 Q159 450 157 435 Q155 420 153 402.5 Q151 385 148 368.5 Q145 352 143 339 L145 339 Q176 406 225.5 440 Q275 474 335 474 Z " />
<glyph glyph-name="o" unicode="o" horiz-adv-x="598" d="M514 267 Q514 305 502.5 339 Q491 373 467 399 Q443 425 407 440 Q371 455 322 455 Q266 455 221.5 433 Q177 411 145.5 375 Q114 339 97 291.5 Q80 244 80 193 Q80 155 91.5 120.5 Q103 86 126.5 60.5 Q150 35 186 20 Q222 5 271 5 Q326 5 371 26.5 Q416 48 448 84.5 Q480 121 497 168.5 Q514 216 514 267 Z M58 192 Q58 247 76.5 298 Q95 349 129.5 388 Q164 427 213.5 450.5 Q263 474 324 474 Q377 474 416.5 458 Q456 442 482.5 414 Q509 386 522.5 348.5 Q536 311 536 268 Q536 212 517.5 161 Q499 110 464.5 71 Q430 32 381 9 Q332 -14 271 -14 Q218 -14 178 2 Q138 18 111.5 45.5 Q85 73 71.5 110.5 Q58 148 58 192 Z " />
<glyph glyph-name="p" unicode="p" horiz-adv-x="623" d="M42 -240 L20 -240 L143 460 L165 460 L143 342 L146 342 Q159 370 180 394 Q201 418 227.5 436 Q254 454 286 464 Q318 474 354 474 Q406 474 444.5 458.5 Q483 443 509 415.5 Q535 388 548 350.5 Q561 313 561 269 Q561 213 542.5 162 Q524 111 490 72 Q456 33 407.5 9.5 Q359 -14 299 -14 Q225 -14 174.5 25.5 Q124 65 109 128 L106 128 L42 -240 Z M352 455 Q302 455 259.5 432.5 Q217 410 186 372.5 Q155 335 137 287 Q119 239 119 188 Q119 150 131.5 116.5 Q144 83 167.5 58.5 Q191 34 224.5 19.5 Q258 5 299 5 Q353 5 397.5 27 Q442 49 473.5 85.5 Q505 122 522 169.5 Q539 217 539 268 Q539 307 527.5 341 Q516 375 492.5 400.5 Q469 426 434 440.5 Q399 455 352 455 Z " />
<glyph glyph-name="q" unicode="q" horiz-adv-x="617" d="M535 460 L557 460 L434 -240 L412 -240 L476 118 L473 118 Q459 90 438.5 66 Q418 42 391.5 24 Q365 6 333 -4 Q301 -14 265 -14 Q213 -14 174.5 1.5 Q136 17 110 44.5 Q84 72 71 109.5 Q58 147 58 191 Q58 247 76.5 298 Q95 349 129 388 Q163 427 211.5 450.5 Q260 474 320 474 Q394 474 444.5 434.5 Q495 395 510 332 L513 332 L535 460 Z M267 5 Q316 5 359 27.5 Q402 50 433 87.5 Q464 125 482 173 Q500 221 500 272 Q500 310 487.5 343.5 Q475 377 451.5 401.5 Q428 426 394.5 440.5 Q361 455 320 455 Q266 455 221.5 433 Q177 411 145.5 374.5 Q114 338 97 290.5 Q80 243 80 192 Q80 153 91.5 119 Q103 85 126 59.5 Q149 34 184.5 19.5 Q220 5 267 5 Z " />
<glyph glyph-name="r" unicode="r" horiz-adv-x="309" d="M145 339 Q177 411 224 442.5 Q271 474 322 474 Q327 474 331 474 Q335 474 339 473 L336 454 Q332 455 328.5 455 Q325 455 323 455 Q279 455 245.5 435.5 Q212 416 187.5 384.5 Q163 353 148 314.5 Q133 276 126 238 L84 0 L62 0 L123 344 Q125 355 127.5 371 Q130 387 132 403.5 Q134 420 136 435 Q138 450 138 460 L160 460 Q159 450 157 435 Q155 420 153 402.5 Q151 385 148 368.5 Q145 352 143 339 L145 339 L145 339 Z " />
<glyph glyph-name="s" unicode="s" horiz-adv-x="400" d="M36 64 Q53 39 88.5 23.5 Q124 8 165 8 Q196 8 221.5 17.5 Q247 27 265 43 Q283 59 292.5 80.5 Q302 102 302 126 Q302 145 296.5 160 Q291 175 277.5 187.5 Q264 200 241.5 210.5 Q219 221 186 232 Q127 251 102.5 275 Q78 299 78 338 Q78 372 92.5 397.5 Q107 423 130 440 Q153 457 181.5 465.5 Q210 474 239 474 Q286 474 318.5 458 Q351 442 366 419 L348 406 Q336 429 304 442 Q272 455 238 455 Q217 455 193 449 Q169 443 148.5 429.5 Q128 416 114 394.5 Q100 373 100 341 Q100 302 125 284 Q150 266 199 250 Q271 227 297.5 198 Q324 169 324 127 Q324 97 312.5 72 Q301 47 279.5 28 Q258 9 228 -1.5 Q198 -12 161 -12 Q116 -12 77 5.5 Q38 23 20 50 L36 64 Z " />
<glyph glyph-name="t" unicode="t" horiz-adv-x="292" d="M232 -1 Q219 -6 205.5 -9 Q192 -12 177 -12 Q134 -12 112 8.5 Q90 29 90 65 Q90 73 91.5 87 Q93 101 95 109 L154 441 L48 441 L51 460 L156 460 L180 595 L202 595 L178 460 L304 460 L301 441 L175 441 L116 106 Q114 98 113 85.5 Q112 73 112 67 Q112 34 131 20.5 Q150 7 182 7 Q191 7 205.5 9 Q220 11 232 16 L232 -1 L232 -1 Z " />
<glyph glyph-name="u" unicode="u" horiz-adv-x="566" d="M222 -14 Q185 -14 157.5 -1.5 Q130 11 112 31.5 Q94 52 85 79 Q76 106 76 135 Q76 157 82 187 L130 460 L152 460 L103 186 Q101 175 99.5 161 Q98 147 98 136 Q98 112 105 88.5 Q112 65 127 46.5 Q142 28 166 16.5 Q190 5 225 5 Q263 5 296.5 20.5 Q330 36 357 65 Q384 94 403.5 135.5 Q423 177 432 230 L473 460 L495 460 L434 116 Q432 105 429.5 89 Q427 73 425 56.5 Q423 40 421 25 Q419 10 419 0 L397 0 Q398 10 400 25 Q402 40 404 57.5 Q406 75 409 91.5 Q412 108 414 121 L412 121 Q381 54 331.5 20 Q282 -14 222 -14 Z " />
<glyph glyph-name="v" unicode="v" horiz-adv-x="429" d="M176 0 L147 0 L62 460 L85 460 L165 22 L167 22 L423 460 L448 460 L176 0 Z " />
<glyph glyph-name="w" unicode="w" horiz-adv-x="692" d="M475 0 L445 0 L387 436 L385 436 L144 0 L114 0 L76 460 L99 460 L133 22 L135 22 L375 460 L406 460 L463 22 L465 22 L683 460 L707 460 L475 0 Z " />
<glyph glyph-name="x" unicode="x" horiz-adv-x="435" d="M211 228 L3 0 L-26 0 L200 244 L80 460 L105 460 L215 258 L396 460 L426 460 L227 242 L368 0 L342 0 L211 228 Z " />
<glyph glyph-name="y" unicode="y" horiz-adv-x="428" d="M111 -152 Q88 -195 60 -218.5 Q32 -242 -12 -242 Q-21 -242 -33 -240 Q-45 -238 -52 -235 L-48 -216 Q-43 -218 -32.5 -220 Q-22 -222 -12 -222 Q11 -222 28.5 -214 Q46 -206 59 -193.5 Q72 -181 81.5 -165 Q91 -149 100 -133 L165 -13 L69 460 L91 460 L180 12 L422 460 L447 460 L111 -152 Z " />
<glyph glyph-name="z" unicode="z" horiz-adv-x="430" d="M5 0 L7 21 L385 441 L99 441 L102 460 L412 460 L408 438 L33 19 L346 19 L343 0 L5 0 Z " />
<glyph glyph-name="braceleft" unicode="&#x7b;" horiz-adv-x="300" d="M12 297 Q28 297 43 302 Q58 307 71 319.5 Q84 332 94 354.5 Q104 377 110 412 L144 607 Q157 677 191.5 704.5 Q226 732 272 732 L319 732 L316 713 L269 713 Q225 713 200 685.5 Q175 658 166 607 L131 411 Q120 348 96.5 321 Q73 294 43 289 L43 287 Q71 282 85 255 Q99 228 88 165 L54 -31 Q45 -82 60 -109.5 Q75 -137 119 -137 L166 -137 L162 -156 L115 -156 Q92 -156 74 -149.5 Q56 -143 44.5 -128.5 Q33 -114 29.5 -90 Q26 -66 32 -31 L66 164 Q72 199 70 221.5 Q68 244 60 256.5 Q52 269 38.5 274 Q25 279 9 279 L12 297 Z " />
<glyph glyph-name="bar" unicode="&#x7c;" horiz-adv-x="222" d="M121 750 L121 -250 L99 -250 L99 750 L121 750 Z " />
<glyph glyph-name="braceright" unicode="&#x7d;" horiz-adv-x="300" d="M309 279 Q292 279 277.5 274 Q263 269 250 256.5 Q237 244 227.5 221.5 Q218 199 212 164 L178 -31 Q172 -66 159.5 -90 Q147 -114 130 -128.5 Q113 -143 92.5 -149.5 Q72 -156 49 -156 L2 -156 L6 -137 L53 -137 Q97 -137 122 -109.5 Q147 -82 156 -31 L190 165 Q201 228 224.5 255 Q248 282 279 287 L279 289 Q265 292 254 299.5 Q243 307 236.5 321 Q230 335 229 357 Q228 379 233 411 L268 607 Q277 658 262 685.5 Q247 713 203 713 L156 713 L159 732 L206 732 Q229 732 247.5 725.5 Q266 719 277.5 704.5 Q289 690 292.5 666 Q296 642 290 607 L256 412 Q250 377 251.5 354.5 Q253 332 261 319.5 Q269 307 282 302 Q295 297 312 297 L309 279 L309 279 Z " />
<glyph glyph-name="asciitilde" unicode="&#x7e;" horiz-adv-x="666" d="M93 264 Q125 319 157.5 338 Q190 357 225 357 Q253 357 275.5 349 Q298 341 325 322 Q369 291 396 281.5 Q423 272 444 272 Q484 272 511.5 297.5 Q539 323 560 357 L575 341 Q545 294 511.5 272.5 Q478 251 444 251 Q410 251 389 260 Q368 269 343 286 Q321 301 305 310.5 Q289 320 276.5 325.5 Q264 331 252.5 333.5 Q241 336 227 336 Q186 336 159 313 Q132 290 110 250 L93 264 L93 264 Z " />
<glyph glyph-name="uni00A0" unicode="&#xa0;" horiz-adv-x="250" d="" />
<glyph glyph-name="exclamdown" unicode="&#xa1;" horiz-adv-x="276" d="M130 291 L152 291 L61 -222 L39 -222 L130 291 Z M168 492 Q177 492 183 486.5 Q189 481 189 469 Q189 458 182 449.5 Q175 441 164 441 Q155 441 149 446.5 Q143 452 143 463 Q143 475 150.5 483.5 Q158 492 168 492 Z " />
<glyph glyph-name="cent" unicode="&#xa2;" horiz-adv-x="560" d="M356 540 L378 540 L366 473 Q406 471 442.5 456 Q479 441 500 414 L486 399 Q466 425 431.5 439 Q397 453 362 455 L284 2 Q326 2 366.5 17.5 Q407 33 436 61 L447 46 Q415 15 371.5 -1.5 Q328 -18 281 -18 L270 -72 L248 -72 L258 -17 Q212 -13 178.5 4 Q145 21 123 47.5 Q101 74 90.5 109 Q80 144 80 184 Q80 240 99.5 291.5 Q119 343 154.5 383 Q190 423 238.5 447.5 Q287 472 344 474 L356 540 Z M342 455 Q290 453 246 429.5 Q202 406 170 369 Q138 332 120 285 Q102 238 102 187 Q102 151 111.5 119 Q121 87 140.5 62.5 Q160 38 190.5 22.5 Q221 7 262 3 L342 455 Z " />
<glyph glyph-name="sterling" unicode="&#xa3;" horiz-adv-x="560" d="M404 379 L400 360 L230 360 L171 20 L427 20 L423 0 L36 0 L40 20 L149 20 L208 360 L110 360 L114 379 L211 379 L235 515 Q244 564 259.5 603 Q275 642 299.5 669.5 Q324 697 357.5 711.5 Q391 726 436 726 Q472 726 501.5 715 Q531 704 550 685 L537 669 Q521 686 494.5 696 Q468 706 437 706 Q393 706 362.5 691.5 Q332 677 310.5 651 Q289 625 276 589.5 Q263 554 256 512 L233 379 L404 379 Z " />
<glyph glyph-name="currency" unicode="&#xa4;" horiz-adv-x="560" d="M434 118 Q405 92 366 77.5 Q327 63 281 63 Q234 63 195.5 77.5 Q157 92 128 119 L38 30 L24 45 L113 134 Q87 163 72.5 203 Q58 243 58 291 Q58 336 71.5 374.5 Q85 413 110 442 L24 527 L39 542 L124 457 Q153 486 193 501.5 Q233 517 281 517 Q329 517 368.5 501.5 Q408 486 437 458 L521 542 L536 527 L452 443 Q478 414 491.5 375.5 Q505 337 505 291 Q505 243 490 202.5 Q475 162 448 132 L536 45 L522 30 L434 118 Z M485 291 Q485 334 471 372 Q457 410 430.5 438 Q404 466 366 482.5 Q328 499 281 499 Q234 499 196 482.5 Q158 466 132 438 Q106 410 92 372 Q78 334 78 291 Q78 247 92 209 Q106 171 132 142 Q158 113 196 96.5 Q234 80 281 80 Q328 80 366 96.5 Q404 113 430.5 142 Q457 171 471 209 Q485 247 485 291 Z " />
<glyph glyph-name="yen" unicode="&#xa5;" horiz-adv-x="560" d="M101 354 L105 373 L289 373 L123 708 L149 708 L308 378 L590 708 L619 708 L327 373 L507 373 L503 354 L313 354 L290 223 L480 223 L477 204 L287 204 L251 0 L229 0 L265 204 L75 204 L78 223 L268 223 L291 354 L101 354 Z " />
<glyph glyph-name="brokenbar" unicode="&#xa6;" horiz-adv-x="222" d="M103 344 L103 675 L120 675 L120 344 L103 344 Z M103 -175 L103 156 L120 156 L120 -175 L103 -175 Z " />
<glyph glyph-name="section" unicode="&#xa7;" horiz-adv-x="560" d="M303 147 Q340 130 364.5 101.5 Q389 73 389 23 Q389 -21 373 -50.5 Q357 -80 331 -99 Q305 -118 271.5 -126 Q238 -134 202 -134 Q150 -134 108.5 -116 Q67 -98 38 -66 L57 -50 Q110 -114 204 -114 Q234 -114 263.5 -107 Q293 -100 316.5 -84.5 Q340 -69 354 -44.5 Q368 -20 368 16 Q368 43 360 63.5 Q352 84 337 99 Q322 114 301 125.5 Q280 137 255 147 Q213 163 185 178 Q157 193 140 209.5 Q123 226 116 246 Q109 266 109 294 Q109 331 123.5 357.5 Q138 384 161.5 402 Q185 420 213 431 Q241 442 268 447 Q248 457 233 468 Q218 479 207 492.5 Q196 506 190.5 524 Q185 542 185 566 Q185 601 199.5 630.5 Q214 660 239 682 Q264 704 296 716 Q328 728 364 728 Q411 728 448 713.5 Q485 699 510 667 L494 653 Q473 681 439 695 Q405 709 362 709 Q335 709 307 698.5 Q279 688 257 669.5 Q235 651 221 624.5 Q207 598 207 566 Q207 539 215 520.5 Q223 502 237.5 488.5 Q252 475 272 464.5 Q292 454 315 445 Q357 428 385.5 413 Q414 398 431.5 380.5 Q449 363 456.5 341 Q464 319 464 289 Q464 256 449 231 Q434 206 411 188 Q388 170 359 160 Q330 150 303 147 Z M280 159 Q308 161 337 170 Q366 179 389.5 195 Q413 211 428 234.5 Q443 258 443 289 Q443 316 434.5 335.5 Q426 355 411 370 Q396 385 375 396.5 Q354 408 329 419 L291 435 Q265 432 237 422 Q209 412 185.5 395 Q162 378 146.5 354 Q131 330 131 297 Q131 269 139.5 250 Q148 231 163 217.5 Q178 204 197.5 194.5 Q217 185 239 176 L280 159 Z " />
<glyph glyph-name="dieresis" unicode="&#xa8;" horiz-adv-x="240" d="M118 633 Q109 633 103 638.5 Q97 644 97 656 Q97 667 104 675.5 Q111 684 122 684 Q131 684 137 678.5 Q143 673 143 662 Q143 650 135.5 641.5 Q128 633 118 633 Z M268 633 Q259 633 253 638.5 Q247 644 247 656 Q247 667 254 675.5 Q261 684 272 684 Q281 684 287 678.5 Q293 673 293 662 Q293 650 285.5 641.5 Q278 633 268 633 Z " />
<glyph glyph-name="copyright" unicode="&#xa9;" horiz-adv-x="800" d="M20 353 Q20 432 50 500.5 Q80 569 131.5 620 Q183 671 252.5 700.5 Q322 730 401 730 Q479 730 548 700.5 Q617 671 668.5 620 Q720 569 750 500.5 Q780 432 780 353 Q780 275 750 206.5 Q720 138 668.5 87 Q617 36 548 7 Q479 -22 401 -22 Q322 -22 252.5 7 Q183 36 131.5 87 Q80 138 50 206.5 Q20 275 20 353 Z M42 353 Q42 279 70.5 215 Q99 151 147.5 103 Q196 55 261.5 27.5 Q327 0 401 0 Q474 0 539 27.5 Q604 55 653 103 Q702 151 730 215 Q758 279 758 353 Q758 427 730 491.5 Q702 556 653 604 Q604 652 539 680 Q474 708 401 708 Q327 708 261.5 680 Q196 652 147.5 604 Q99 556 70.5 491.5 Q42 427 42 353 Z M538 505 Q515 530 483 544 Q451 558 417 558 Q373 558 337 541.5 Q301 525 275.5 496.5 Q250 468 236.5 430.5 Q223 393 223 351 Q223 309 236.5 272 Q250 235 275.5 207 Q301 179 337 162.5 Q373 146 417 146 Q452 146 485 158.5 Q518 171 542 194 L557 180 Q529 152 492 139 Q455 126 417 126 Q370 126 330.5 142.5 Q291 159 262 189 Q233 219 217 260.5 Q201 302 201 351 Q201 400 217 441.5 Q233 483 262 513 Q291 543 330.5 560 Q370 577 417 577 Q457 577 493 561.5 Q529 546 555 520 L538 505 Z " />
<glyph glyph-name="ordfeminine" unicode="&#xaa;" horiz-adv-x="350" d="M327 495 Q325 478 323 460 Q321 442 321 431 L303 431 Q303 443 305 462 Q307 481 310 498 L308 498 Q293 463 264 443 Q235 423 197 423 Q183 423 167.5 427 Q152 431 139 440 Q126 449 117.5 463 Q109 477 109 498 Q109 530 126.5 549.5 Q144 569 173.5 580 Q203 591 242.5 595 Q282 599 327 599 Q329 609 330 619.5 Q331 630 331 635 Q331 669 308.5 685 Q286 701 253 701 Q205 701 166 670 L156 686 Q179 703 204 711.5 Q229 720 253 720 Q297 720 324 698.5 Q351 677 351 637 Q351 630 350 620.5 Q349 611 347 605 L327 495 Z M323 583 L307 583 Q271 583 239 579 Q207 575 183 565.5 Q159 556 144.5 540 Q130 524 130 499 Q130 481 137 470 Q144 459 154.5 452.5 Q165 446 178.5 443.5 Q192 441 204 441 Q230 441 250 451.5 Q270 462 284 478.5 Q298 495 306.5 515 Q315 535 318 555 L323 583 Z " />
<glyph glyph-name="guillemotleft" unicode="&#xab;" horiz-adv-x="481" d="M240 435 L254 424 L107 237 L189 52 L171 42 L83 239 L240 435 Z M407 435 L421 424 L274 237 L356 52 L338 42 L250 239 L407 435 Z " />
<glyph glyph-name="logicalnot" unicode="&#xac;" horiz-adv-x="666" d="M551 134 L551 380 L94 380 L94 399 L573 399 L573 134 L551 134 Z " />
<glyph glyph-name="uni00AD" unicode="&#xad;" horiz-adv-x="300" d="M63 245 L67 264 L247 264 L243 245 L63 245 Z " />
<glyph glyph-name="registered" unicode="&#xae;" horiz-adv-x="600" d="M414 371 L340 481 L285 481 L285 371 L264 371 L264 622 L348 622 Q386 622 408 604.5 Q430 587 430 552 Q430 519 409 502.5 Q388 486 363 484 L440 371 L414 371 Z M409 553 Q409 583 390 593 Q371 603 348 603 L285 603 L285 498 L333 498 Q368 498 388.5 509.5 Q409 521 409 553 Z M112 494 Q112 541 130 582.5 Q148 624 179 654.5 Q210 685 252 702.5 Q294 720 341 720 Q388 720 429.5 702.5 Q471 685 501.5 654.5 Q532 624 550 582.5 Q568 541 568 494 Q568 447 550 406 Q532 365 501.5 334.5 Q471 304 429.5 286.5 Q388 269 341 269 Q294 269 252 286.5 Q210 304 179 334.5 Q148 365 130 406 Q112 447 112 494 Z M133 494 Q133 452 149.5 414.5 Q166 377 194.5 349 Q223 321 260.5 304.5 Q298 288 341 288 Q383 288 420.5 304.5 Q458 321 486 349 Q514 377 530.5 414.5 Q547 452 547 494 Q547 536 530.5 573.5 Q514 611 486 639 Q458 667 420.5 683.5 Q383 700 341 700 Q298 700 260.5 683.5 Q223 667 194.5 639 Q166 611 149.5 573.5 Q133 536 133 494 Z " />
<glyph glyph-name="macron" unicode="&#xaf;" horiz-adv-x="240" d="M73 621 L77 641 L309 641 L305 621 L73 621 Z " />
<glyph glyph-name="degree" unicode="&#xb0;" horiz-adv-x="400" d="M404 571 Q404 541 392.5 514.5 Q381 488 361.5 468.5 Q342 449 315.5 437.5 Q289 426 259 426 Q229 426 202.5 437.5 Q176 449 156.5 468.5 Q137 488 125.5 514.5 Q114 541 114 571 Q114 601 125.5 627.5 Q137 654 156.5 673.5 Q176 693 202.5 704.5 Q229 716 259 716 Q289 716 315.5 704.5 Q342 693 361.5 673.5 Q381 654 392.5 627.5 Q404 601 404 571 Z M384 571 Q384 597 374 619.5 Q364 642 347 659 Q330 676 307.5 686 Q285 696 259 696 Q233 696 210.5 686 Q188 676 171 659 Q154 642 144 619.5 Q134 597 134 571 Q134 545 144 522.5 Q154 500 171 483 Q188 466 210.5 456 Q233 446 259 446 Q285 446 307.5 456 Q330 466 347 483 Q364 500 374 522.5 Q384 545 384 571 Z " />
<glyph glyph-name="plusminus" unicode="&#xb1;" horiz-adv-x="666" d="M342 342 L342 150 L320 150 L320 342 L94 342 L94 362 L319 362 L319 558 L341 558 L341 362 L573 362 L573 342 L342 342 Z M98 48 L98 68 L569 68 L569 48 L98 48 Z " />
<glyph glyph-name="twosuperior" unicode="&#xb2;" horiz-adv-x="350" d="M315 306 L312 288 L60 288 L63 308 L244 475 Q299 525 319.5 556.5 Q340 588 340 617 Q340 663 315 682 Q290 701 255 701 Q220 701 190.5 683.5 Q161 666 142 626 L123 632 Q143 679 179 699 Q215 719 255 719 Q309 719 334.5 694 Q360 669 360 621 Q360 601 354.5 584 Q349 567 336.5 549 Q324 531 303.5 509 Q283 487 252 459 L87 306 L315 306 Z " />
<glyph glyph-name="threesuperior" unicode="&#xb3;" horiz-adv-x="350" d="M314 402 Q314 372 303 349 Q292 326 274 310 Q256 294 232 286 Q208 278 182 278 Q137 278 105.5 297.5 Q74 317 60 348 L78 355 Q92 323 122.5 309.5 Q153 296 181 296 Q235 296 265.5 325.5 Q296 355 296 403 Q296 454 266.5 477.5 Q237 501 192 501 L175 501 L179 519 L195 519 Q249 519 283.5 547 Q318 575 318 621 Q318 666 293 684.5 Q268 703 237 703 Q211 703 188 691 Q165 679 149 660 L135 673 Q179 720 239 720 Q281 720 309 696.5 Q337 673 337 625 Q337 598 327.5 577.5 Q318 557 303 543 Q288 529 268 521.5 Q248 514 227 511 L227 509 Q266 501 290 475 Q314 449 314 402 Z " />
<glyph glyph-name="acute" unicode="&#xb4;" horiz-adv-x="240" d="M144 564 L124 564 L251 708 L279 708 L144 564 Z " />
<glyph glyph-name="mu" unicode="&#xb5;" horiz-adv-x="556" d="M163 460 L105 184 Q102 170 100 155 Q98 140 98 125 Q98 102 103.5 80.5 Q109 59 122 42 Q135 25 156.5 15 Q178 5 211 5 Q249 5 285.5 20.5 Q322 36 352.5 65 Q383 94 406.5 135.5 Q430 177 441 230 L490 460 L512 460 L439 116 Q437 105 434 89 Q431 73 428 56.5 Q425 40 422 25 Q419 10 418 0 L394 0 L419 121 L417 121 Q382 56 324.5 21 Q267 -14 207 -14 Q150 -14 120 10 Q90 34 81 72 L17 -228 L-5 -228 L141 460 L163 460 Z " />
<glyph glyph-name="paragraph" unicode="&#xb6;" horiz-adv-x="600" d="M385 -126 L529 691 L374 691 L230 -126 L208 -126 L290 341 Q246 341 211.5 352.5 Q177 364 153.5 384 Q130 404 117.5 431 Q105 458 105 489 Q105 537 123 577 Q141 617 174.5 646.5 Q208 676 255.5 692 Q303 708 363 708 L554 708 L407 -126 L385 -126 Z " />
<glyph glyph-name="periodcentered" unicode="&#xb7;" horiz-adv-x="240" d="M128 229 Q119 229 113 234.5 Q107 240 107 252 Q107 263 114 271.5 Q121 280 132 280 Q141 280 147 274.5 Q153 269 153 258 Q153 246 145.5 237.5 Q138 229 128 229 Z " />
<glyph glyph-name="cedilla" unicode="&#xb8;" horiz-adv-x="240" d="M34 -226 Q15 -226 -11.5 -221 Q-38 -216 -58 -206 L-51 -189 Q-34 -197 -9 -202 Q16 -207 34 -207 Q89 -207 111 -187 Q133 -167 133 -141 Q133 -115 113.5 -105 Q94 -95 72 -95 Q58 -95 34.5 -99 Q11 -103 -2 -110 L-11 -101 L76 0 L97 0 L23 -86 Q37 -81 48.5 -79.5 Q60 -78 74 -78 Q88 -78 102 -81 Q116 -84 127.5 -91 Q139 -98 146.5 -110 Q154 -122 154 -139 Q154 -185 120 -205.5 Q86 -226 34 -226 Z " />
<glyph glyph-name="onesuperior" unicode="&#xb9;" horiz-adv-x="350" d="M180 288 L250 686 L143 622 L133 638 L255 708 L276 708 L202 288 L180 288 Z " />
<glyph glyph-name="ordmasculine" unicode="&#xba;" horiz-adv-x="350" d="M356 594 Q356 616 349.5 635.5 Q343 655 329.5 670 Q316 685 295 694 Q274 703 246 703 Q214 703 188 690.5 Q162 678 144 656.5 Q126 635 116.5 607 Q107 579 107 549 Q107 527 113.5 507.5 Q120 488 133 473 Q146 458 166.5 449 Q187 440 216 440 Q248 440 274 452.5 Q300 465 318 486.5 Q336 508 346 536 Q356 564 356 594 Z M86 549 Q86 583 97.5 614 Q109 645 130 669 Q151 693 181 707 Q211 721 248 721 Q280 721 304.5 711 Q329 701 345 684 Q361 667 369 644 Q377 621 377 595 Q377 561 365.5 530 Q354 499 333 475 Q312 451 282 437 Q252 423 215 423 Q150 423 118 459.5 Q86 496 86 549 Z " />
<glyph glyph-name="guillemotright" unicode="&#xbb;" horiz-adv-x="481" d="M245 43 L231 54 L378 241 L296 426 L314 436 L402 239 L245 43 Z M78 43 L64 54 L211 241 L129 426 L147 436 L235 239 L78 43 Z " />
<glyph glyph-name="onequarter" unicode="&#xbc;" horiz-adv-x="800" d="M434 107 L438 129 L675 425 L706 425 L653 125 L720 125 L717 107 L650 107 L631 0 L611 0 L630 107 L434 107 Z M633 125 L682 402 L679 402 L457 125 L633 125 Z M127 -27 L113 -16 L686 736 L700 725 L127 -27 Z M180 288 L250 686 L143 622 L133 638 L255 708 L276 708 L202 288 L180 288 Z " />
<glyph glyph-name="onehalf" unicode="&#xbd;" horiz-adv-x="800" d="M127 -27 L113 -16 L686 736 L700 725 L127 -27 Z M180 288 L250 686 L143 622 L133 638 L255 708 L276 708 L202 288 L180 288 Z M695 18 L692 0 L440 0 L443 20 L624 187 Q679 237 699.5 268.5 Q720 300 720 329 Q720 375 695 394 Q670 413 635 413 Q600 413 570.5 395.5 Q541 378 522 338 L503 344 Q523 391 559 411 Q595 431 635 431 Q689 431 714.5 406 Q740 381 740 333 Q740 313 734.5 296 Q729 279 716.5 261 Q704 243 683.5 221 Q663 199 632 171 L467 18 L695 18 Z " />
<glyph glyph-name="threequarters" unicode="&#xbe;" horiz-adv-x="800" d="M434 107 L438 129 L675 425 L706 425 L653 125 L720 125 L717 107 L650 107 L631 0 L611 0 L630 107 L434 107 Z M633 125 L682 402 L679 402 L457 125 L633 125 Z M127 -27 L113 -16 L686 736 L700 725 L127 -27 Z M314 402 Q314 372 303 349 Q292 326 274 310 Q256 294 232 286 Q208 278 182 278 Q137 278 105.5 297.5 Q74 317 60 348 L78 355 Q92 323 122.5 309.5 Q153 296 181 296 Q235 296 265.5 325.5 Q296 355 296 403 Q296 454 266.5 477.5 Q237 501 192 501 L175 501 L179 519 L195 519 Q249 519 283.5 547 Q318 575 318 621 Q318 666 293 684.5 Q268 703 237 703 Q211 703 188 691 Q165 679 149 660 L135 673 Q179 720 239 720 Q281 720 309 696.5 Q337 673 337 625 Q337 598 327.5 577.5 Q318 557 303 543 Q288 529 268 521.5 Q248 514 227 511 L227 509 Q266 501 290 475 Q314 449 314 402 Z " />
<glyph glyph-name="questiondown" unicode="&#xbf;" horiz-adv-x="472" d="M235 286 L257 286 L247 233 Q242 200 222.5 165 Q203 130 154 96 L115 66 Q97 52 80 36.5 Q63 21 50 2 Q37 -17 29 -39 Q21 -61 21 -88 Q21 -121 31.5 -146 Q42 -171 60.5 -187 Q79 -203 104 -211 Q129 -219 157 -219 Q192 -219 221 -208.5 Q250 -198 272.5 -179 Q295 -160 311.5 -135 Q328 -110 339 -80 L359 -86 Q333 -159 281.5 -199.5 Q230 -240 156 -240 Q124 -240 96 -231 Q68 -222 46 -203 Q24 -184 11.5 -156 Q-1 -128 -1 -89 Q-1 -56 9.5 -29.5 Q20 -3 36.5 19 Q53 41 74.5 59 Q96 77 117 92 Q147 113 166.5 130 Q186 147 198 164 Q210 181 216.5 199.5 Q223 218 227 242 L235 286 Z M270 492 Q279 492 285 486.5 Q291 481 291 469 Q291 458 284 449.5 Q277 441 266 441 Q257 441 251 446.5 Q245 452 245 463 Q245 475 252.5 483.5 Q260 492 270 492 Z " />
<glyph glyph-name="Agrave" unicode="&#xc0;" horiz-adv-x="633" d="M555 0 L519 203 L119 203 L-10 0 L-37 0 L418 708 L451 708 L577 0 L555 0 Z M432 693 L131 222 L516 222 L432 693 Z M348 908 L454 764 L434 764 L320 908 L348 908 Z " />
<glyph glyph-name="Aacute" unicode="&#xc1;" horiz-adv-x="633" d="M555 0 L519 203 L119 203 L-10 0 L-37 0 L418 708 L451 708 L577 0 L555 0 Z M432 693 L131 222 L516 222 L432 693 Z M443 764 L423 764 L550 908 L578 908 L443 764 Z " />
<glyph glyph-name="Acircumflex" unicode="&#xc2;" horiz-adv-x="633" d="M555 0 L519 203 L119 203 L-10 0 L-37 0 L418 708 L451 708 L577 0 L555 0 Z M432 693 L131 222 L516 222 L432 693 Z M483 908 L556 764 L536 764 L468 896 L348 764 L324 764 L454 908 L483 908 Z " />
<glyph glyph-name="Atilde" unicode="&#xc3;" horiz-adv-x="633" d="M555 0 L519 203 L119 203 L-10 0 L-37 0 L418 708 L451 708 L577 0 L555 0 Z M432 693 L131 222 L516 222 L432 693 Z M456 838 Q480 821 490.5 817.5 Q501 814 512 814 Q545 814 561 862 L578 862 Q567 826 548 810.5 Q529 795 509 795 Q493 795 481 800 Q469 805 449 819 Q426 835 415.5 839 Q405 843 394 843 Q362 843 345 792 L328 792 Q339 828 358 845 Q377 862 397 862 Q413 862 424.5 857 Q436 852 456 838 Z " />
<glyph glyph-name="Adieresis" unicode="&#xc4;" horiz-adv-x="633" d="M555 0 L519 203 L119 203 L-10 0 L-37 0 L418 708 L451 708 L577 0 L555 0 Z M432 693 L131 222 L516 222 L432 693 Z M382 833 Q373 833 367 838.5 Q361 844 361 856 Q361 867 368 875.5 Q375 884 386 884 Q395 884 401 878.5 Q407 873 407 862 Q407 850 399.5 841.5 Q392 833 382 833 Z M532 833 Q523 833 517 838.5 Q511 844 511 856 Q511 867 518 875.5 Q525 884 536 884 Q545 884 551 878.5 Q557 873 557 862 Q557 850 549.5 841.5 Q542 833 532 833 Z " />
<glyph glyph-name="Aring" unicode="&#xc5;" horiz-adv-x="633" d="M555 0 L519 203 L119 203 L-10 0 L-37 0 L418 708 L451 708 L577 0 L555 0 Z M432 693 L131 222 L516 222 L432 693 Z M532 864 Q532 890 516.5 909.5 Q501 929 467 929 Q428 929 405.5 901 Q383 873 383 836 Q383 810 398 791 Q413 772 448 772 Q486 772 509 799.5 Q532 827 532 864 Z M365 835 Q365 857 372 877 Q379 897 392.5 912 Q406 927 425 936 Q444 945 468 945 Q510 945 530 921.5 Q550 898 550 865 Q550 843 543 823 Q536 803 522.5 788 Q509 773 490 764 Q471 755 447 755 Q405 755 385 778 Q365 801 365 835 Z " />
<glyph glyph-name="AE" unicode="&#xc6;" horiz-adv-x="935" d="M939 688 L594 688 L539 377 L870 377 L867 357 L536 357 L477 20 L852 20 L848 0 L451 0 L487 206 L164 206 L-7 0 L-34 0 L551 708 L943 708 L939 688 Z M572 688 L560 688 L181 226 L491 226 L572 688 Z " />
<glyph glyph-name="Ccedilla" unicode="&#xc7;" horiz-adv-x="724" d="M366 -226 Q347 -226 320.5 -221 Q294 -216 274 -206 L281 -189 Q298 -197 323 -202 Q348 -207 366 -207 Q421 -207 443 -187 Q465 -167 465 -141 Q465 -115 445.5 -105 Q426 -95 404 -95 Q390 -95 366.5 -99 Q343 -103 330 -110 L321 -101 L392 -20 Q315 -18 258.5 6 Q202 30 164.5 71 Q127 112 108.5 167.5 Q90 223 90 288 Q90 374 121 453.5 Q152 533 207.5 594 Q263 655 339 691.5 Q415 728 505 728 Q538 728 570.5 722.5 Q603 717 632 705.5 Q661 694 685.5 677 Q710 660 728 637 L712 621 Q695 643 671.5 659.5 Q648 676 620.5 687 Q593 698 563 703 Q533 708 504 708 Q420 708 348 673 Q276 638 223.5 580 Q171 522 141.5 447 Q112 372 112 292 Q112 231 129 178 Q146 125 182 85.5 Q218 46 273 23 Q328 0 404 0 Q466 0 525.5 22 Q585 44 635 89 L645 72 Q594 27 535 4.5 Q476 -18 413 -20 L355 -86 Q369 -81 380.5 -79.5 Q392 -78 406 -78 Q420 -78 434 -81 Q448 -84 459.5 -91 Q471 -98 478.5 -110 Q486 -122 486 -139 Q486 -185 452 -205.5 Q418 -226 366 -226 Z " />
<glyph glyph-name="Egrave" unicode="&#xc8;" horiz-adv-x="576" d="M66 0 L191 708 L584 708 L580 688 L208 688 L153 377 L511 377 L508 357 L150 357 L91 20 L493 20 L489 0 L66 0 Z M320 908 L426 764 L406 764 L292 908 L320 908 Z " />
<glyph glyph-name="Eacute" unicode="&#xc9;" horiz-adv-x="576" d="M66 0 L191 708 L584 708 L580 688 L208 688 L153 377 L511 377 L508 357 L150 357 L91 20 L493 20 L489 0 L66 0 Z M394 764 L374 764 L501 908 L529 908 L394 764 Z " />
<glyph glyph-name="Ecircumflex" unicode="&#xca;" horiz-adv-x="576" d="M66 0 L191 708 L584 708 L580 688 L208 688 L153 377 L511 377 L508 357 L150 357 L91 20 L493 20 L489 0 L66 0 Z M439 908 L512 764 L492 764 L424 896 L304 764 L280 764 L410 908 L439 908 Z " />
<glyph glyph-name="Edieresis" unicode="&#xcb;" horiz-adv-x="576" d="M66 0 L191 708 L584 708 L580 688 L208 688 L153 377 L511 377 L508 357 L150 357 L91 20 L493 20 L489 0 L66 0 Z M333 833 Q324 833 318 838.5 Q312 844 312 856 Q312 867 319 875.5 Q326 884 337 884 Q346 884 352 878.5 Q358 873 358 862 Q358 850 350.5 841.5 Q343 833 333 833 Z M483 833 Q474 833 468 838.5 Q462 844 462 856 Q462 867 469 875.5 Q476 884 487 884 Q496 884 502 878.5 Q508 873 508 862 Q508 850 500.5 841.5 Q493 833 483 833 Z " />
<glyph glyph-name="Igrave" unicode="&#xcc;" horiz-adv-x="234" d="M66 0 L191 708 L213 708 L88 0 L66 0 Z M116 908 L222 764 L202 764 L88 908 L116 908 Z " />
<glyph glyph-name="Iacute" unicode="&#xcd;" horiz-adv-x="234" d="M66 0 L191 708 L213 708 L88 0 L66 0 Z M218 764 L198 764 L325 908 L353 908 L218 764 Z " />
<glyph glyph-name="Icircumflex" unicode="&#xce;" horiz-adv-x="234" d="M66 0 L191 708 L213 708 L88 0 L66 0 Z M250 908 L323 764 L303 764 L235 896 L115 764 L91 764 L221 908 L250 908 Z " />
<glyph glyph-name="Idieresis" unicode="&#xcf;" horiz-adv-x="234" d="M66 0 L191 708 L213 708 L88 0 L66 0 Z M146 833 Q137 833 131 838.5 Q125 844 125 856 Q125 867 132 875.5 Q139 884 150 884 Q159 884 165 878.5 Q171 873 171 862 Q171 850 163.5 841.5 Q156 833 146 833 Z M296 833 Q287 833 281 838.5 Q275 844 275 856 Q275 867 282 875.5 Q289 884 300 884 Q309 884 315 878.5 Q321 873 321 862 Q321 850 313.5 841.5 Q306 833 296 833 Z " />
<glyph glyph-name="Eth" unicode="&#xd0;" horiz-adv-x="775" d="M51 358 L55 378 L133 378 L191 708 L377 708 Q449 708 511 689 Q573 670 618.5 632.5 Q664 595 690 540.5 Q716 486 716 416 Q716 306 679 227.5 Q642 149 579.5 98.5 Q517 48 433.5 24 Q350 0 257 0 L66 0 L129 358 L51 358 Z M422 378 L418 358 L152 358 L93 20 L256 20 Q345 20 424.5 42 Q504 64 564 111.5 Q624 159 659 233.5 Q694 308 694 413 Q694 480 669.5 531.5 Q645 583 602.5 617.5 Q560 652 501 670 Q442 688 373 688 L210 688 L156 378 L422 378 Z " />
<glyph glyph-name="Ntilde" unicode="&#xd1;" horiz-adv-x="749" d="M571 0 L211 683 L208 683 L88 0 L66 0 L191 708 L222 708 L583 26 L586 26 L706 708 L728 708 L603 0 L571 0 Z M480 838 Q504 821 514.5 817.5 Q525 814 536 814 Q569 814 585 862 L602 862 Q591 826 572 810.5 Q553 795 533 795 Q517 795 505 800 Q493 805 473 819 Q450 835 439.5 839 Q429 843 418 843 Q386 843 369 792 L352 792 Q363 828 382 845 Q401 862 421 862 Q437 862 448.5 857 Q460 852 480 838 Z " />
<glyph glyph-name="Ograve" unicode="&#xd2;" horiz-adv-x="872" d="M791 411 Q791 472 773.5 526.5 Q756 581 719.5 621 Q683 661 627 684.5 Q571 708 495 708 Q409 708 338 673.5 Q267 639 217 581.5 Q167 524 139.5 449.5 Q112 375 112 295 Q112 233 130 179.5 Q148 126 184.5 86 Q221 46 277 23 Q333 0 409 0 Q495 0 565.5 34 Q636 68 686 125 Q736 182 763.5 256.5 Q791 331 791 411 Z M90 295 Q90 380 118.5 458.5 Q147 537 200 597 Q253 657 328 692.5 Q403 728 495 728 Q575 728 635 704 Q695 680 734.5 637 Q774 594 793.5 536 Q813 478 813 411 Q813 326 784.5 248 Q756 170 703.5 110.5 Q651 51 576 15.5 Q501 -20 409 -20 Q329 -20 269 4 Q209 28 169 70 Q129 112 109.5 169.5 Q90 227 90 295 Z M442 908 L548 764 L528 764 L414 908 L442 908 Z " />
<glyph glyph-name="Oacute" unicode="&#xd3;" horiz-adv-x="872" d="M791 411 Q791 472 773.5 526.5 Q756 581 719.5 621 Q683 661 627 684.5 Q571 708 495 708 Q409 708 338 673.5 Q267 639 217 581.5 Q167 524 139.5 449.5 Q112 375 112 295 Q112 233 130 179.5 Q148 126 184.5 86 Q221 46 277 23 Q333 0 409 0 Q495 0 565.5 34 Q636 68 686 125 Q736 182 763.5 256.5 Q791 331 791 411 Z M90 295 Q90 380 118.5 458.5 Q147 537 200 597 Q253 657 328 692.5 Q403 728 495 728 Q575 728 635 704 Q695 680 734.5 637 Q774 594 793.5 536 Q813 478 813 411 Q813 326 784.5 248 Q756 170 703.5 110.5 Q651 51 576 15.5 Q501 -20 409 -20 Q329 -20 269 4 Q209 28 169 70 Q129 112 109.5 169.5 Q90 227 90 295 Z M506 764 L486 764 L613 908 L641 908 L506 764 Z " />
<glyph glyph-name="Ocircumflex" unicode="&#xd4;" horiz-adv-x="872" d="M791 411 Q791 472 773.5 526.5 Q756 581 719.5 621 Q683 661 627 684.5 Q571 708 495 708 Q409 708 338 673.5 Q267 639 217 581.5 Q167 524 139.5 449.5 Q112 375 112 295 Q112 233 130 179.5 Q148 126 184.5 86 Q221 46 277 23 Q333 0 409 0 Q495 0 565.5 34 Q636 68 686 125 Q736 182 763.5 256.5 Q791 331 791 411 Z M90 295 Q90 380 118.5 458.5 Q147 537 200 597 Q253 657 328 692.5 Q403 728 495 728 Q575 728 635 704 Q695 680 734.5 637 Q774 594 793.5 536 Q813 478 813 411 Q813 326 784.5 248 Q756 170 703.5 110.5 Q651 51 576 15.5 Q501 -20 409 -20 Q329 -20 269 4 Q209 28 169 70 Q129 112 109.5 169.5 Q90 227 90 295 Z M568 908 L641 764 L621 764 L553 896 L433 764 L409 764 L539 908 L568 908 Z " />
<glyph glyph-name="Otilde" unicode="&#xd5;" horiz-adv-x="872" d="M791 411 Q791 472 773.5 526.5 Q756 581 719.5 621 Q683 661 627 684.5 Q571 708 495 708 Q409 708 338 673.5 Q267 639 217 581.5 Q167 524 139.5 449.5 Q112 375 112 295 Q112 233 130 179.5 Q148 126 184.5 86 Q221 46 277 23 Q333 0 409 0 Q495 0 565.5 34 Q636 68 686 125 Q736 182 763.5 256.5 Q791 331 791 411 Z M90 295 Q90 380 118.5 458.5 Q147 537 200 597 Q253 657 328 692.5 Q403 728 495 728 Q575 728 635 704 Q695 680 734.5 637 Q774 594 793.5 536 Q813 478 813 411 Q813 326 784.5 248 Q756 170 703.5 110.5 Q651 51 576 15.5 Q501 -20 409 -20 Q329 -20 269 4 Q209 28 169 70 Q129 112 109.5 169.5 Q90 227 90 295 Z M537 838 Q561 821 571.5 817.5 Q582 814 593 814 Q626 814 642 862 L659 862 Q648 826 629 810.5 Q610 795 590 795 Q574 795 562 800 Q550 805 530 819 Q507 835 496.5 839 Q486 843 475 843 Q443 843 426 792 L409 792 Q420 828 439 845 Q458 862 478 862 Q494 862 505.5 857 Q517 852 537 838 Z " />
<glyph glyph-name="Odieresis" unicode="&#xd6;" horiz-adv-x="872" d="M791 411 Q791 472 773.5 526.5 Q756 581 719.5 621 Q683 661 627 684.5 Q571 708 495 708 Q409 708 338 673.5 Q267 639 217 581.5 Q167 524 139.5 449.5 Q112 375 112 295 Q112 233 130 179.5 Q148 126 184.5 86 Q221 46 277 23 Q333 0 409 0 Q495 0 565.5 34 Q636 68 686 125 Q736 182 763.5 256.5 Q791 331 791 411 Z M90 295 Q90 380 118.5 458.5 Q147 537 200 597 Q253 657 328 692.5 Q403 728 495 728 Q575 728 635 704 Q695 680 734.5 637 Q774 594 793.5 536 Q813 478 813 411 Q813 326 784.5 248 Q756 170 703.5 110.5 Q651 51 576 15.5 Q501 -20 409 -20 Q329 -20 269 4 Q209 28 169 70 Q129 112 109.5 169.5 Q90 227 90 295 Z M461 833 Q452 833 446 838.5 Q440 844 440 856 Q440 867 447 875.5 Q454 884 465 884 Q474 884 480 878.5 Q486 873 486 862 Q486 850 478.5 841.5 Q471 833 461 833 Z M611 833 Q602 833 596 838.5 Q590 844 590 856 Q590 867 597 875.5 Q604 884 615 884 Q624 884 630 878.5 Q636 873 636 862 Q636 850 628.5 841.5 Q621 833 611 833 Z " />
<glyph glyph-name="multiply" unicode="&#xd7;" horiz-adv-x="666" d="M527 128 L513 115 L334 294 L155 115 L141 128 L321 308 L141 488 L154 501 L334 321 L514 501 L527 488 L347 308 L527 128 Z " />
<glyph glyph-name="Oslash" unicode="&#xd8;" horiz-adv-x="872" d="M182 89 Q218 47 274 23.5 Q330 0 409 0 Q495 0 565.5 34 Q636 68 686 125 Q736 182 763.5 256.5 Q791 331 791 411 Q791 471 774 524 Q757 577 722 618 L182 89 Z M710 630 Q674 667 620.5 687.5 Q567 708 495 708 Q409 708 338 673.5 Q267 639 217 581.5 Q167 524 139.5 449.5 Q112 375 112 295 Q112 240 126.5 191 Q141 142 170 103 L710 630 Z M738 633 Q776 591 794.5 534.5 Q813 478 813 411 Q813 326 784.5 248 Q756 170 703.5 110.5 Q651 51 576 15.5 Q501 -20 409 -20 Q328 -20 267 4.5 Q206 29 166 74 L79 -11 L67 3 L154 88 Q122 129 106 181 Q90 233 90 295 Q90 380 118.5 458.5 Q147 537 200 597 Q253 657 328 692.5 Q403 728 495 728 Q570 728 627.5 706.5 Q685 685 726 646 L805 723 L817 710 L738 633 Z " />
<glyph glyph-name="Ugrave" unicode="&#xd9;" horiz-adv-x="716" d="M629 268 Q618 208 599 155.5 Q580 103 546.5 64 Q513 25 461.5 2.5 Q410 -20 335 -20 Q216 -20 156 37.5 Q96 95 96 197 Q96 215 98.5 236 Q101 257 105 277 L181 708 L203 708 L127 276 Q123 253 120.5 233 Q118 213 118 197 Q118 155 130.5 119 Q143 83 169.5 56.5 Q196 30 237 15 Q278 0 335 0 Q414 0 463.5 26 Q513 52 542.5 92.5 Q572 133 586 180.5 Q600 228 608 272 L685 708 L707 708 L629 268 Z M360 908 L466 764 L446 764 L332 908 L360 908 Z " />
<glyph glyph-name="Uacute" unicode="&#xda;" horiz-adv-x="716" d="M629 268 Q618 208 599 155.5 Q580 103 546.5 64 Q513 25 461.5 2.5 Q410 -20 335 -20 Q216 -20 156 37.5 Q96 95 96 197 Q96 215 98.5 236 Q101 257 105 277 L181 708 L203 708 L127 276 Q123 253 120.5 233 Q118 213 118 197 Q118 155 130.5 119 Q143 83 169.5 56.5 Q196 30 237 15 Q278 0 335 0 Q414 0 463.5 26 Q513 52 542.5 92.5 Q572 133 586 180.5 Q600 228 608 272 L685 708 L707 708 L629 268 Z M433 764 L413 764 L540 908 L568 908 L433 764 Z " />
<glyph glyph-name="Ucircumflex" unicode="&#xdb;" horiz-adv-x="716" d="M629 268 Q618 208 599 155.5 Q580 103 546.5 64 Q513 25 461.5 2.5 Q410 -20 335 -20 Q216 -20 156 37.5 Q96 95 96 197 Q96 215 98.5 236 Q101 257 105 277 L181 708 L203 708 L127 276 Q123 253 120.5 233 Q118 213 118 197 Q118 155 130.5 119 Q143 83 169.5 56.5 Q196 30 237 15 Q278 0 335 0 Q414 0 463.5 26 Q513 52 542.5 92.5 Q572 133 586 180.5 Q600 228 608 272 L685 708 L707 708 L629 268 Z M493 908 L566 764 L546 764 L478 896 L358 764 L334 764 L464 908 L493 908 Z " />
<glyph glyph-name="Udieresis" unicode="&#xdc;" horiz-adv-x="716" d="M629 268 Q618 208 599 155.5 Q580 103 546.5 64 Q513 25 461.5 2.5 Q410 -20 335 -20 Q216 -20 156 37.5 Q96 95 96 197 Q96 215 98.5 236 Q101 257 105 277 L181 708 L203 708 L127 276 Q123 253 120.5 233 Q118 213 118 197 Q118 155 130.5 119 Q143 83 169.5 56.5 Q196 30 237 15 Q278 0 335 0 Q414 0 463.5 26 Q513 52 542.5 92.5 Q572 133 586 180.5 Q600 228 608 272 L685 708 L707 708 L629 268 Z M388 833 Q379 833 373 838.5 Q367 844 367 856 Q367 867 374 875.5 Q381 884 392 884 Q401 884 407 878.5 Q413 873 413 862 Q413 850 405.5 841.5 Q398 833 388 833 Z M538 833 Q529 833 523 838.5 Q517 844 517 856 Q517 867 524 875.5 Q531 884 542 884 Q551 884 557 878.5 Q563 873 563 862 Q563 850 555.5 841.5 Q548 833 538 833 Z " />
<glyph glyph-name="Yacute" unicode="&#xdd;" horiz-adv-x="513" d="M274 310 L219 0 L197 0 L252 310 L90 708 L114 708 L266 332 L571 708 L598 708 L274 310 Z M344 764 L324 764 L451 908 L479 908 L344 764 Z " />
<glyph glyph-name="Thorn" unicode="&#xde;" horiz-adv-x="560" d="M122 190 L88 0 L66 0 L191 708 L213 708 L185 551 L343 551 Q378 551 412 543 Q446 535 473 517 Q500 499 517 469 Q534 439 534 394 Q534 354 520 317 Q506 280 476.5 252 Q447 224 401 207 Q355 190 292 190 L122 190 Z M512 395 Q512 432 497.5 458.5 Q483 485 459.5 501 Q436 517 406.5 524.5 Q377 532 348 532 L181 532 L125 210 L297 210 Q402 210 457 261 Q512 312 512 395 Z " />
<glyph glyph-name="germandbls" unicode="&#xdf;" horiz-adv-x="577" d="M518 236 Q518 189 501.5 145 Q485 101 452 66.5 Q419 32 370 11 Q321 -10 257 -10 Q246 -10 233.5 -9.5 Q221 -9 210 -7 L213 14 Q228 12 239.5 11 Q251 10 260 10 Q314 10 357.5 28 Q401 46 432 76.5 Q463 107 479.5 147.5 Q496 188 496 233 Q496 269 485.5 302 Q475 335 453.5 360.5 Q432 386 399.5 401 Q367 416 323 416 L307 416 L311 437 L327 437 Q361 437 395.5 447 Q430 457 458 477.5 Q486 498 503 530 Q520 562 520 606 Q520 642 508 669 Q496 696 476 713.5 Q456 731 429 739.5 Q402 748 372 748 Q322 748 288 729 Q254 710 231.5 679.5 Q209 649 197 611 Q185 573 178 535 L84 0 L62 0 L157 538 Q165 583 179.5 624.5 Q194 666 219 698 Q244 730 281 749 Q318 768 371 768 Q405 768 436 758.5 Q467 749 490.5 729.5 Q514 710 528 680 Q542 650 542 610 Q542 566 527 534.5 Q512 503 488.5 481 Q465 459 435.5 446 Q406 433 377 428 L376 426 Q403 421 428.5 407 Q454 393 474 369.5 Q494 346 506 313 Q518 280 518 236 Z " />
<glyph glyph-name="agrave" unicode="&#xe0;" horiz-adv-x="512" d="M396 104 Q391 78 388.5 48.5 Q386 19 386 0 L365 0 Q365 20 369 51.5 Q373 83 378 110 L375 110 Q349 51 301.5 18.5 Q254 -14 192 -14 Q169 -14 143.5 -8 Q118 -2 96 11.5 Q74 25 59.5 48 Q45 71 45 105 Q45 157 73.5 189.5 Q102 222 151 240 Q200 258 265 264 Q330 270 404 270 Q409 290 411 308 Q413 326 413 334 Q413 396 378 425.5 Q343 455 283 455 Q242 455 206.5 440 Q171 425 139 400 L127 417 Q163 445 204 459.5 Q245 474 284 474 Q356 474 395.5 438.5 Q435 403 435 337 Q435 326 433 311 Q431 296 429 286 L396 104 Z M401 251 L373 251 Q307 251 251 244.5 Q195 238 154 221.5 Q113 205 90 177.5 Q67 150 67 108 Q67 78 79.5 58 Q92 38 110.5 26.5 Q129 15 151.5 10 Q174 5 195 5 Q240 5 274.5 24 Q309 43 333.5 72.5 Q358 102 372.5 137.5 Q387 173 393 207 L401 251 Z M223 708 L329 564 L309 564 L195 708 L223 708 Z " />
<glyph glyph-name="aacute" unicode="&#xe1;" horiz-adv-x="512" d="M396 104 Q391 78 388.5 48.5 Q386 19 386 0 L365 0 Q365 20 369 51.5 Q373 83 378 110 L375 110 Q349 51 301.5 18.5 Q254 -14 192 -14 Q169 -14 143.5 -8 Q118 -2 96 11.5 Q74 25 59.5 48 Q45 71 45 105 Q45 157 73.5 189.5 Q102 222 151 240 Q200 258 265 264 Q330 270 404 270 Q409 290 411 308 Q413 326 413 334 Q413 396 378 425.5 Q343 455 283 455 Q242 455 206.5 440 Q171 425 139 400 L127 417 Q163 445 204 459.5 Q245 474 284 474 Q356 474 395.5 438.5 Q435 403 435 337 Q435 326 433 311 Q431 296 429 286 L396 104 Z M401 251 L373 251 Q307 251 251 244.5 Q195 238 154 221.5 Q113 205 90 177.5 Q67 150 67 108 Q67 78 79.5 58 Q92 38 110.5 26.5 Q129 15 151.5 10 Q174 5 195 5 Q240 5 274.5 24 Q309 43 333.5 72.5 Q358 102 372.5 137.5 Q387 173 393 207 L401 251 Z M300 564 L280 564 L407 708 L435 708 L300 564 Z " />
<glyph glyph-name="acircumflex" unicode="&#xe2;" horiz-adv-x="512" d="M396 104 Q391 78 388.5 48.5 Q386 19 386 0 L365 0 Q365 20 369 51.5 Q373 83 378 110 L375 110 Q349 51 301.5 18.5 Q254 -14 192 -14 Q169 -14 143.5 -8 Q118 -2 96 11.5 Q74 25 59.5 48 Q45 71 45 105 Q45 157 73.5 189.5 Q102 222 151 240 Q200 258 265 264 Q330 270 404 270 Q409 290 411 308 Q413 326 413 334 Q413 396 378 425.5 Q343 455 283 455 Q242 455 206.5 440 Q171 425 139 400 L127 417 Q163 445 204 459.5 Q245 474 284 474 Q356 474 395.5 438.5 Q435 403 435 337 Q435 326 433 311 Q431 296 429 286 L396 104 Z M401 251 L373 251 Q307 251 251 244.5 Q195 238 154 221.5 Q113 205 90 177.5 Q67 150 67 108 Q67 78 79.5 58 Q92 38 110.5 26.5 Q129 15 151.5 10 Q174 5 195 5 Q240 5 274.5 24 Q309 43 333.5 72.5 Q358 102 372.5 137.5 Q387 173 393 207 L401 251 Z M357 708 L430 564 L410 564 L342 696 L222 564 L198 564 L328 708 L357 708 Z " />
<glyph glyph-name="atilde" unicode="&#xe3;" horiz-adv-x="512" d="M396 104 Q391 78 388.5 48.5 Q386 19 386 0 L365 0 Q365 20 369 51.5 Q373 83 378 110 L375 110 Q349 51 301.5 18.5 Q254 -14 192 -14 Q169 -14 143.5 -8 Q118 -2 96 11.5 Q74 25 59.5 48 Q45 71 45 105 Q45 157 73.5 189.5 Q102 222 151 240 Q200 258 265 264 Q330 270 404 270 Q409 290 411 308 Q413 326 413 334 Q413 396 378 425.5 Q343 455 283 455 Q242 455 206.5 440 Q171 425 139 400 L127 417 Q163 445 204 459.5 Q245 474 284 474 Q356 474 395.5 438.5 Q435 403 435 337 Q435 326 433 311 Q431 296 429 286 L396 104 Z M401 251 L373 251 Q307 251 251 244.5 Q195 238 154 221.5 Q113 205 90 177.5 Q67 150 67 108 Q67 78 79.5 58 Q92 38 110.5 26.5 Q129 15 151.5 10 Q174 5 195 5 Q240 5 274.5 24 Q309 43 333.5 72.5 Q358 102 372.5 137.5 Q387 173 393 207 L401 251 Z M321 638 Q345 621 355.5 617.5 Q366 614 377 614 Q410 614 426 662 L443 662 Q432 626 413 610.5 Q394 595 374 595 Q358 595 346 600 Q334 605 314 619 Q291 635 280.5 639 Q270 643 259 643 Q227 643 210 592 L193 592 Q204 628 223 645 Q242 662 262 662 Q278 662 289.5 657 Q301 652 321 638 Z " />
<glyph glyph-name="adieresis" unicode="&#xe4;" horiz-adv-x="512" d="M396 104 Q391 78 388.5 48.5 Q386 19 386 0 L365 0 Q365 20 369 51.5 Q373 83 378 110 L375 110 Q349 51 301.5 18.5 Q254 -14 192 -14 Q169 -14 143.5 -8 Q118 -2 96 11.5 Q74 25 59.5 48 Q45 71 45 105 Q45 157 73.5 189.5 Q102 222 151 240 Q200 258 265 264 Q330 270 404 270 Q409 290 411 308 Q413 326 413 334 Q413 396 378 425.5 Q343 455 283 455 Q242 455 206.5 440 Q171 425 139 400 L127 417 Q163 445 204 459.5 Q245 474 284 474 Q356 474 395.5 438.5 Q435 403 435 337 Q435 326 433 311 Q431 296 429 286 L396 104 Z M401 251 L373 251 Q307 251 251 244.5 Q195 238 154 221.5 Q113 205 90 177.5 Q67 150 67 108 Q67 78 79.5 58 Q92 38 110.5 26.5 Q129 15 151.5 10 Q174 5 195 5 Q240 5 274.5 24 Q309 43 333.5 72.5 Q358 102 372.5 137.5 Q387 173 393 207 L401 251 Z M246 633 Q237 633 231 638.5 Q225 644 225 656 Q225 667 232 675.5 Q239 684 250 684 Q259 684 265 678.5 Q271 673 271 662 Q271 650 263.5 641.5 Q256 633 246 633 Z M396 633 Q387 633 381 638.5 Q375 644 375 656 Q375 667 382 675.5 Q389 684 400 684 Q409 684 415 678.5 Q421 673 421 662 Q421 650 413.5 641.5 Q406 633 396 633 Z " />
<glyph glyph-name="aring" unicode="&#xe5;" horiz-adv-x="512" d="M396 104 Q391 78 388.5 48.5 Q386 19 386 0 L365 0 Q365 20 369 51.5 Q373 83 378 110 L375 110 Q349 51 301.5 18.5 Q254 -14 192 -14 Q169 -14 143.5 -8 Q118 -2 96 11.5 Q74 25 59.5 48 Q45 71 45 105 Q45 157 73.5 189.5 Q102 222 151 240 Q200 258 265 264 Q330 270 404 270 Q409 290 411 308 Q413 326 413 334 Q413 396 378 425.5 Q343 455 283 455 Q242 455 206.5 440 Q171 425 139 400 L127 417 Q163 445 204 459.5 Q245 474 284 474 Q356 474 395.5 438.5 Q435 403 435 337 Q435 326 433 311 Q431 296 429 286 L396 104 Z M401 251 L373 251 Q307 251 251 244.5 Q195 238 154 221.5 Q113 205 90 177.5 Q67 150 67 108 Q67 78 79.5 58 Q92 38 110.5 26.5 Q129 15 151.5 10 Q174 5 195 5 Q240 5 274.5 24 Q309 43 333.5 72.5 Q358 102 372.5 137.5 Q387 173 393 207 L401 251 Z M398 664 Q398 690 382.5 709.5 Q367 729 333 729 Q294 729 271.5 701 Q249 673 249 636 Q249 610 264 591 Q279 572 314 572 Q352 572 375 599.5 Q398 627 398 664 Z M231 635 Q231 657 238 677 Q245 697 258.5 712 Q272 727 291 736 Q310 745 334 745 Q376 745 396 721.5 Q416 698 416 665 Q416 643 409 623 Q402 603 388.5 588 Q375 573 356 564 Q337 555 313 555 Q271 555 251 578 Q231 601 231 635 Z " />
<glyph glyph-name="ae" unicode="&#xe6;" horiz-adv-x="877" d="M594 5 Q651 5 694.5 29 Q738 53 770 91 L782 77 Q753 40 705 13 Q657 -14 594 -14 Q547 -14 512 -0.5 Q477 13 452.5 37 Q428 61 414.5 93.5 Q401 126 398 164 Q390 133 373 101 Q356 69 330.5 43.5 Q305 18 270.5 2 Q236 -14 192 -14 Q169 -14 143.5 -8.5 Q118 -3 96 10 Q74 23 59.5 45.5 Q45 68 45 101 Q45 150 73 180 Q101 210 149.5 226.5 Q198 243 262.5 249 Q327 255 401 255 Q406 276 409.5 298 Q413 320 413 333 Q413 395 378 425 Q343 455 283 455 Q242 455 206.5 440 Q171 425 139 400 L127 417 Q163 445 203.5 459.5 Q244 474 283 474 Q353 474 392.5 439 Q432 404 434 341 Q464 398 518 436 Q572 474 645 474 Q692 474 726 459.5 Q760 445 782.5 420.5 Q805 396 815.5 363 Q826 330 826 293 Q826 283 824.5 267 Q823 251 819 235 L419 235 Q416 215 416 200 Q416 113 460.5 59 Q505 5 594 5 Z M398 235 L367 235 Q302 235 247 228.5 Q192 222 152 207 Q112 192 89.5 166.5 Q67 141 67 104 Q67 75 79.5 56 Q92 37 110.5 25.5 Q129 14 151.5 9.5 Q174 5 195 5 Q240 5 274 24 Q308 43 332 72.5 Q356 102 370.5 137.5 Q385 173 392 207 L398 235 Z M802 254 Q805 276 805 295 Q805 367 762.5 411 Q720 455 645 455 Q594 455 555 435.5 Q516 416 488 386.5 Q460 357 444 321.5 Q428 286 422 254 L802 254 Z " />
<glyph glyph-name="ccedilla" unicode="&#xe7;" horiz-adv-x="468" d="M216 -226 Q197 -226 170.5 -221 Q144 -216 124 -206 L131 -189 Q148 -197 173 -202 Q198 -207 216 -207 Q271 -207 293 -187 Q315 -167 315 -141 Q315 -115 295.5 -105 Q276 -95 254 -95 Q240 -95 216.5 -99 Q193 -103 180 -110 L171 -101 L243 -17 Q195 -14 160 2.5 Q125 19 102.5 46 Q80 73 69 108 Q58 143 58 184 Q58 241 78 293 Q98 345 134 385.5 Q170 426 219.5 450 Q269 474 328 474 Q372 474 413.5 459 Q455 444 478 414 L464 399 Q442 428 405 441.5 Q368 455 330 455 Q276 455 230 432.5 Q184 410 150.5 372.5 Q117 335 98.5 287 Q80 239 80 187 Q80 148 91 114.5 Q102 81 124.5 56 Q147 31 181 16.5 Q215 2 262 2 Q304 2 344.5 17.5 Q385 33 414 61 L425 46 Q393 15 351 -1 Q309 -17 263 -18 L205 -86 Q219 -81 230.5 -79.5 Q242 -78 256 -78 Q270 -78 284 -81 Q298 -84 309.5 -91 Q321 -98 328.5 -110 Q336 -122 336 -139 Q336 -185 302 -205.5 Q268 -226 216 -226 Z " />
<glyph glyph-name="egrave" unicode="&#xe8;" horiz-adv-x="553" d="M83 235 Q80 215 80 200 Q80 107 130 56 Q180 5 270 5 Q327 5 370.5 29 Q414 53 446 91 L458 77 Q429 40 381 13 Q333 -14 270 -14 Q219 -14 179.5 1.5 Q140 17 113 44.5 Q86 72 72 110.5 Q58 149 58 195 Q58 249 77 299.5 Q96 350 131 389 Q166 428 214 451 Q262 474 321 474 Q368 474 402 459.5 Q436 445 458.5 420.5 Q481 396 491.5 363 Q502 330 502 293 Q502 283 500.5 267 Q499 251 495 235 L83 235 Z M478 254 Q481 276 481 295 Q481 367 438.5 411 Q396 455 321 455 Q268 455 227 435.5 Q186 416 156.5 386.5 Q127 357 109.5 321.5 Q92 286 86 254 L478 254 Z M273 708 L379 564 L359 564 L245 708 L273 708 Z " />
<glyph glyph-name="eacute" unicode="&#xe9;" horiz-adv-x="553" d="M83 235 Q80 215 80 200 Q80 107 130 56 Q180 5 270 5 Q327 5 370.5 29 Q414 53 446 91 L458 77 Q429 40 381 13 Q333 -14 270 -14 Q219 -14 179.5 1.5 Q140 17 113 44.5 Q86 72 72 110.5 Q58 149 58 195 Q58 249 77 299.5 Q96 350 131 389 Q166 428 214 451 Q262 474 321 474 Q368 474 402 459.5 Q436 445 458.5 420.5 Q481 396 491.5 363 Q502 330 502 293 Q502 283 500.5 267 Q499 251 495 235 L83 235 Z M478 254 Q481 276 481 295 Q481 367 438.5 411 Q396 455 321 455 Q268 455 227 435.5 Q186 416 156.5 386.5 Q127 357 109.5 321.5 Q92 286 86 254 L478 254 Z M317 564 L297 564 L424 708 L452 708 L317 564 Z " />
<glyph glyph-name="ecircumflex" unicode="&#xea;" horiz-adv-x="553" d="M83 235 Q80 215 80 200 Q80 107 130 56 Q180 5 270 5 Q327 5 370.5 29 Q414 53 446 91 L458 77 Q429 40 381 13 Q333 -14 270 -14 Q219 -14 179.5 1.5 Q140 17 113 44.5 Q86 72 72 110.5 Q58 149 58 195 Q58 249 77 299.5 Q96 350 131 389 Q166 428 214 451 Q262 474 321 474 Q368 474 402 459.5 Q436 445 458.5 420.5 Q481 396 491.5 363 Q502 330 502 293 Q502 283 500.5 267 Q499 251 495 235 L83 235 Z M478 254 Q481 276 481 295 Q481 367 438.5 411 Q396 455 321 455 Q268 455 227 435.5 Q186 416 156.5 386.5 Q127 357 109.5 321.5 Q92 286 86 254 L478 254 Z M393 708 L466 564 L446 564 L378 696 L258 564 L234 564 L364 708 L393 708 Z " />
<glyph glyph-name="edieresis" unicode="&#xeb;" horiz-adv-x="553" d="M83 235 Q80 215 80 200 Q80 107 130 56 Q180 5 270 5 Q327 5 370.5 29 Q414 53 446 91 L458 77 Q429 40 381 13 Q333 -14 270 -14 Q219 -14 179.5 1.5 Q140 17 113 44.5 Q86 72 72 110.5 Q58 149 58 195 Q58 249 77 299.5 Q96 350 131 389 Q166 428 214 451 Q262 474 321 474 Q368 474 402 459.5 Q436 445 458.5 420.5 Q481 396 491.5 363 Q502 330 502 293 Q502 283 500.5 267 Q499 251 495 235 L83 235 Z M478 254 Q481 276 481 295 Q481 367 438.5 411 Q396 455 321 455 Q268 455 227 435.5 Q186 416 156.5 386.5 Q127 357 109.5 321.5 Q92 286 86 254 L478 254 Z M283 633 Q274 633 268 638.5 Q262 644 262 656 Q262 667 269 675.5 Q276 684 287 684 Q296 684 302 678.5 Q308 673 308 662 Q308 650 300.5 641.5 Q293 633 283 633 Z M433 633 Q424 633 418 638.5 Q412 644 412 656 Q412 667 419 675.5 Q426 684 437 684 Q446 684 452 678.5 Q458 673 458 662 Q458 650 450.5 641.5 Q443 633 433 633 Z " />
<glyph glyph-name="igrave" unicode="&#xec;" horiz-adv-x="226" d="M62 0 L143 460 L165 460 L84 0 L62 0 Z M86 708 L192 564 L172 564 L58 708 L86 708 Z " />
<glyph glyph-name="iacute" unicode="&#xed;" horiz-adv-x="226" d="M62 0 L143 460 L165 460 L84 0 L62 0 Z M171 564 L151 564 L278 708 L306 708 L171 564 Z " />
<glyph glyph-name="icircumflex" unicode="&#xee;" horiz-adv-x="226" d="M62 0 L143 460 L165 460 L84 0 L62 0 Z M217 708 L290 564 L270 564 L202 696 L82 564 L58 564 L188 708 L217 708 Z " />
<glyph glyph-name="idieresis" unicode="&#xef;" horiz-adv-x="226" d="M62 0 L143 460 L165 460 L84 0 L62 0 Z M107 633 Q98 633 92 638.5 Q86 644 86 656 Q86 667 93 675.5 Q100 684 111 684 Q120 684 126 678.5 Q132 673 132 662 Q132 650 124.5 641.5 Q117 633 107 633 Z M257 633 Q248 633 242 638.5 Q236 644 236 656 Q236 667 243 675.5 Q250 684 261 684 Q270 684 276 678.5 Q282 673 282 662 Q282 650 274.5 641.5 Q267 633 257 633 Z " />
<glyph glyph-name="eth" unicode="&#xf0;" horiz-adv-x="598" d="M529 267 Q529 305 517.5 339 Q506 373 482 399 Q458 425 422 440 Q386 455 337 455 Q281 455 236.5 433 Q192 411 160.5 375 Q129 339 112 291.5 Q95 244 95 193 Q95 155 106.5 120.5 Q118 86 141.5 60.5 Q165 35 201 20 Q237 5 286 5 Q341 5 386 26.5 Q431 48 463 84.5 Q495 121 512 168.5 Q529 216 529 267 Z M338 474 Q394 474 438 455.5 Q482 437 508 395 L514 397 Q507 434 493.5 471.5 Q480 509 463.5 543.5 Q447 578 428.5 607 Q410 636 393 656 L270 595 L260 609 L381 671 Q334 725 298 751 L316 762 Q338 746 358.5 725 Q379 704 399 680 L516 740 L530 727 L413 666 Q435 637 459.5 594.5 Q484 552 504 500 Q524 448 537.5 388.5 Q551 329 551 268 Q551 212 532.5 161 Q514 110 479.5 71 Q445 32 396 9 Q347 -14 286 -14 Q233 -14 193 2 Q153 18 126.5 45.5 Q100 73 86.5 110.5 Q73 148 73 192 Q73 247 91.5 298 Q110 349 144.5 388 Q179 427 228 450.5 Q277 474 338 474 Z " />
<glyph glyph-name="ntilde" unicode="&#xf1;" horiz-adv-x="566" d="M335 474 Q372 474 399.5 461.5 Q427 449 445 428.5 Q463 408 472 381 Q481 354 481 325 Q481 303 475 273 L427 0 L405 0 L454 274 Q456 285 457.5 299 Q459 313 459 324 Q459 348 452 371.5 Q445 395 430 413.5 Q415 432 391 443.5 Q367 455 332 455 Q294 455 260.5 439.5 Q227 424 200 395 Q173 366 153.5 324.5 Q134 283 125 230 L84 0 L62 0 L123 344 Q125 355 127.5 371 Q130 387 132 403.5 Q134 420 136 435 Q138 450 138 460 L160 460 Q159 450 157 435 Q155 420 153 402.5 Q151 385 148 368.5 Q145 352 143 339 L145 339 Q176 406 225.5 440 Q275 474 335 474 Z M353 638 Q377 621 387.5 617.5 Q398 614 409 614 Q442 614 458 662 L475 662 Q464 626 445 610.5 Q426 595 406 595 Q390 595 378 600 Q366 605 346 619 Q323 635 312.5 639 Q302 643 291 643 Q259 643 242 592 L225 592 Q236 628 255 645 Q274 662 294 662 Q310 662 321.5 657 Q333 652 353 638 Z " />
<glyph glyph-name="ograve" unicode="&#xf2;" horiz-adv-x="598" d="M514 267 Q514 305 502.5 339 Q491 373 467 399 Q443 425 407 440 Q371 455 322 455 Q266 455 221.5 433 Q177 411 145.5 375 Q114 339 97 291.5 Q80 244 80 193 Q80 155 91.5 120.5 Q103 86 126.5 60.5 Q150 35 186 20 Q222 5 271 5 Q326 5 371 26.5 Q416 48 448 84.5 Q480 121 497 168.5 Q514 216 514 267 Z M58 192 Q58 247 76.5 298 Q95 349 129.5 388 Q164 427 213.5 450.5 Q263 474 324 474 Q377 474 416.5 458 Q456 442 482.5 414 Q509 386 522.5 348.5 Q536 311 536 268 Q536 212 517.5 161 Q499 110 464.5 71 Q430 32 381 9 Q332 -14 271 -14 Q218 -14 178 2 Q138 18 111.5 45.5 Q85 73 71.5 110.5 Q58 148 58 192 Z M270 708 L376 564 L356 564 L242 708 L270 708 Z " />
<glyph glyph-name="oacute" unicode="&#xf3;" horiz-adv-x="598" d="M514 267 Q514 305 502.5 339 Q491 373 467 399 Q443 425 407 440 Q371 455 322 455 Q266 455 221.5 433 Q177 411 145.5 375 Q114 339 97 291.5 Q80 244 80 193 Q80 155 91.5 120.5 Q103 86 126.5 60.5 Q150 35 186 20 Q222 5 271 5 Q326 5 371 26.5 Q416 48 448 84.5 Q480 121 497 168.5 Q514 216 514 267 Z M58 192 Q58 247 76.5 298 Q95 349 129.5 388 Q164 427 213.5 450.5 Q263 474 324 474 Q377 474 416.5 458 Q456 442 482.5 414 Q509 386 522.5 348.5 Q536 311 536 268 Q536 212 517.5 161 Q499 110 464.5 71 Q430 32 381 9 Q332 -14 271 -14 Q218 -14 178 2 Q138 18 111.5 45.5 Q85 73 71.5 110.5 Q58 148 58 192 Z M339 564 L319 564 L446 708 L474 708 L339 564 Z " />
<glyph glyph-name="ocircumflex" unicode="&#xf4;" horiz-adv-x="598" d="M514 267 Q514 305 502.5 339 Q491 373 467 399 Q443 425 407 440 Q371 455 322 455 Q266 455 221.5 433 Q177 411 145.5 375 Q114 339 97 291.5 Q80 244 80 193 Q80 155 91.5 120.5 Q103 86 126.5 60.5 Q150 35 186 20 Q222 5 271 5 Q326 5 371 26.5 Q416 48 448 84.5 Q480 121 497 168.5 Q514 216 514 267 Z M58 192 Q58 247 76.5 298 Q95 349 129.5 388 Q164 427 213.5 450.5 Q263 474 324 474 Q377 474 416.5 458 Q456 442 482.5 414 Q509 386 522.5 348.5 Q536 311 536 268 Q536 212 517.5 161 Q499 110 464.5 71 Q430 32 381 9 Q332 -14 271 -14 Q218 -14 178 2 Q138 18 111.5 45.5 Q85 73 71.5 110.5 Q58 148 58 192 Z M401 708 L474 564 L454 564 L386 696 L266 564 L242 564 L372 708 L401 708 Z " />
<glyph glyph-name="otilde" unicode="&#xf5;" horiz-adv-x="598" d="M514 267 Q514 305 502.5 339 Q491 373 467 399 Q443 425 407 440 Q371 455 322 455 Q266 455 221.5 433 Q177 411 145.5 375 Q114 339 97 291.5 Q80 244 80 193 Q80 155 91.5 120.5 Q103 86 126.5 60.5 Q150 35 186 20 Q222 5 271 5 Q326 5 371 26.5 Q416 48 448 84.5 Q480 121 497 168.5 Q514 216 514 267 Z M58 192 Q58 247 76.5 298 Q95 349 129.5 388 Q164 427 213.5 450.5 Q263 474 324 474 Q377 474 416.5 458 Q456 442 482.5 414 Q509 386 522.5 348.5 Q536 311 536 268 Q536 212 517.5 161 Q499 110 464.5 71 Q430 32 381 9 Q332 -14 271 -14 Q218 -14 178 2 Q138 18 111.5 45.5 Q85 73 71.5 110.5 Q58 148 58 192 Z M366 638 Q390 621 400.5 617.5 Q411 614 422 614 Q455 614 471 662 L488 662 Q477 626 458 610.5 Q439 595 419 595 Q403 595 391 600 Q379 605 359 619 Q336 635 325.5 639 Q315 643 304 643 Q272 643 255 592 L238 592 Q249 628 268 645 Q287 662 307 662 Q323 662 334.5 657 Q346 652 366 638 Z " />
<glyph glyph-name="odieresis" unicode="&#xf6;" horiz-adv-x="598" d="M514 267 Q514 305 502.5 339 Q491 373 467 399 Q443 425 407 440 Q371 455 322 455 Q266 455 221.5 433 Q177 411 145.5 375 Q114 339 97 291.5 Q80 244 80 193 Q80 155 91.5 120.5 Q103 86 126.5 60.5 Q150 35 186 20 Q222 5 271 5 Q326 5 371 26.5 Q416 48 448 84.5 Q480 121 497 168.5 Q514 216 514 267 Z M58 192 Q58 247 76.5 298 Q95 349 129.5 388 Q164 427 213.5 450.5 Q263 474 324 474 Q377 474 416.5 458 Q456 442 482.5 414 Q509 386 522.5 348.5 Q536 311 536 268 Q536 212 517.5 161 Q499 110 464.5 71 Q430 32 381 9 Q332 -14 271 -14 Q218 -14 178 2 Q138 18 111.5 45.5 Q85 73 71.5 110.5 Q58 148 58 192 Z M292 633 Q283 633 277 638.5 Q271 644 271 656 Q271 667 278 675.5 Q285 684 296 684 Q305 684 311 678.5 Q317 673 317 662 Q317 650 309.5 641.5 Q302 633 292 633 Z M442 633 Q433 633 427 638.5 Q421 644 421 656 Q421 667 428 675.5 Q435 684 446 684 Q455 684 461 678.5 Q467 673 467 662 Q467 650 459.5 641.5 Q452 633 442 633 Z " />
<glyph glyph-name="divide" unicode="&#xf7;" horiz-adv-x="666" d="M369 470 Q369 454 358 443 Q347 432 333 432 Q319 432 308.5 443 Q298 454 298 470 Q298 486 308.5 497 Q319 508 333 508 Q347 508 358 497 Q369 486 369 470 Z M94 293 L94 313 L573 313 L573 293 L94 293 Z M369 136 Q369 120 358 109 Q347 98 333 98 Q319 98 308.5 109 Q298 120 298 136 Q298 153 308 163.5 Q318 174 333 174 Q347 174 358 163 Q369 152 369 136 Z " />
<glyph glyph-name="oslash" unicode="&#xf8;" horiz-adv-x="598" d="M120 68 Q143 39 180 22 Q217 5 271 5 Q326 5 371 26.5 Q416 48 448 84.5 Q480 121 497 168.5 Q514 216 514 267 Q514 300 505.5 329.5 Q497 359 479 384 L120 68 Z M468 398 Q445 424 409 439.5 Q373 455 322 455 Q266 455 221.5 433 Q177 411 145.5 375 Q114 339 97 291.5 Q80 244 80 193 Q80 129 110 83 L468 398 Z M496 399 Q516 372 526 339 Q536 306 536 268 Q536 212 517.5 161 Q499 110 464.5 71 Q430 32 381 9 Q332 -14 271 -14 Q214 -14 172 4 Q130 22 104 54 L33 -8 L21 5 L93 68 Q58 120 58 192 Q58 247 76.5 298 Q95 349 129.5 388 Q164 427 213.5 450.5 Q263 474 324 474 Q378 474 418 458 Q458 442 484 413 L553 473 L564 459 L496 399 Z " />
<glyph glyph-name="ugrave" unicode="&#xf9;" horiz-adv-x="566" d="M222 -14 Q185 -14 157.5 -1.5 Q130 11 112 31.5 Q94 52 85 79 Q76 106 76 135 Q76 157 82 187 L130 460 L152 460 L103 186 Q101 175 99.5 161 Q98 147 98 136 Q98 112 105 88.5 Q112 65 127 46.5 Q142 28 166 16.5 Q190 5 225 5 Q263 5 296.5 20.5 Q330 36 357 65 Q384 94 403.5 135.5 Q423 177 432 230 L473 460 L495 460 L434 116 Q432 105 429.5 89 Q427 73 425 56.5 Q423 40 421 25 Q419 10 419 0 L397 0 Q398 10 400 25 Q402 40 404 57.5 Q406 75 409 91.5 Q412 108 414 121 L412 121 Q381 54 331.5 20 Q282 -14 222 -14 Z M237 708 L343 564 L323 564 L209 708 L237 708 Z " />
<glyph glyph-name="uacute" unicode="&#xfa;" horiz-adv-x="566" d="M222 -14 Q185 -14 157.5 -1.5 Q130 11 112 31.5 Q94 52 85 79 Q76 106 76 135 Q76 157 82 187 L130 460 L152 460 L103 186 Q101 175 99.5 161 Q98 147 98 136 Q98 112 105 88.5 Q112 65 127 46.5 Q142 28 166 16.5 Q190 5 225 5 Q263 5 296.5 20.5 Q330 36 357 65 Q384 94 403.5 135.5 Q423 177 432 230 L473 460 L495 460 L434 116 Q432 105 429.5 89 Q427 73 425 56.5 Q423 40 421 25 Q419 10 419 0 L397 0 Q398 10 400 25 Q402 40 404 57.5 Q406 75 409 91.5 Q412 108 414 121 L412 121 Q381 54 331.5 20 Q282 -14 222 -14 Z M316 564 L296 564 L423 708 L451 708 L316 564 Z " />
<glyph glyph-name="ucircumflex" unicode="&#xfb;" horiz-adv-x="566" d="M222 -14 Q185 -14 157.5 -1.5 Q130 11 112 31.5 Q94 52 85 79 Q76 106 76 135 Q76 157 82 187 L130 460 L152 460 L103 186 Q101 175 99.5 161 Q98 147 98 136 Q98 112 105 88.5 Q112 65 127 46.5 Q142 28 166 16.5 Q190 5 225 5 Q263 5 296.5 20.5 Q330 36 357 65 Q384 94 403.5 135.5 Q423 177 432 230 L473 460 L495 460 L434 116 Q432 105 429.5 89 Q427 73 425 56.5 Q423 40 421 25 Q419 10 419 0 L397 0 Q398 10 400 25 Q402 40 404 57.5 Q406 75 409 91.5 Q412 108 414 121 L412 121 Q381 54 331.5 20 Q282 -14 222 -14 Z M373 708 L446 564 L426 564 L358 696 L238 564 L214 564 L344 708 L373 708 Z " />
<glyph glyph-name="udieresis" unicode="&#xfc;" horiz-adv-x="566" d="M222 -14 Q185 -14 157.5 -1.5 Q130 11 112 31.5 Q94 52 85 79 Q76 106 76 135 Q76 157 82 187 L130 460 L152 460 L103 186 Q101 175 99.5 161 Q98 147 98 136 Q98 112 105 88.5 Q112 65 127 46.5 Q142 28 166 16.5 Q190 5 225 5 Q263 5 296.5 20.5 Q330 36 357 65 Q384 94 403.5 135.5 Q423 177 432 230 L473 460 L495 460 L434 116 Q432 105 429.5 89 Q427 73 425 56.5 Q423 40 421 25 Q419 10 419 0 L397 0 Q398 10 400 25 Q402 40 404 57.5 Q406 75 409 91.5 Q412 108 414 121 L412 121 Q381 54 331.5 20 Q282 -14 222 -14 Z M264 633 Q255 633 249 638.5 Q243 644 243 656 Q243 667 250 675.5 Q257 684 268 684 Q277 684 283 678.5 Q289 673 289 662 Q289 650 281.5 641.5 Q274 633 264 633 Z M414 633 Q405 633 399 638.5 Q393 644 393 656 Q393 667 400 675.5 Q407 684 418 684 Q427 684 433 678.5 Q439 673 439 662 Q439 650 431.5 641.5 Q424 633 414 633 Z " />
<glyph glyph-name="yacute" unicode="&#xfd;" horiz-adv-x="428" d="M111 -152 Q88 -195 60 -218.5 Q32 -242 -12 -242 Q-21 -242 -33 -240 Q-45 -238 -52 -235 L-48 -216 Q-43 -218 -32.5 -220 Q-22 -222 -12 -222 Q11 -222 28.5 -214 Q46 -206 59 -193.5 Q72 -181 81.5 -165 Q91 -149 100 -133 L165 -13 L69 460 L91 460 L180 12 L422 460 L447 460 L111 -152 Z M269 564 L249 564 L376 708 L404 708 L269 564 Z " />
<glyph glyph-name="thorn" unicode="&#xfe;" horiz-adv-x="623" d="M146 342 Q159 370 180 394 Q201 418 227.5 436 Q254 454 286 464 Q318 474 354 474 Q406 474 444.5 458.5 Q483 443 509 415.5 Q535 388 548 350.5 Q561 313 561 269 Q561 213 542.5 162 Q524 111 490 72 Q456 33 407.5 9.5 Q359 -14 299 -14 Q225 -14 174.5 25.5 Q124 65 109 128 L106 128 L41 -240 L19 -240 L195 756 L217 756 L143 342 L146 342 Z M352 455 Q302 455 259.5 432.5 Q217 410 186 372.5 Q155 335 137 287 Q119 239 119 188 Q119 150 131.5 116.5 Q144 83 167.5 58.5 Q191 34 224.5 19.5 Q258 5 299 5 Q353 5 397.5 27 Q442 49 473.5 85.5 Q505 122 522 169.5 Q539 217 539 268 Q539 307 527.5 341 Q516 375 492.5 400.5 Q469 426 434 440.5 Q399 455 352 455 Z " />
<glyph glyph-name="ydieresis" unicode="&#xff;" horiz-adv-x="428" d="M111 -152 Q88 -195 60 -218.5 Q32 -242 -12 -242 Q-21 -242 -33 -240 Q-45 -238 -52 -235 L-48 -216 Q-43 -218 -32.5 -220 Q-22 -222 -12 -222 Q11 -222 28.5 -214 Q46 -206 59 -193.5 Q72 -181 81.5 -165 Q91 -149 100 -133 L165 -13 L69 460 L91 460 L180 12 L422 460 L447 460 L111 -152 Z M214 633 Q205 633 199 638.5 Q193 644 193 656 Q193 667 200 675.5 Q207 684 218 684 Q227 684 233 678.5 Q239 673 239 662 Q239 650 231.5 641.5 Q224 633 214 633 Z M364 633 Q355 633 349 638.5 Q343 644 343 656 Q343 667 350 675.5 Q357 684 368 684 Q377 684 383 678.5 Q389 673 389 662 Q389 650 381.5 641.5 Q374 633 364 633 Z " />
<glyph glyph-name="Amacron" unicode="&#x100;" horiz-adv-x="633" d="M555 0 L519 203 L119 203 L-10 0 L-37 0 L418 708 L451 708 L577 0 L555 0 Z M432 693 L131 222 L516 222 L432 693 Z M336 821 L340 841 L572 841 L568 821 L336 821 Z " />
<glyph glyph-name="amacron" unicode="&#x101;" horiz-adv-x="512" d="M396 104 Q391 78 388.5 48.5 Q386 19 386 0 L365 0 Q365 20 369 51.5 Q373 83 378 110 L375 110 Q349 51 301.5 18.5 Q254 -14 192 -14 Q169 -14 143.5 -8 Q118 -2 96 11.5 Q74 25 59.5 48 Q45 71 45 105 Q45 157 73.5 189.5 Q102 222 151 240 Q200 258 265 264 Q330 270 404 270 Q409 290 411 308 Q413 326 413 334 Q413 396 378 425.5 Q343 455 283 455 Q242 455 206.5 440 Q171 425 139 400 L127 417 Q163 445 204 459.5 Q245 474 284 474 Q356 474 395.5 438.5 Q435 403 435 337 Q435 326 433 311 Q431 296 429 286 L396 104 Z M401 251 L373 251 Q307 251 251 244.5 Q195 238 154 221.5 Q113 205 90 177.5 Q67 150 67 108 Q67 78 79.5 58 Q92 38 110.5 26.5 Q129 15 151.5 10 Q174 5 195 5 Q240 5 274.5 24 Q309 43 333.5 72.5 Q358 102 372.5 137.5 Q387 173 393 207 L401 251 Z M200 621 L204 641 L436 641 L432 621 L200 621 Z " />
<glyph glyph-name="Abreve" unicode="&#x102;" horiz-adv-x="633" d="M555 0 L519 203 L119 203 L-10 0 L-37 0 L418 708 L451 708 L577 0 L555 0 Z M432 693 L131 222 L516 222 L432 693 Z M582 898 Q566 835 529 803.5 Q492 772 438 772 Q389 772 360 804.5 Q331 837 331 898 L348 898 Q348 846 373 819 Q398 792 439 792 Q486 792 517.5 816.5 Q549 841 566 898 L582 898 Z " />
<glyph glyph-name="abreve" unicode="&#x103;" horiz-adv-x="512" d="M396 104 Q391 78 388.5 48.5 Q386 19 386 0 L365 0 Q365 20 369 51.5 Q373 83 378 110 L375 110 Q349 51 301.5 18.5 Q254 -14 192 -14 Q169 -14 143.5 -8 Q118 -2 96 11.5 Q74 25 59.5 48 Q45 71 45 105 Q45 157 73.5 189.5 Q102 222 151 240 Q200 258 265 264 Q330 270 404 270 Q409 290 411 308 Q413 326 413 334 Q413 396 378 425.5 Q343 455 283 455 Q242 455 206.5 440 Q171 425 139 400 L127 417 Q163 445 204 459.5 Q245 474 284 474 Q356 474 395.5 438.5 Q435 403 435 337 Q435 326 433 311 Q431 296 429 286 L396 104 Z M401 251 L373 251 Q307 251 251 244.5 Q195 238 154 221.5 Q113 205 90 177.5 Q67 150 67 108 Q67 78 79.5 58 Q92 38 110.5 26.5 Q129 15 151.5 10 Q174 5 195 5 Q240 5 274.5 24 Q309 43 333.5 72.5 Q358 102 372.5 137.5 Q387 173 393 207 L401 251 Z M443 698 Q427 635 390 603.5 Q353 572 299 572 Q250 572 221 604.5 Q192 637 192 698 L209 698 Q209 646 234 619 Q259 592 300 592 Q347 592 378.5 616.5 Q410 641 427 698 L443 698 Z " />
<glyph glyph-name="Aogonek" unicode="&#x104;" horiz-adv-x="633" d="M595 -192 Q577 -206 556.5 -214.5 Q536 -223 513 -223 Q481 -223 458.5 -207.5 Q436 -192 436 -160 Q436 -141 442.5 -123.5 Q449 -106 463.5 -87 Q478 -68 500.5 -47 Q523 -26 555 0 L519 203 L119 203 L-10 0 L-37 0 L418 708 L451 708 L577 0 L578 0 Q543 -30 520 -52 Q497 -74 483.5 -91.5 Q470 -109 464.5 -124 Q459 -139 459 -156 Q459 -179 473.5 -192 Q488 -205 514 -205 Q534 -205 554 -197 Q574 -189 588 -176 L595 -192 Z M432 693 L131 222 L516 222 L432 693 Z " />
<glyph glyph-name="aogonek" unicode="&#x105;" horiz-adv-x="512" d="M402 -192 Q384 -206 363.5 -214.5 Q343 -223 320 -223 Q288 -223 265.5 -207.5 Q243 -192 243 -160 Q243 -141 249.5 -123.5 Q256 -106 270.5 -87 Q285 -68 307.5 -47 Q330 -26 362 0 L365 0 Q365 20 369 51.5 Q373 83 378 110 L375 110 Q349 51 301.5 18.5 Q254 -14 192 -14 Q169 -14 143.5 -8 Q118 -2 96 11.5 Q74 25 59.5 48 Q45 71 45 105 Q45 157 73.5 189.5 Q102 222 151 240 Q200 258 265 264 Q330 270 404 270 Q409 290 411 308 Q413 326 413 334 Q413 396 378 425.5 Q343 455 283 455 Q242 455 206.5 440 Q171 425 139 400 L127 417 Q163 445 204 459.5 Q245 474 284 474 Q356 474 395.5 438.5 Q435 403 435 337 Q435 326 433 311 Q431 296 429 286 L396 104 Q391 78 388.5 48.5 Q386 19 386 0 L385 0 Q350 -30 327 -52 Q304 -74 290.5 -91.5 Q277 -109 271.5 -124 Q266 -139 266 -156 Q266 -179 280.5 -192 Q295 -205 321 -205 Q341 -205 361 -197 Q381 -189 395 -176 L402 -192 Z M401 251 L373 251 Q307 251 251 244.5 Q195 238 154 221.5 Q113 205 90 177.5 Q67 150 67 108 Q67 78 79.5 58 Q92 38 110.5 26.5 Q129 15 151.5 10 Q174 5 195 5 Q240 5 274.5 24 Q309 43 333.5 72.5 Q358 102 372.5 137.5 Q387 173 393 207 L401 251 Z " />
<glyph glyph-name="Cacute" unicode="&#x106;" horiz-adv-x="724" d="M645 72 Q593 25 532 2.5 Q471 -20 405 -20 Q325 -20 265.5 3 Q206 26 167 67.5 Q128 109 109 165.5 Q90 222 90 288 Q90 374 121 453.5 Q152 533 207.5 594 Q263 655 339 691.5 Q415 728 505 728 Q538 728 570.5 722.5 Q603 717 632 705.5 Q661 694 685.5 677 Q710 660 728 637 L712 621 Q695 643 671.5 659.5 Q648 676 620.5 687 Q593 698 563 703 Q533 708 504 708 Q420 708 348 673 Q276 638 223.5 580 Q171 522 141.5 447 Q112 372 112 292 Q112 231 129 178 Q146 125 182 85.5 Q218 46 273 23 Q328 0 404 0 Q466 0 525.5 22 Q585 44 635 89 L645 72 Z M483 764 L463 764 L590 908 L618 908 L483 764 Z " />
<glyph glyph-name="cacute" unicode="&#x107;" horiz-adv-x="468" d="M425 46 Q393 15 350.5 -1.5 Q308 -18 261 -18 Q208 -18 170 -2.5 Q132 13 107 40.5 Q82 68 70 105 Q58 142 58 184 Q58 241 78 293 Q98 345 134 385.5 Q170 426 219.5 450 Q269 474 328 474 Q372 474 413.5 459 Q455 444 478 414 L464 399 Q442 428 405 441.5 Q368 455 330 455 Q276 455 230 432.5 Q184 410 150.5 372.5 Q117 335 98.5 287 Q80 239 80 187 Q80 148 91 114.5 Q102 81 124.5 56 Q147 31 181 16.5 Q215 2 262 2 Q304 2 344.5 17.5 Q385 33 414 61 L425 46 Z M333 564 L313 564 L440 708 L468 708 L333 564 Z " />
<glyph glyph-name="Ccircumflex" unicode="&#x108;" horiz-adv-x="724" d="M645 72 Q593 25 532 2.5 Q471 -20 405 -20 Q325 -20 265.5 3 Q206 26 167 67.5 Q128 109 109 165.5 Q90 222 90 288 Q90 374 121 453.5 Q152 533 207.5 594 Q263 655 339 691.5 Q415 728 505 728 Q538 728 570.5 722.5 Q603 717 632 705.5 Q661 694 685.5 677 Q710 660 728 637 L712 621 Q695 643 671.5 659.5 Q648 676 620.5 687 Q593 698 563 703 Q533 708 504 708 Q420 708 348 673 Q276 638 223.5 580 Q171 522 141.5 447 Q112 372 112 292 Q112 231 129 178 Q146 125 182 85.5 Q218 46 273 23 Q328 0 404 0 Q466 0 525.5 22 Q585 44 635 89 L645 72 Z M555 908 L628 764 L608 764 L540 896 L420 764 L396 764 L526 908 L555 908 Z " />
<glyph glyph-name="ccircumflex" unicode="&#x109;" horiz-adv-x="468" d="M425 46 Q393 15 350.5 -1.5 Q308 -18 261 -18 Q208 -18 170 -2.5 Q132 13 107 40.5 Q82 68 70 105 Q58 142 58 184 Q58 241 78 293 Q98 345 134 385.5 Q170 426 219.5 450 Q269 474 328 474 Q372 474 413.5 459 Q455 444 478 414 L464 399 Q442 428 405 441.5 Q368 455 330 455 Q276 455 230 432.5 Q184 410 150.5 372.5 Q117 335 98.5 287 Q80 239 80 187 Q80 148 91 114.5 Q102 81 124.5 56 Q147 31 181 16.5 Q215 2 262 2 Q304 2 344.5 17.5 Q385 33 414 61 L425 46 Z M394 708 L467 564 L447 564 L379 696 L259 564 L235 564 L365 708 L394 708 Z " />
<glyph glyph-name="Cdotaccent" unicode="&#x10a;" horiz-adv-x="724" d="M645 72 Q593 25 532 2.5 Q471 -20 405 -20 Q325 -20 265.5 3 Q206 26 167 67.5 Q128 109 109 165.5 Q90 222 90 288 Q90 374 121 453.5 Q152 533 207.5 594 Q263 655 339 691.5 Q415 728 505 728 Q538 728 570.5 722.5 Q603 717 632 705.5 Q661 694 685.5 677 Q710 660 728 637 L712 621 Q695 643 671.5 659.5 Q648 676 620.5 687 Q593 698 563 703 Q533 708 504 708 Q420 708 348 673 Q276 638 223.5 580 Q171 522 141.5 447 Q112 372 112 292 Q112 231 129 178 Q146 125 182 85.5 Q218 46 273 23 Q328 0 404 0 Q466 0 525.5 22 Q585 44 635 89 L645 72 Z M538 833 Q529 833 523 838.5 Q517 844 517 856 Q517 867 524 875.5 Q531 884 542 884 Q551 884 557 878.5 Q563 873 563 862 Q563 850 555.5 841.5 Q548 833 538 833 Z " />
<glyph glyph-name="cdotaccent" unicode="&#x10b;" horiz-adv-x="468" d="M425 46 Q393 15 350.5 -1.5 Q308 -18 261 -18 Q208 -18 170 -2.5 Q132 13 107 40.5 Q82 68 70 105 Q58 142 58 184 Q58 241 78 293 Q98 345 134 385.5 Q170 426 219.5 450 Q269 474 328 474 Q372 474 413.5 459 Q455 444 478 414 L464 399 Q442 428 405 441.5 Q368 455 330 455 Q276 455 230 432.5 Q184 410 150.5 372.5 Q117 335 98.5 287 Q80 239 80 187 Q80 148 91 114.5 Q102 81 124.5 56 Q147 31 181 16.5 Q215 2 262 2 Q304 2 344.5 17.5 Q385 33 414 61 L425 46 Z M363 633 Q354 633 348 638.5 Q342 644 342 656 Q342 667 349 675.5 Q356 684 367 684 Q376 684 382 678.5 Q388 673 388 662 Q388 650 380.5 641.5 Q373 633 363 633 Z " />
<glyph glyph-name="Ccaron" unicode="&#x10c;" horiz-adv-x="724" d="M645 72 Q593 25 532 2.5 Q471 -20 405 -20 Q325 -20 265.5 3 Q206 26 167 67.5 Q128 109 109 165.5 Q90 222 90 288 Q90 374 121 453.5 Q152 533 207.5 594 Q263 655 339 691.5 Q415 728 505 728 Q538 728 570.5 722.5 Q603 717 632 705.5 Q661 694 685.5 677 Q710 660 728 637 L712 621 Q695 643 671.5 659.5 Q648 676 620.5 687 Q593 698 563 703 Q533 708 504 708 Q420 708 348 673 Q276 638 223.5 580 Q171 522 141.5 447 Q112 372 112 292 Q112 231 129 178 Q146 125 182 85.5 Q218 46 273 23 Q328 0 404 0 Q466 0 525.5 22 Q585 44 635 89 L645 72 Z M494 764 L421 908 L441 908 L509 776 L629 908 L653 908 L523 764 L494 764 Z " />
<glyph glyph-name="ccaron" unicode="&#x10d;" horiz-adv-x="468" d="M425 46 Q393 15 350.5 -1.5 Q308 -18 261 -18 Q208 -18 170 -2.5 Q132 13 107 40.5 Q82 68 70 105 Q58 142 58 184 Q58 241 78 293 Q98 345 134 385.5 Q170 426 219.5 450 Q269 474 328 474 Q372 474 413.5 459 Q455 444 478 414 L464 399 Q442 428 405 441.5 Q368 455 330 455 Q276 455 230 432.5 Q184 410 150.5 372.5 Q117 335 98.5 287 Q80 239 80 187 Q80 148 91 114.5 Q102 81 124.5 56 Q147 31 181 16.5 Q215 2 262 2 Q304 2 344.5 17.5 Q385 33 414 61 L425 46 Z M326 564 L253 708 L273 708 L341 576 L461 708 L485 708 L355 564 L326 564 Z " />
<glyph glyph-name="Dcaron" unicode="&#x10e;" horiz-adv-x="775" d="M66 0 L191 708 L377 708 Q449 708 511 689 Q573 670 618.5 632.5 Q664 595 690 540.5 Q716 486 716 416 Q716 306 679 227.5 Q642 149 579.5 98.5 Q517 48 433.5 24 Q350 0 257 0 L66 0 Z M210 688 L93 20 L256 20 Q345 20 424.5 42 Q504 64 564 111.5 Q624 159 659 233.5 Q694 308 694 413 Q694 480 669.5 531.5 Q645 583 602.5 617.5 Q560 652 501 670 Q442 688 373 688 L210 688 Z M399 764 L326 908 L346 908 L414 776 L534 908 L558 908 L428 764 L399 764 Z " />
<glyph glyph-name="dcaron" unicode="&#x10f;" horiz-adv-x="617" d="M265 -14 Q213 -14 174.5 1.5 Q136 17 110 44.5 Q84 72 71 109.5 Q58 147 58 191 Q58 247 76.5 298 Q95 349 129 388 Q163 427 211.5 450.5 Q260 474 320 474 Q394 474 444.5 434.5 Q495 395 510 332 L513 332 L586 756 L608 756 L475 0 L453 0 L476 118 L473 118 Q459 90 438.5 66 Q418 42 391.5 24 Q365 6 333 -4 Q301 -14 265 -14 Z M267 5 Q316 5 359 27.5 Q402 50 433 87.5 Q464 125 482 173 Q500 221 500 272 Q500 310 487.5 343.5 Q475 377 451.5 401.5 Q428 426 394.5 440.5 Q361 455 320 455 Q266 455 221.5 433 Q177 411 145.5 374.5 Q114 338 97 290.5 Q80 243 80 192 Q80 153 91.5 119 Q103 85 126 59.5 Q149 34 184.5 19.5 Q220 5 267 5 Z M643 520 L626 520 L714 708 L738 708 L643 520 Z " />
<glyph glyph-name="Dcroat" unicode="&#x110;" horiz-adv-x="775" d="M51 358 L55 378 L133 378 L191 708 L377 708 Q449 708 511 689 Q573 670 618.5 632.5 Q664 595 690 540.5 Q716 486 716 416 Q716 306 679 227.5 Q642 149 579.5 98.5 Q517 48 433.5 24 Q350 0 257 0 L66 0 L129 358 L51 358 Z M422 378 L418 358 L152 358 L93 20 L256 20 Q345 20 424.5 42 Q504 64 564 111.5 Q624 159 659 233.5 Q694 308 694 413 Q694 480 669.5 531.5 Q645 583 602.5 617.5 Q560 652 501 670 Q442 688 373 688 L210 688 L156 378 L422 378 Z " />
<glyph glyph-name="dcroat" unicode="&#x111;" horiz-adv-x="617" d="M575 570 L475 0 L453 0 L476 118 L473 118 Q459 90 438.5 66 Q418 42 391.5 24 Q365 6 333 -4 Q301 -14 265 -14 Q213 -14 174.5 1.5 Q136 17 110 44.5 Q84 72 71 109.5 Q58 147 58 191 Q58 247 76.5 298 Q95 349 129 388 Q163 427 211.5 450.5 Q260 474 320 474 Q394 474 444.5 434.5 Q495 395 510 332 L513 332 L554 570 L334 570 L338 588 L557 588 L586 756 L608 756 L578 588 L643 588 L639 570 L575 570 Z M267 5 Q316 5 359 27.5 Q402 50 433 87.5 Q464 125 482 173 Q500 221 500 272 Q500 310 487.5 343.5 Q475 377 451.5 401.5 Q428 426 394.5 440.5 Q361 455 320 455 Q266 455 221.5 433 Q177 411 145.5 374.5 Q114 338 97 290.5 Q80 243 80 192 Q80 153 91.5 119 Q103 85 126 59.5 Q149 34 184.5 19.5 Q220 5 267 5 Z " />
<glyph glyph-name="Emacron" unicode="&#x112;" horiz-adv-x="576" d="M66 0 L191 708 L584 708 L580 688 L208 688 L153 377 L511 377 L508 357 L150 357 L91 20 L493 20 L489 0 L66 0 Z M293 821 L297 841 L529 841 L525 821 L293 821 Z " />
<glyph glyph-name="emacron" unicode="&#x113;" horiz-adv-x="553" d="M83 235 Q80 215 80 200 Q80 107 130 56 Q180 5 270 5 Q327 5 370.5 29 Q414 53 446 91 L458 77 Q429 40 381 13 Q333 -14 270 -14 Q219 -14 179.5 1.5 Q140 17 113 44.5 Q86 72 72 110.5 Q58 149 58 195 Q58 249 77 299.5 Q96 350 131 389 Q166 428 214 451 Q262 474 321 474 Q368 474 402 459.5 Q436 445 458.5 420.5 Q481 396 491.5 363 Q502 330 502 293 Q502 283 500.5 267 Q499 251 495 235 L83 235 Z M478 254 Q481 276 481 295 Q481 367 438.5 411 Q396 455 321 455 Q268 455 227 435.5 Q186 416 156.5 386.5 Q127 357 109.5 321.5 Q92 286 86 254 L478 254 Z M235 621 L239 641 L471 641 L467 621 L235 621 Z " />
<glyph glyph-name="Ebreve" unicode="&#x114;" horiz-adv-x="576" d="M66 0 L191 708 L584 708 L580 688 L208 688 L153 377 L511 377 L508 357 L150 357 L91 20 L493 20 L489 0 L66 0 Z M539 898 Q523 835 486 803.5 Q449 772 395 772 Q346 772 317 804.5 Q288 837 288 898 L305 898 Q305 846 330 819 Q355 792 396 792 Q443 792 474.5 816.5 Q506 841 523 898 L539 898 Z " />
<glyph glyph-name="ebreve" unicode="&#x115;" horiz-adv-x="553" d="M83 235 Q80 215 80 200 Q80 107 130 56 Q180 5 270 5 Q327 5 370.5 29 Q414 53 446 91 L458 77 Q429 40 381 13 Q333 -14 270 -14 Q219 -14 179.5 1.5 Q140 17 113 44.5 Q86 72 72 110.5 Q58 149 58 195 Q58 249 77 299.5 Q96 350 131 389 Q166 428 214 451 Q262 474 321 474 Q368 474 402 459.5 Q436 445 458.5 420.5 Q481 396 491.5 363 Q502 330 502 293 Q502 283 500.5 267 Q499 251 495 235 L83 235 Z M478 254 Q481 276 481 295 Q481 367 438.5 411 Q396 455 321 455 Q268 455 227 435.5 Q186 416 156.5 386.5 Q127 357 109.5 321.5 Q92 286 86 254 L478 254 Z M485 698 Q469 635 432 603.5 Q395 572 341 572 Q292 572 263 604.5 Q234 637 234 698 L251 698 Q251 646 276 619 Q301 592 342 592 Q389 592 420.5 616.5 Q452 641 469 698 L485 698 Z " />
<glyph glyph-name="Edotaccent" unicode="&#x116;" horiz-adv-x="576" d="M66 0 L191 708 L584 708 L580 688 L208 688 L153 377 L511 377 L508 357 L150 357 L91 20 L493 20 L489 0 L66 0 Z M414 833 Q405 833 399 838.5 Q393 844 393 856 Q393 867 400 875.5 Q407 884 418 884 Q427 884 433 878.5 Q439 873 439 862 Q439 850 431.5 841.5 Q424 833 414 833 Z " />
<glyph glyph-name="edotaccent" unicode="&#x117;" horiz-adv-x="553" d="M83 235 Q80 215 80 200 Q80 107 130 56 Q180 5 270 5 Q327 5 370.5 29 Q414 53 446 91 L458 77 Q429 40 381 13 Q333 -14 270 -14 Q219 -14 179.5 1.5 Q140 17 113 44.5 Q86 72 72 110.5 Q58 149 58 195 Q58 249 77 299.5 Q96 350 131 389 Q166 428 214 451 Q262 474 321 474 Q368 474 402 459.5 Q436 445 458.5 420.5 Q481 396 491.5 363 Q502 330 502 293 Q502 283 500.5 267 Q499 251 495 235 L83 235 Z M478 254 Q481 276 481 295 Q481 367 438.5 411 Q396 455 321 455 Q268 455 227 435.5 Q186 416 156.5 386.5 Q127 357 109.5 321.5 Q92 286 86 254 L478 254 Z M351 633 Q342 633 336 638.5 Q330 644 330 656 Q330 667 337 675.5 Q344 684 355 684 Q364 684 370 678.5 Q376 673 376 662 Q376 650 368.5 641.5 Q361 633 351 633 Z " />
<glyph glyph-name="Eogonek" unicode="&#x118;" horiz-adv-x="585" d="M493 -192 Q475 -206 454.5 -214.5 Q434 -223 411 -223 Q379 -223 356.5 -207.5 Q334 -192 334 -160 Q334 -141 340.5 -123.5 Q347 -106 361.5 -87 Q376 -68 398.5 -47 Q421 -26 453 0 L66 0 L191 708 L589 708 L585 688 L208 688 L153 377 L516 377 L513 357 L150 357 L91 20 L498 20 L494 0 L476 0 Q441 -30 418 -52 Q395 -74 381.5 -91.5 Q368 -109 362.5 -124 Q357 -139 357 -156 Q357 -179 371.5 -192 Q386 -205 412 -205 Q432 -205 452 -197 Q472 -189 486 -176 L493 -192 Z " />
<glyph glyph-name="eogonek" unicode="&#x119;" horiz-adv-x="553" d="M328 -192 Q310 -206 289.5 -214.5 Q269 -223 246 -223 Q214 -223 191.5 -207.5 Q169 -192 169 -160 Q169 -124 192.5 -91.5 Q216 -59 270 -14 Q219 -14 179.5 1.5 Q140 17 113 44.5 Q86 72 72 110.5 Q58 149 58 195 Q58 249 77 299.5 Q96 350 131 389 Q166 428 214 451 Q262 474 321 474 Q368 474 402 459.5 Q436 445 458.5 420.5 Q481 396 491.5 363 Q502 330 502 293 Q502 283 500.5 267 Q499 251 495 235 L83 235 Q80 215 80 200 Q80 107 130 56 Q180 5 270 5 Q327 5 370.5 29 Q414 53 446 91 L458 77 Q432 44 391 18.5 Q350 -7 296 -13 Q266 -40 246 -59.5 Q226 -79 214 -95 Q202 -111 197 -125.5 Q192 -140 192 -156 Q192 -179 206.5 -192 Q221 -205 247 -205 Q267 -205 287 -197 Q307 -189 321 -176 L328 -192 Z M478 254 Q481 276 481 295 Q481 367 438.5 411 Q396 455 321 455 Q268 455 227 435.5 Q186 416 156.5 386.5 Q127 357 109.5 321.5 Q92 286 86 254 L478 254 Z " />
<glyph glyph-name="Ecaron" unicode="&#x11a;" horiz-adv-x="576" d="M66 0 L191 708 L584 708 L580 688 L208 688 L153 377 L511 377 L508 357 L150 357 L91 20 L493 20 L489 0 L66 0 Z M385 764 L312 908 L332 908 L400 776 L520 908 L544 908 L414 764 L385 764 Z " />
<glyph glyph-name="ecaron" unicode="&#x11b;" horiz-adv-x="553" d="M83 235 Q80 215 80 200 Q80 107 130 56 Q180 5 270 5 Q327 5 370.5 29 Q414 53 446 91 L458 77 Q429 40 381 13 Q333 -14 270 -14 Q219 -14 179.5 1.5 Q140 17 113 44.5 Q86 72 72 110.5 Q58 149 58 195 Q58 249 77 299.5 Q96 350 131 389 Q166 428 214 451 Q262 474 321 474 Q368 474 402 459.5 Q436 445 458.5 420.5 Q481 396 491.5 363 Q502 330 502 293 Q502 283 500.5 267 Q499 251 495 235 L83 235 Z M478 254 Q481 276 481 295 Q481 367 438.5 411 Q396 455 321 455 Q268 455 227 435.5 Q186 416 156.5 386.5 Q127 357 109.5 321.5 Q92 286 86 254 L478 254 Z M323 564 L250 708 L270 708 L338 576 L458 708 L482 708 L352 564 L323 564 Z " />
<glyph glyph-name="Gcircumflex" unicode="&#x11c;" horiz-adv-x="770" d="M402 -20 Q322 -20 263 3 Q204 26 165.5 67 Q127 108 108.5 164.5 Q90 221 90 288 Q90 374 121 453.5 Q152 533 207.5 594 Q263 655 339 691.5 Q415 728 505 728 Q538 728 570.5 722.5 Q603 717 632 705.5 Q661 694 685.5 677 Q710 660 728 637 L712 621 Q695 643 671.5 659.5 Q648 676 620.5 687 Q593 698 563 703 Q533 708 504 708 Q420 708 348 673 Q276 638 223.5 580 Q171 522 141.5 447 Q112 372 112 292 Q112 231 129 178 Q146 125 181 85.5 Q216 46 271 23 Q326 0 402 0 Q468 0 526.5 15 Q585 30 624 53 L673 331 L489 331 L493 350 L698 350 L643 41 Q602 15 538 -2.5 Q474 -20 402 -20 Z M557 908 L630 764 L610 764 L542 896 L422 764 L398 764 L528 908 L557 908 Z " />
<glyph glyph-name="gcircumflex" unicode="&#x11d;" horiz-adv-x="617" d="M474 118 Q460 90 439.5 66 Q419 42 392.5 24 Q366 6 334 -4 Q302 -14 266 -14 Q214 -14 175.5 1.5 Q137 17 111 44.5 Q85 72 72 109.5 Q59 147 59 191 Q59 247 77.5 298 Q96 349 130 388 Q164 427 212.5 450.5 Q261 474 321 474 Q395 474 445.5 434.5 Q496 395 511 332 L514 332 L536 460 L557 460 L481 25 Q471 -30 454 -79.5 Q437 -129 407 -167 Q377 -205 332 -227.5 Q287 -250 222 -250 Q157 -250 108.5 -227.5 Q60 -205 28 -164 L43 -149 Q76 -192 122.5 -211.5 Q169 -231 222 -231 Q283 -231 324.5 -209.5 Q366 -188 393 -152 Q420 -116 435.5 -69.5 Q451 -23 460 27 L477 118 L474 118 Z M268 5 Q317 5 360 27.5 Q403 50 434 87.5 Q465 125 483 173 Q501 221 501 272 Q501 310 488.5 343.5 Q476 377 452.5 401.5 Q429 426 395.5 440.5 Q362 455 321 455 Q267 455 222.5 433 Q178 411 146.5 374.5 Q115 338 98 290.5 Q81 243 81 192 Q81 153 92.5 119 Q104 85 127 59.5 Q150 34 185.5 19.5 Q221 5 268 5 Z M406 708 L479 564 L459 564 L391 696 L271 564 L247 564 L377 708 L406 708 Z " />
<glyph glyph-name="Gbreve" unicode="&#x11e;" horiz-adv-x="770" d="M402 -20 Q322 -20 263 3 Q204 26 165.5 67 Q127 108 108.5 164.5 Q90 221 90 288 Q90 374 121 453.5 Q152 533 207.5 594 Q263 655 339 691.5 Q415 728 505 728 Q538 728 570.5 722.5 Q603 717 632 705.5 Q661 694 685.5 677 Q710 660 728 637 L712 621 Q695 643 671.5 659.5 Q648 676 620.5 687 Q593 698 563 703 Q533 708 504 708 Q420 708 348 673 Q276 638 223.5 580 Q171 522 141.5 447 Q112 372 112 292 Q112 231 129 178 Q146 125 181 85.5 Q216 46 271 23 Q326 0 402 0 Q468 0 526.5 15 Q585 30 624 53 L673 331 L489 331 L493 350 L698 350 L643 41 Q602 15 538 -2.5 Q474 -20 402 -20 Z M660 898 Q644 835 607 803.5 Q570 772 516 772 Q467 772 438 804.5 Q409 837 409 898 L426 898 Q426 846 451 819 Q476 792 517 792 Q564 792 595.5 816.5 Q627 841 644 898 L660 898 Z " />
<glyph glyph-name="gbreve" unicode="&#x11f;" horiz-adv-x="617" d="M474 118 Q460 90 439.5 66 Q419 42 392.5 24 Q366 6 334 -4 Q302 -14 266 -14 Q214 -14 175.5 1.5 Q137 17 111 44.5 Q85 72 72 109.5 Q59 147 59 191 Q59 247 77.5 298 Q96 349 130 388 Q164 427 212.5 450.5 Q261 474 321 474 Q395 474 445.5 434.5 Q496 395 511 332 L514 332 L536 460 L557 460 L481 25 Q471 -30 454 -79.5 Q437 -129 407 -167 Q377 -205 332 -227.5 Q287 -250 222 -250 Q157 -250 108.5 -227.5 Q60 -205 28 -164 L43 -149 Q76 -192 122.5 -211.5 Q169 -231 222 -231 Q283 -231 324.5 -209.5 Q366 -188 393 -152 Q420 -116 435.5 -69.5 Q451 -23 460 27 L477 118 L474 118 Z M268 5 Q317 5 360 27.5 Q403 50 434 87.5 Q465 125 483 173 Q501 221 501 272 Q501 310 488.5 343.5 Q476 377 452.5 401.5 Q429 426 395.5 440.5 Q362 455 321 455 Q267 455 222.5 433 Q178 411 146.5 374.5 Q115 338 98 290.5 Q81 243 81 192 Q81 153 92.5 119 Q104 85 127 59.5 Q150 34 185.5 19.5 Q221 5 268 5 Z M501 698 Q485 635 448 603.5 Q411 572 357 572 Q308 572 279 604.5 Q250 637 250 698 L267 698 Q267 646 292 619 Q317 592 358 592 Q405 592 436.5 616.5 Q468 641 485 698 L501 698 Z " />
<glyph glyph-name="Gdotaccent" unicode="&#x120;" horiz-adv-x="770" d="M402 -20 Q322 -20 263 3 Q204 26 165.5 67 Q127 108 108.5 164.5 Q90 221 90 288 Q90 374 121 453.5 Q152 533 207.5 594 Q263 655 339 691.5 Q415 728 505 728 Q538 728 570.5 722.5 Q603 717 632 705.5 Q661 694 685.5 677 Q710 660 728 637 L712 621 Q695 643 671.5 659.5 Q648 676 620.5 687 Q593 698 563 703 Q533 708 504 708 Q420 708 348 673 Q276 638 223.5 580 Q171 522 141.5 447 Q112 372 112 292 Q112 231 129 178 Q146 125 181 85.5 Q216 46 271 23 Q326 0 402 0 Q468 0 526.5 15 Q585 30 624 53 L673 331 L489 331 L493 350 L698 350 L643 41 Q602 15 538 -2.5 Q474 -20 402 -20 Z M531 833 Q522 833 516 838.5 Q510 844 510 856 Q510 867 517 875.5 Q524 884 535 884 Q544 884 550 878.5 Q556 873 556 862 Q556 850 548.5 841.5 Q541 833 531 833 Z " />
<glyph glyph-name="gdotaccent" unicode="&#x121;" horiz-adv-x="617" d="M474 118 Q460 90 439.5 66 Q419 42 392.5 24 Q366 6 334 -4 Q302 -14 266 -14 Q214 -14 175.5 1.5 Q137 17 111 44.5 Q85 72 72 109.5 Q59 147 59 191 Q59 247 77.5 298 Q96 349 130 388 Q164 427 212.5 450.5 Q261 474 321 474 Q395 474 445.5 434.5 Q496 395 511 332 L514 332 L536 460 L557 460 L481 25 Q471 -30 454 -79.5 Q437 -129 407 -167 Q377 -205 332 -227.5 Q287 -250 222 -250 Q157 -250 108.5 -227.5 Q60 -205 28 -164 L43 -149 Q76 -192 122.5 -211.5 Q169 -231 222 -231 Q283 -231 324.5 -209.5 Q366 -188 393 -152 Q420 -116 435.5 -69.5 Q451 -23 460 27 L477 118 L474 118 Z M268 5 Q317 5 360 27.5 Q403 50 434 87.5 Q465 125 483 173 Q501 221 501 272 Q501 310 488.5 343.5 Q476 377 452.5 401.5 Q429 426 395.5 440.5 Q362 455 321 455 Q267 455 222.5 433 Q178 411 146.5 374.5 Q115 338 98 290.5 Q81 243 81 192 Q81 153 92.5 119 Q104 85 127 59.5 Q150 34 185.5 19.5 Q221 5 268 5 Z M367 633 Q358 633 352 638.5 Q346 644 346 656 Q346 667 353 675.5 Q360 684 371 684 Q380 684 386 678.5 Q392 673 392 662 Q392 650 384.5 641.5 Q377 633 367 633 Z " />
<glyph glyph-name="Gcommaaccent" unicode="&#x122;" horiz-adv-x="770" d="M402 -20 Q322 -20 263 3 Q204 26 165.5 67 Q127 108 108.5 164.5 Q90 221 90 288 Q90 374 121 453.5 Q152 533 207.5 594 Q263 655 339 691.5 Q415 728 505 728 Q538 728 570.5 722.5 Q603 717 632 705.5 Q661 694 685.5 677 Q710 660 728 637 L712 621 Q695 643 671.5 659.5 Q648 676 620.5 687 Q593 698 563 703 Q533 708 504 708 Q420 708 348 673 Q276 638 223.5 580 Q171 522 141.5 447 Q112 372 112 292 Q112 231 129 178 Q146 125 181 85.5 Q216 46 271 23 Q326 0 402 0 Q468 0 526.5 15 Q585 30 624 53 L673 331 L489 331 L493 350 L698 350 L643 41 Q602 15 538 -2.5 Q474 -20 402 -20 Z M325 -233 L308 -233 L396 -45 L420 -45 L325 -233 Z " />
<glyph glyph-name="gcommaaccent" unicode="&#x123;" horiz-adv-x="617" d="M474 118 Q460 90 439.5 66 Q419 42 392.5 24 Q366 6 334 -4 Q302 -14 266 -14 Q214 -14 175.5 1.5 Q137 17 111 44.5 Q85 72 72 109.5 Q59 147 59 191 Q59 247 77.5 298 Q96 349 130 388 Q164 427 212.5 450.5 Q261 474 321 474 Q395 474 445.5 434.5 Q496 395 511 332 L514 332 L536 460 L557 460 L481 25 Q471 -30 454 -79.5 Q437 -129 407 -167 Q377 -205 332 -227.5 Q287 -250 222 -250 Q157 -250 108.5 -227.5 Q60 -205 28 -164 L43 -149 Q76 -192 122.5 -211.5 Q169 -231 222 -231 Q283 -231 324.5 -209.5 Q366 -188 393 -152 Q420 -116 435.5 -69.5 Q451 -23 460 27 L477 118 L474 118 Z M268 5 Q317 5 360 27.5 Q403 50 434 87.5 Q465 125 483 173 Q501 221 501 272 Q501 310 488.5 343.5 Q476 377 452.5 401.5 Q429 426 395.5 440.5 Q362 455 321 455 Q267 455 222.5 433 Q178 411 146.5 374.5 Q115 338 98 290.5 Q81 243 81 192 Q81 153 92.5 119 Q104 85 127 59.5 Q150 34 185.5 19.5 Q221 5 268 5 Z M421 752 L438 752 L350 564 L326 564 L421 752 Z " />
<glyph glyph-name="Hcircumflex" unicode="&#x124;" horiz-adv-x="720" d="M552 0 L615 356 L151 356 L88 0 L66 0 L191 708 L213 708 L154 376 L618 376 L677 708 L699 708 L574 0 L552 0 Z M495 908 L568 764 L548 764 L480 896 L360 764 L336 764 L466 908 L495 908 Z " />
<glyph glyph-name="hcircumflex" unicode="&#x125;" horiz-adv-x="566" d="M146 339 Q176 406 225.5 440 Q275 474 335 474 Q372 474 399.5 461.5 Q427 449 445 428.5 Q463 408 472 381 Q481 354 481 325 Q481 303 475 273 L427 0 L405 0 L454 274 Q456 285 457.5 299 Q459 313 459 324 Q459 348 452 371.5 Q445 395 430 413.5 Q415 432 391 443.5 Q367 455 332 455 Q294 455 260.5 439.5 Q227 424 200 395 Q173 366 153.5 324.5 Q134 283 125 230 L84 0 L62 0 L195 756 L217 756 L144 339 L146 339 Z M412 940 L485 796 L465 796 L397 928 L277 796 L253 796 L383 940 L412 940 Z " />
<glyph glyph-name="Hbar" unicode="&#x126;" horiz-adv-x="720" d="M552 0 L615 356 L151 356 L88 0 L66 0 L191 708 L213 708 L179 518 L643 518 L677 708 L699 708 L574 0 L552 0 Z M618 376 L640 500 L176 500 L154 376 L618 376 Z " />
<glyph glyph-name="hbar" unicode="&#x127;" horiz-adv-x="566" d="M146 339 Q176 406 225.5 440 Q275 474 335 474 Q372 474 399.5 461.5 Q427 449 445 428.5 Q463 408 472 381 Q481 354 481 325 Q481 303 475 273 L427 0 L405 0 L454 274 Q456 285 457.5 299 Q459 313 459 324 Q459 348 452 371.5 Q445 395 430 413.5 Q415 432 391 443.5 Q367 455 332 455 Q294 455 260.5 439.5 Q227 424 200 395 Q173 366 153.5 324.5 Q134 283 125 230 L84 0 L62 0 L162 570 L98 570 L102 588 L165 588 L195 756 L217 756 L187 588 L407 588 L403 570 L184 570 L144 339 L146 339 Z " />
<glyph glyph-name="Itilde" unicode="&#x128;" horiz-adv-x="234" d="M66 0 L191 708 L213 708 L88 0 L66 0 Z M224 838 Q248 821 258.5 817.5 Q269 814 280 814 Q313 814 329 862 L346 862 Q335 826 316 810.5 Q297 795 277 795 Q261 795 249 800 Q237 805 217 819 Q194 835 183.5 839 Q173 843 162 843 Q130 843 113 792 L96 792 Q107 828 126 845 Q145 862 165 862 Q181 862 192.5 857 Q204 852 224 838 Z " />
<glyph glyph-name="itilde" unicode="&#x129;" horiz-adv-x="226" d="M62 0 L143 460 L165 460 L84 0 L62 0 Z M183 638 Q207 621 217.5 617.5 Q228 614 239 614 Q272 614 288 662 L305 662 Q294 626 275 610.5 Q256 595 236 595 Q220 595 208 600 Q196 605 176 619 Q153 635 142.5 639 Q132 643 121 643 Q89 643 72 592 L55 592 Q66 628 85 645 Q104 662 124 662 Q140 662 151.5 657 Q163 652 183 638 Z " />
<glyph glyph-name="Imacron" unicode="&#x12a;" horiz-adv-x="234" d="M66 0 L191 708 L213 708 L88 0 L66 0 Z M101 821 L105 841 L337 841 L333 821 L101 821 Z " />
<glyph glyph-name="imacron" unicode="&#x12b;" horiz-adv-x="226" d="M62 0 L143 460 L165 460 L84 0 L62 0 Z M62 621 L66 641 L298 641 L294 621 L62 621 Z " />
<glyph glyph-name="Iogonek" unicode="&#x12e;" horiz-adv-x="234" d="M105 -192 Q87 -206 66.5 -214.5 Q46 -223 23 -223 Q-9 -223 -31.5 -207.5 Q-54 -192 -54 -160 Q-54 -141 -47.5 -123 Q-41 -105 -26.5 -86 Q-12 -67 10.5 -46 Q33 -25 65 1 L66 1 L191 708 L213 708 L88 1 L88 0 L87 0 Q52 -30 29.5 -52 Q7 -74 -6.5 -91.5 Q-20 -109 -25.5 -124 Q-31 -139 -31 -156 Q-31 -179 -16.5 -192 Q-2 -205 24 -205 Q44 -205 64 -197 Q84 -189 98 -176 L105 -192 Z " />
<glyph glyph-name="iogonek" unicode="&#x12f;" horiz-adv-x="226" d="M100 -192 Q82 -206 61.5 -214.5 Q41 -223 18 -223 Q-14 -223 -36.5 -207.5 Q-59 -192 -59 -160 Q-59 -141 -52.5 -123.5 Q-46 -106 -31.5 -87 Q-17 -68 5.5 -47 Q28 -26 60 0 L62 0 L143 460 L165 460 L84 0 L83 0 Q48 -30 25 -52 Q2 -74 -11.5 -91.5 Q-25 -109 -30.5 -124 Q-36 -139 -36 -156 Q-36 -179 -21.5 -192 Q-7 -205 19 -205 Q39 -205 59 -197 Q79 -189 93 -176 L100 -192 Z M181 633 Q172 633 166 638.5 Q160 644 160 656 Q160 667 167 675.5 Q174 684 185 684 Q194 684 200 678.5 Q206 673 206 662 Q206 650 198.5 641.5 Q191 633 181 633 Z " />
<glyph glyph-name="Idotaccent" unicode="&#x130;" horiz-adv-x="234" d="M66 0 L191 708 L213 708 L88 0 L66 0 Z M222 833 Q213 833 207 838.5 Q201 844 201 856 Q201 867 208 875.5 Q215 884 226 884 Q235 884 241 878.5 Q247 873 247 862 Q247 850 239.5 841.5 Q232 833 222 833 Z " />
<glyph glyph-name="dotlessi" unicode="&#x131;" horiz-adv-x="226" d="M62 0 L143 460 L165 460 L84 0 L62 0 Z " />
<glyph glyph-name="IJ" unicode="&#x132;" horiz-adv-x="721" d="M66 0 L191 708 L213 708 L88 0 L66 0 Z M613 193 Q604 144 588 105 Q572 66 546.5 38.5 Q521 11 485.5 -3.5 Q450 -18 403 -18 Q340 -18 299.5 14.5 Q259 47 247 93 L267 102 Q280 57 317 29.5 Q354 2 405 2 Q448 2 479.5 16 Q511 30 533.5 55.5 Q556 81 570 117 Q584 153 592 196 L682 708 L704 708 L613 193 Z " />
<glyph glyph-name="ij" unicode="&#x133;" horiz-adv-x="451" d="M62 0 L143 460 L165 460 L84 0 L62 0 Z M181 633 Q172 633 166 638.5 Q160 644 160 656 Q160 667 167 675.5 Q174 684 185 684 Q194 684 200 678.5 Q206 673 206 662 Q206 650 198.5 641.5 Q191 633 181 633 Z M292 -97 Q287 -125 278.5 -151 Q270 -177 255 -197 Q240 -217 217 -229 Q194 -241 160 -241 Q153 -241 145 -240.5 Q137 -240 131 -238 L133 -219 Q146 -222 158 -222 Q190 -222 210 -211 Q230 -200 242 -182.5 Q254 -165 260 -143 Q266 -121 270 -99 L368 460 L390 460 L292 -97 Z M406 633 Q397 633 391 638.5 Q385 644 385 656 Q385 667 392 675.5 Q399 684 410 684 Q419 684 425 678.5 Q431 673 431 662 Q431 650 423.5 641.5 Q416 633 406 633 Z " />
<glyph glyph-name="Jcircumflex" unicode="&#x134;" horiz-adv-x="480" d="M372 193 Q363 144 347 105 Q331 66 305.5 38.5 Q280 11 244.5 -3.5 Q209 -18 162 -18 Q99 -18 58.5 14.5 Q18 47 6 93 L26 102 Q39 57 76 29.5 Q113 2 164 2 Q207 2 238.5 16 Q270 30 292.5 55.5 Q315 81 329 117 Q343 153 351 196 L441 708 L463 708 L372 193 Z M503 908 L576 764 L556 764 L488 896 L368 764 L344 764 L474 908 L503 908 Z " />
<glyph glyph-name="jcircumflex" unicode="&#x135;" horiz-adv-x="226" d="M67 -97 Q62 -125 53.5 -151 Q45 -177 30 -197 Q15 -217 -8 -229 Q-31 -241 -65 -241 Q-72 -241 -80 -240.5 Q-88 -240 -94 -238 L-92 -219 Q-79 -222 -67 -222 Q-35 -222 -15 -211 Q5 -200 17 -182.5 Q29 -165 35 -143 Q41 -121 45 -99 L143 460 L165 460 L67 -97 Z M208 708 L281 564 L261 564 L193 696 L73 564 L49 564 L179 708 L208 708 Z " />
<glyph glyph-name="Kcommaaccent" unicode="&#x136;" horiz-adv-x="529" d="M157 385 L551 708 L583 708 L184 381 L492 0 L464 0 L156 381 L155 381 L88 0 L66 0 L191 708 L213 708 L156 385 L157 385 Z M183 -233 L166 -233 L254 -45 L278 -45 L183 -233 Z " />
<glyph glyph-name="kcommaaccent" unicode="&#x137;" horiz-adv-x="436" d="M130 249 L402 460 L436 460 L156 245 L382 0 L351 0 L129 243 L127 243 L84 0 L62 0 L195 756 L217 756 L128 249 L130 249 Z M135 -233 L118 -233 L206 -45 L230 -45 L135 -233 Z " />
<glyph glyph-name="Lacute" unicode="&#x139;" horiz-adv-x="498" d="M66 0 L191 708 L213 708 L92 20 L444 20 L440 0 L66 0 Z M219 764 L199 764 L326 908 L354 908 L219 764 Z " />
<glyph glyph-name="lacute" unicode="&#x13a;" horiz-adv-x="226" d="M62 0 L195 756 L217 756 L84 0 L62 0 Z M218 792 L198 792 L325 936 L353 936 L218 792 Z " />
<glyph glyph-name="Lcommaaccent" unicode="&#x13b;" horiz-adv-x="498" d="M66 0 L191 708 L213 708 L92 20 L444 20 L440 0 L66 0 Z M178 -233 L161 -233 L249 -45 L273 -45 L178 -233 Z " />
<glyph glyph-name="lcommaaccent" unicode="&#x13c;" horiz-adv-x="226" d="M62 0 L195 756 L217 756 L84 0 L62 0 Z M9 -234 L-8 -234 L80 -46 L104 -46 L9 -234 Z " />
<glyph glyph-name="Lcaron" unicode="&#x13d;" horiz-adv-x="498" d="M66 0 L191 708 L213 708 L92 20 L444 20 L440 0 L66 0 Z M313 520 L296 520 L384 708 L408 708 L313 520 Z " />
<glyph glyph-name="lcaron" unicode="&#x13e;" horiz-adv-x="226" d="M62 0 L195 756 L217 756 L84 0 L62 0 Z M264 520 L247 520 L335 708 L359 708 L264 520 Z " />
<glyph glyph-name="Ldot" unicode="&#x13f;" horiz-adv-x="498" d="M66 0 L191 708 L213 708 L92 20 L444 20 L440 0 L66 0 Z M369 273 Q360 273 354 278.5 Q348 284 348 296 Q348 307 355 315.5 Q362 324 373 324 Q382 324 388 318.5 Q394 313 394 302 Q394 290 386.5 281.5 Q379 273 369 273 Z " />
<glyph glyph-name="ldot" unicode="&#x140;" horiz-adv-x="226" d="M62 0 L195 756 L217 756 L84 0 L62 0 Z M231 273 Q222 273 216 278.5 Q210 284 210 296 Q210 307 217 315.5 Q224 324 235 324 Q244 324 250 318.5 Q256 313 256 302 Q256 290 248.5 281.5 Q241 273 231 273 Z " />
<glyph glyph-name="Lslash" unicode="&#x141;" horiz-adv-x="498" d="M36 198 L41 225 L116 285 L191 708 L213 708 L141 302 L381 488 L377 464 L136 275 L92 20 L444 20 L440 0 L66 0 L111 258 L36 198 Z " />
<glyph glyph-name="lslash" unicode="&#x142;" horiz-adv-x="226" d="M54 302 L59 329 L135 389 L199 756 L221 756 L160 406 L244 469 L239 445 L155 379 L88 0 L66 0 L130 362 L54 302 Z " />
<glyph glyph-name="Nacute" unicode="&#x143;" horiz-adv-x="749" d="M571 0 L211 683 L208 683 L88 0 L66 0 L191 708 L222 708 L583 26 L586 26 L706 708 L728 708 L603 0 L571 0 Z M455 764 L435 764 L562 908 L590 908 L455 764 Z " />
<glyph glyph-name="nacute" unicode="&#x144;" horiz-adv-x="566" d="M335 474 Q372 474 399.5 461.5 Q427 449 445 428.5 Q463 408 472 381 Q481 354 481 325 Q481 303 475 273 L427 0 L405 0 L454 274 Q456 285 457.5 299 Q459 313 459 324 Q459 348 452 371.5 Q445 395 430 413.5 Q415 432 391 443.5 Q367 455 332 455 Q294 455 260.5 439.5 Q227 424 200 395 Q173 366 153.5 324.5 Q134 283 125 230 L84 0 L62 0 L123 344 Q125 355 127.5 371 Q130 387 132 403.5 Q134 420 136 435 Q138 450 138 460 L160 460 Q159 450 157 435 Q155 420 153 402.5 Q151 385 148 368.5 Q145 352 143 339 L145 339 Q176 406 225.5 440 Q275 474 335 474 Z M322 564 L302 564 L429 708 L457 708 L322 564 Z " />
<glyph glyph-name="Ncommaaccent" unicode="&#x145;" horiz-adv-x="749" d="M571 0 L211 683 L208 683 L88 0 L66 0 L191 708 L222 708 L583 26 L586 26 L706 708 L728 708 L603 0 L571 0 Z M258 -233 L241 -233 L329 -45 L353 -45 L258 -233 Z " />
<glyph glyph-name="ncommaaccent" unicode="&#x146;" horiz-adv-x="566" d="M335 474 Q372 474 399.5 461.5 Q427 449 445 428.5 Q463 408 472 381 Q481 354 481 325 Q481 303 475 273 L427 0 L405 0 L454 274 Q456 285 457.5 299 Q459 313 459 324 Q459 348 452 371.5 Q445 395 430 413.5 Q415 432 391 443.5 Q367 455 332 455 Q294 455 260.5 439.5 Q227 424 200 395 Q173 366 153.5 324.5 Q134 283 125 230 L84 0 L62 0 L123 344 Q125 355 127.5 371 Q130 387 132 403.5 Q134 420 136 435 Q138 450 138 460 L160 460 Q159 450 157 435 Q155 420 153 402.5 Q151 385 148 368.5 Q145 352 143 339 L145 339 Q176 406 225.5 440 Q275 474 335 474 Z M176 -233 L159 -233 L247 -45 L271 -45 L176 -233 Z " />
<glyph glyph-name="Ncaron" unicode="&#x147;" horiz-adv-x="749" d="M571 0 L211 683 L208 683 L88 0 L66 0 L191 708 L222 708 L583 26 L586 26 L706 708 L728 708 L603 0 L571 0 Z M451 764 L378 908 L398 908 L466 776 L586 908 L610 908 L480 764 L451 764 Z " />
<glyph glyph-name="ncaron" unicode="&#x148;" horiz-adv-x="566" d="M335 474 Q372 474 399.5 461.5 Q427 449 445 428.5 Q463 408 472 381 Q481 354 481 325 Q481 303 475 273 L427 0 L405 0 L454 274 Q456 285 457.5 299 Q459 313 459 324 Q459 348 452 371.5 Q445 395 430 413.5 Q415 432 391 443.5 Q367 455 332 455 Q294 455 260.5 439.5 Q227 424 200 395 Q173 366 153.5 324.5 Q134 283 125 230 L84 0 L62 0 L123 344 Q125 355 127.5 371 Q130 387 132 403.5 Q134 420 136 435 Q138 450 138 460 L160 460 Q159 450 157 435 Q155 420 153 402.5 Q151 385 148 368.5 Q145 352 143 339 L145 339 Q176 406 225.5 440 Q275 474 335 474 Z M314 564 L241 708 L261 708 L329 576 L449 708 L473 708 L343 564 L314 564 Z " />
<glyph glyph-name="napostrophe" unicode="&#x149;" horiz-adv-x="566" d="M335 474 Q372 474 399.5 461.5 Q427 449 445 428.5 Q463 408 472 381 Q481 354 481 325 Q481 303 475 273 L427 0 L405 0 L454 274 Q456 285 457.5 299 Q459 313 459 324 Q459 348 452 371.5 Q445 395 430 413.5 Q415 432 391 443.5 Q367 455 332 455 Q294 455 260.5 439.5 Q227 424 200 395 Q173 366 153.5 324.5 Q134 283 125 230 L84 0 L62 0 L123 344 Q125 355 127.5 371 Q130 387 132 403.5 Q134 420 136 435 Q138 450 138 460 L160 460 Q159 450 157 435 Q155 420 153 402.5 Q151 385 148 368.5 Q145 352 143 339 L145 339 Q176 406 225.5 440 Q275 474 335 474 Z M135 520 L118 520 L206 708 L230 708 L135 520 Z " />
<glyph glyph-name="Omacron" unicode="&#x14c;" horiz-adv-x="872" d="M791 411 Q791 472 773.5 526.5 Q756 581 719.5 621 Q683 661 627 684.5 Q571 708 495 708 Q409 708 338 673.5 Q267 639 217 581.5 Q167 524 139.5 449.5 Q112 375 112 295 Q112 233 130 179.5 Q148 126 184.5 86 Q221 46 277 23 Q333 0 409 0 Q495 0 565.5 34 Q636 68 686 125 Q736 182 763.5 256.5 Q791 331 791 411 Z M90 295 Q90 380 118.5 458.5 Q147 537 200 597 Q253 657 328 692.5 Q403 728 495 728 Q575 728 635 704 Q695 680 734.5 637 Q774 594 793.5 536 Q813 478 813 411 Q813 326 784.5 248 Q756 170 703.5 110.5 Q651 51 576 15.5 Q501 -20 409 -20 Q329 -20 269 4 Q209 28 169 70 Q129 112 109.5 169.5 Q90 227 90 295 Z M418 821 L422 841 L654 841 L650 821 L418 821 Z " />
<glyph glyph-name="omacron" unicode="&#x14d;" horiz-adv-x="598" d="M514 267 Q514 305 502.5 339 Q491 373 467 399 Q443 425 407 440 Q371 455 322 455 Q266 455 221.5 433 Q177 411 145.5 375 Q114 339 97 291.5 Q80 244 80 193 Q80 155 91.5 120.5 Q103 86 126.5 60.5 Q150 35 186 20 Q222 5 271 5 Q326 5 371 26.5 Q416 48 448 84.5 Q480 121 497 168.5 Q514 216 514 267 Z M58 192 Q58 247 76.5 298 Q95 349 129.5 388 Q164 427 213.5 450.5 Q263 474 324 474 Q377 474 416.5 458 Q456 442 482.5 414 Q509 386 522.5 348.5 Q536 311 536 268 Q536 212 517.5 161 Q499 110 464.5 71 Q430 32 381 9 Q332 -14 271 -14 Q218 -14 178 2 Q138 18 111.5 45.5 Q85 73 71.5 110.5 Q58 148 58 192 Z M244 621 L248 641 L480 641 L476 621 L244 621 Z " />
<glyph glyph-name="Obreve" unicode="&#x14e;" horiz-adv-x="872" d="M791 411 Q791 472 773.5 526.5 Q756 581 719.5 621 Q683 661 627 684.5 Q571 708 495 708 Q409 708 338 673.5 Q267 639 217 581.5 Q167 524 139.5 449.5 Q112 375 112 295 Q112 233 130 179.5 Q148 126 184.5 86 Q221 46 277 23 Q333 0 409 0 Q495 0 565.5 34 Q636 68 686 125 Q736 182 763.5 256.5 Q791 331 791 411 Z M90 295 Q90 380 118.5 458.5 Q147 537 200 597 Q253 657 328 692.5 Q403 728 495 728 Q575 728 635 704 Q695 680 734.5 637 Q774 594 793.5 536 Q813 478 813 411 Q813 326 784.5 248 Q756 170 703.5 110.5 Q651 51 576 15.5 Q501 -20 409 -20 Q329 -20 269 4 Q209 28 169 70 Q129 112 109.5 169.5 Q90 227 90 295 Z M665 898 Q649 835 612 803.5 Q575 772 521 772 Q472 772 443 804.5 Q414 837 414 898 L431 898 Q431 846 456 819 Q481 792 522 792 Q569 792 600.5 816.5 Q632 841 649 898 L665 898 Z " />
<glyph glyph-name="obreve" unicode="&#x14f;" horiz-adv-x="598" d="M514 267 Q514 305 502.5 339 Q491 373 467 399 Q443 425 407 440 Q371 455 322 455 Q266 455 221.5 433 Q177 411 145.5 375 Q114 339 97 291.5 Q80 244 80 193 Q80 155 91.5 120.5 Q103 86 126.5 60.5 Q150 35 186 20 Q222 5 271 5 Q326 5 371 26.5 Q416 48 448 84.5 Q480 121 497 168.5 Q514 216 514 267 Z M58 192 Q58 247 76.5 298 Q95 349 129.5 388 Q164 427 213.5 450.5 Q263 474 324 474 Q377 474 416.5 458 Q456 442 482.5 414 Q509 386 522.5 348.5 Q536 311 536 268 Q536 212 517.5 161 Q499 110 464.5 71 Q430 32 381 9 Q332 -14 271 -14 Q218 -14 178 2 Q138 18 111.5 45.5 Q85 73 71.5 110.5 Q58 148 58 192 Z M488 698 Q472 635 435 603.5 Q398 572 344 572 Q295 572 266 604.5 Q237 637 237 698 L254 698 Q254 646 279 619 Q304 592 345 592 Q392 592 423.5 616.5 Q455 641 472 698 L488 698 Z " />
<glyph glyph-name="Ohungarumlaut" unicode="&#x150;" horiz-adv-x="872" d="M791 411 Q791 472 773.5 526.5 Q756 581 719.5 621 Q683 661 627 684.5 Q571 708 495 708 Q409 708 338 673.5 Q267 639 217 581.5 Q167 524 139.5 449.5 Q112 375 112 295 Q112 233 130 179.5 Q148 126 184.5 86 Q221 46 277 23 Q333 0 409 0 Q495 0 565.5 34 Q636 68 686 125 Q736 182 763.5 256.5 Q791 331 791 411 Z M90 295 Q90 380 118.5 458.5 Q147 537 200 597 Q253 657 328 692.5 Q403 728 495 728 Q575 728 635 704 Q695 680 734.5 637 Q774 594 793.5 536 Q813 478 813 411 Q813 326 784.5 248 Q756 170 703.5 110.5 Q651 51 576 15.5 Q501 -20 409 -20 Q329 -20 269 4 Q209 28 169 70 Q129 112 109.5 169.5 Q90 227 90 295 Z M467 764 L447 764 L574 908 L602 908 L467 764 Z M588 764 L568 764 L695 908 L723 908 L588 764 Z " />
<glyph glyph-name="ohungarumlaut" unicode="&#x151;" horiz-adv-x="598" d="M514 267 Q514 305 502.5 339 Q491 373 467 399 Q443 425 407 440 Q371 455 322 455 Q266 455 221.5 433 Q177 411 145.5 375 Q114 339 97 291.5 Q80 244 80 193 Q80 155 91.5 120.5 Q103 86 126.5 60.5 Q150 35 186 20 Q222 5 271 5 Q326 5 371 26.5 Q416 48 448 84.5 Q480 121 497 168.5 Q514 216 514 267 Z M58 192 Q58 247 76.5 298 Q95 349 129.5 388 Q164 427 213.5 450.5 Q263 474 324 474 Q377 474 416.5 458 Q456 442 482.5 414 Q509 386 522.5 348.5 Q536 311 536 268 Q536 212 517.5 161 Q499 110 464.5 71 Q430 32 381 9 Q332 -14 271 -14 Q218 -14 178 2 Q138 18 111.5 45.5 Q85 73 71.5 110.5 Q58 148 58 192 Z M297 564 L277 564 L404 708 L432 708 L297 564 Z M418 564 L398 564 L525 708 L553 708 L418 564 Z " />
<glyph glyph-name="OE" unicode="&#x152;" horiz-adv-x="961" d="M429 0 Q357 0 295 19 Q233 38 187.5 75.5 Q142 113 116 167 Q90 221 90 292 Q90 401 127 480 Q164 559 226.5 609.5 Q289 660 372.5 684 Q456 708 549 708 L969 708 L965 688 L620 688 L565 377 L896 377 L893 357 L562 357 L503 20 L878 20 L874 0 L429 0 Z M482 20 L599 688 L550 688 Q461 688 381.5 666 Q302 644 242 596.5 Q182 549 147 474.5 Q112 400 112 295 Q112 228 136.5 176.5 Q161 125 203.5 90.5 Q246 56 305 38 Q364 20 433 20 L482 20 Z " />
<glyph glyph-name="oe" unicode="&#x153;" horiz-adv-x="1003" d="M514 267 Q514 305 502.5 339 Q491 373 467 399 Q443 425 407 440 Q371 455 322 455 Q266 455 221.5 433 Q177 411 145.5 375 Q114 339 97 291.5 Q80 244 80 193 Q80 155 91.5 120.5 Q103 86 126.5 60.5 Q150 35 186 20 Q222 5 271 5 Q326 5 371 26.5 Q416 48 448 84.5 Q480 121 497 168.5 Q514 216 514 267 Z M720 5 Q777 5 820.5 29 Q864 53 896 91 L908 77 Q879 40 831 13 Q783 -14 720 -14 Q631 -14 578 30.5 Q525 75 512 148 Q497 113 474 83 Q451 53 420.5 31.5 Q390 10 352.5 -2 Q315 -14 271 -14 Q218 -14 178 2 Q138 18 111.5 45.5 Q85 73 71.5 110.5 Q58 148 58 192 Q58 247 76.5 298 Q95 349 129.5 388 Q164 427 213.5 450.5 Q263 474 324 474 Q370 474 406 462 Q442 450 468 428 Q494 406 510.5 376.5 Q527 347 533 312 Q548 346 571 376 Q594 406 624.5 427.5 Q655 449 692 461.5 Q729 474 771 474 Q818 474 852 459.5 Q886 445 908.5 420.5 Q931 396 941.5 363 Q952 330 952 293 Q952 283 950.5 267 Q949 251 945 235 L533 235 Q530 215 530 200 Q530 107 580 56 Q630 5 720 5 Z M928 254 Q931 276 931 295 Q931 367 888.5 411 Q846 455 771 455 Q718 455 677 435.5 Q636 416 606.5 386.5 Q577 357 559.5 321.5 Q542 286 536 254 L928 254 Z " />
<glyph glyph-name="Racute" unicode="&#x154;" horiz-adv-x="594" d="M479 0 L317 357 L151 357 L88 0 L66 0 L191 708 L356 708 Q392 708 428 700.5 Q464 693 493.5 676 Q523 659 541 630 Q559 601 559 558 Q559 496 537 457.5 Q515 419 482 397 Q449 375 410.5 367 Q372 359 339 358 L503 0 L479 0 Z M537 555 Q537 593 521 618.5 Q505 644 479 660 Q453 676 418.5 682.5 Q384 689 348 689 L209 689 L154 376 L314 376 Q365 376 406 386 Q447 396 476.5 418 Q506 440 521.5 474 Q537 508 537 555 Z M358 764 L338 764 L465 908 L493 908 L358 764 Z " />
<glyph glyph-name="racute" unicode="&#x155;" horiz-adv-x="309" d="M145 339 Q177 411 224 442.5 Q271 474 322 474 Q327 474 331 474 Q335 474 339 473 L336 454 Q332 455 328.5 455 Q325 455 323 455 Q279 455 245.5 435.5 Q212 416 187.5 384.5 Q163 353 148 314.5 Q133 276 126 238 L84 0 L62 0 L123 344 Q125 355 127.5 371 Q130 387 132 403.5 Q134 420 136 435 Q138 450 138 460 L160 460 Q159 450 157 435 Q155 420 153 402.5 Q151 385 148 368.5 Q145 352 143 339 L145 339 Z M193 564 L173 564 L300 708 L328 708 L193 564 Z " />
<glyph glyph-name="Rcommaaccent" unicode="&#x156;" horiz-adv-x="594" d="M479 0 L317 357 L151 357 L88 0 L66 0 L191 708 L356 708 Q392 708 428 700.5 Q464 693 493.5 676 Q523 659 541 630 Q559 601 559 558 Q559 496 537 457.5 Q515 419 482 397 Q449 375 410.5 367 Q372 359 339 358 L503 0 L479 0 Z M537 555 Q537 593 521 618.5 Q505 644 479 660 Q453 676 418.5 682.5 Q384 689 348 689 L209 689 L154 376 L314 376 Q365 376 406 386 Q447 396 476.5 418 Q506 440 521.5 474 Q537 508 537 555 Z M175 -233 L158 -233 L246 -45 L270 -45 L175 -233 Z " />
<glyph glyph-name="rcommaaccent" unicode="&#x157;" horiz-adv-x="309" d="M145 339 Q177 411 224 442.5 Q271 474 322 474 Q327 474 331 474 Q335 474 339 473 L336 454 Q332 455 328.5 455 Q325 455 323 455 Q279 455 245.5 435.5 Q212 416 187.5 384.5 Q163 353 148 314.5 Q133 276 126 238 L84 0 L62 0 L123 344 Q125 355 127.5 371 Q130 387 132 403.5 Q134 420 136 435 Q138 450 138 460 L160 460 Q159 450 157 435 Q155 420 153 402.5 Q151 385 148 368.5 Q145 352 143 339 L145 339 Z M7 -234 L-10 -234 L78 -46 L102 -46 L7 -234 Z " />
<glyph glyph-name="Rcaron" unicode="&#x158;" horiz-adv-x="594" d="M479 0 L317 357 L151 357 L88 0 L66 0 L191 708 L356 708 Q392 708 428 700.5 Q464 693 493.5 676 Q523 659 541 630 Q559 601 559 558 Q559 496 537 457.5 Q515 419 482 397 Q449 375 410.5 367 Q372 359 339 358 L503 0 L479 0 Z M537 555 Q537 593 521 618.5 Q505 644 479 660 Q453 676 418.5 682.5 Q384 689 348 689 L209 689 L154 376 L314 376 Q365 376 406 386 Q447 396 476.5 418 Q506 440 521.5 474 Q537 508 537 555 Z M353 764 L280 908 L300 908 L368 776 L488 908 L512 908 L382 764 L353 764 Z " />
<glyph glyph-name="rcaron" unicode="&#x159;" horiz-adv-x="309" d="M145 339 Q177 411 224 442.5 Q271 474 322 474 Q327 474 331 474 Q335 474 339 473 L336 454 Q332 455 328.5 455 Q325 455 323 455 Q279 455 245.5 435.5 Q212 416 187.5 384.5 Q163 353 148 314.5 Q133 276 126 238 L84 0 L62 0 L123 344 Q125 355 127.5 371 Q130 387 132 403.5 Q134 420 136 435 Q138 450 138 460 L160 460 Q159 450 157 435 Q155 420 153 402.5 Q151 385 148 368.5 Q145 352 143 339 L145 339 Z M228 564 L155 708 L175 708 L243 576 L363 708 L387 708 L257 564 L228 564 Z " />
<glyph glyph-name="Sacute" unicode="&#x15a;" horiz-adv-x="570" d="M535 629 Q516 664 467 686 Q418 708 358 708 Q324 708 285.5 698 Q247 688 215 666 Q183 644 161.5 610.5 Q140 577 140 529 Q140 494 151.5 470.5 Q163 447 183.5 430.5 Q204 414 232.5 402 Q261 390 296 378 Q337 363 372 347 Q407 331 432 309.5 Q457 288 471 259 Q485 230 485 190 Q485 142 467 103 Q449 64 416 37 Q383 10 337 -5 Q291 -20 235 -20 Q203 -20 172 -13 Q141 -6 114.5 7 Q88 20 67 37.5 Q46 55 33 75 L50 88 Q60 71 78 55 Q96 39 120.5 27 Q145 15 175.5 7.5 Q206 0 241 0 Q289 0 329.5 12.5 Q370 25 400 49.5 Q430 74 446.5 109 Q463 144 463 189 Q463 227 448.5 254 Q434 281 409 300.5 Q384 320 350.5 334 Q317 348 278 361 Q245 372 216 385.5 Q187 399 165 417.5 Q143 436 130.5 463 Q118 490 118 528 Q118 579 140 616.5 Q162 654 196.5 679 Q231 704 274.5 716 Q318 728 360 728 Q432 728 480.5 703 Q529 678 552 643 L535 629 Z M349 764 L329 764 L456 908 L484 908 L349 764 Z " />
<glyph glyph-name="sacute" unicode="&#x15b;" horiz-adv-x="400" d="M36 64 Q53 39 88.5 23.5 Q124 8 165 8 Q196 8 221.5 17.5 Q247 27 265 43 Q283 59 292.5 80.5 Q302 102 302 126 Q302 145 296.5 160 Q291 175 277.5 187.5 Q264 200 241.5 210.5 Q219 221 186 232 Q127 251 102.5 275 Q78 299 78 338 Q78 372 92.5 397.5 Q107 423 130 440 Q153 457 181.5 465.5 Q210 474 239 474 Q286 474 318.5 458 Q351 442 366 419 L348 406 Q336 429 304 442 Q272 455 238 455 Q217 455 193 449 Q169 443 148.5 429.5 Q128 416 114 394.5 Q100 373 100 341 Q100 302 125 284 Q150 266 199 250 Q271 227 297.5 198 Q324 169 324 127 Q324 97 312.5 72 Q301 47 279.5 28 Q258 9 228 -1.5 Q198 -12 161 -12 Q116 -12 77 5.5 Q38 23 20 50 L36 64 Z M241 564 L221 564 L348 708 L376 708 L241 564 Z " />
<glyph glyph-name="Scircumflex" unicode="&#x15c;" horiz-adv-x="570" d="M535 629 Q516 664 467 686 Q418 708 358 708 Q324 708 285.5 698 Q247 688 215 666 Q183 644 161.5 610.5 Q140 577 140 529 Q140 494 151.5 470.5 Q163 447 183.5 430.5 Q204 414 232.5 402 Q261 390 296 378 Q337 363 372 347 Q407 331 432 309.5 Q457 288 471 259 Q485 230 485 190 Q485 142 467 103 Q449 64 416 37 Q383 10 337 -5 Q291 -20 235 -20 Q203 -20 172 -13 Q141 -6 114.5 7 Q88 20 67 37.5 Q46 55 33 75 L50 88 Q60 71 78 55 Q96 39 120.5 27 Q145 15 175.5 7.5 Q206 0 241 0 Q289 0 329.5 12.5 Q370 25 400 49.5 Q430 74 446.5 109 Q463 144 463 189 Q463 227 448.5 254 Q434 281 409 300.5 Q384 320 350.5 334 Q317 348 278 361 Q245 372 216 385.5 Q187 399 165 417.5 Q143 436 130.5 463 Q118 490 118 528 Q118 579 140 616.5 Q162 654 196.5 679 Q231 704 274.5 716 Q318 728 360 728 Q432 728 480.5 703 Q529 678 552 643 L535 629 Z M423 908 L496 764 L476 764 L408 896 L288 764 L264 764 L394 908 L423 908 Z " />
<glyph glyph-name="scircumflex" unicode="&#x15d;" horiz-adv-x="400" d="M36 64 Q53 39 88.5 23.5 Q124 8 165 8 Q196 8 221.5 17.5 Q247 27 265 43 Q283 59 292.5 80.5 Q302 102 302 126 Q302 145 296.5 160 Q291 175 277.5 187.5 Q264 200 241.5 210.5 Q219 221 186 232 Q127 251 102.5 275 Q78 299 78 338 Q78 372 92.5 397.5 Q107 423 130 440 Q153 457 181.5 465.5 Q210 474 239 474 Q286 474 318.5 458 Q351 442 366 419 L348 406 Q336 429 304 442 Q272 455 238 455 Q217 455 193 449 Q169 443 148.5 429.5 Q128 416 114 394.5 Q100 373 100 341 Q100 302 125 284 Q150 266 199 250 Q271 227 297.5 198 Q324 169 324 127 Q324 97 312.5 72 Q301 47 279.5 28 Q258 9 228 -1.5 Q198 -12 161 -12 Q116 -12 77 5.5 Q38 23 20 50 L36 64 Z M306 708 L379 564 L359 564 L291 696 L171 564 L147 564 L277 708 L306 708 Z " />
<glyph glyph-name="Scedilla" unicode="&#x15e;" horiz-adv-x="570" d="M209 -226 Q190 -226 163.5 -221 Q137 -216 117 -206 L124 -189 Q141 -197 166 -202 Q191 -207 209 -207 Q264 -207 286 -187 Q308 -167 308 -141 Q308 -115 288.5 -105 Q269 -95 247 -95 Q233 -95 209.5 -99 Q186 -103 173 -110 L164 -101 L234 -20 Q169 -19 114 7.5 Q59 34 33 75 L50 88 Q60 71 78 55 Q96 39 120.5 27 Q145 15 175.5 7.5 Q206 0 241 0 Q289 0 329.5 12.5 Q370 25 400 49.5 Q430 74 446.5 109 Q463 144 463 189 Q463 227 448.5 254 Q434 281 409 300.5 Q384 320 350.5 334 Q317 348 278 361 Q245 372 216 385.5 Q187 399 165 417.5 Q143 436 130.5 463 Q118 490 118 528 Q118 579 140 616.5 Q162 654 196.5 679 Q231 704 274.5 716 Q318 728 360 728 Q432 728 480.5 703 Q529 678 552 643 L535 629 Q516 664 467 686 Q418 708 358 708 Q324 708 285.5 698 Q247 688 215 666 Q183 644 161.5 610.5 Q140 577 140 529 Q140 494 151.5 470.5 Q163 447 183.5 430.5 Q204 414 232.5 402 Q261 390 296 378 Q337 363 372 347 Q407 331 432 309.5 Q457 288 471 259 Q485 230 485 190 Q485 144 468.5 106.5 Q452 69 422 42 Q392 15 349.5 -0.5 Q307 -16 255 -19 L198 -86 Q212 -81 223.5 -79.5 Q235 -78 249 -78 Q263 -78 277 -81 Q291 -84 302.5 -91 Q314 -98 321.5 -110 Q329 -122 329 -139 Q329 -185 295 -205.5 Q261 -226 209 -226 Z " />
<glyph glyph-name="scedilla" unicode="&#x15f;" horiz-adv-x="400" d="M129 -226 Q110 -226 83.5 -221 Q57 -216 37 -206 L44 -189 Q61 -197 86 -202 Q111 -207 129 -207 Q184 -207 206 -187 Q228 -167 228 -141 Q228 -115 208.5 -105 Q189 -95 167 -95 Q153 -95 129.5 -99 Q106 -103 93 -110 L84 -101 L160 -12 Q115 -12 76.5 5.5 Q38 23 20 50 L36 64 Q53 39 88.5 23.5 Q124 8 165 8 Q196 8 221.5 17.5 Q247 27 265 43 Q283 59 292.5 80.5 Q302 102 302 126 Q302 145 296.5 160 Q291 175 277.5 187.5 Q264 200 241.5 210.5 Q219 221 186 232 Q127 251 102.5 275 Q78 299 78 338 Q78 372 92.5 397.5 Q107 423 130 440 Q153 457 181.5 465.5 Q210 474 239 474 Q286 474 318.5 458 Q351 442 366 419 L348 406 Q336 429 304 442 Q272 455 238 455 Q217 455 193 449 Q169 443 148.5 429.5 Q128 416 114 394.5 Q100 373 100 341 Q100 302 125 284 Q150 266 199 250 Q271 227 297.5 198 Q324 169 324 127 Q324 72 286 33.5 Q248 -5 182 -11 L118 -86 Q132 -81 143.5 -79.5 Q155 -78 169 -78 Q183 -78 197 -81 Q211 -84 222.5 -91 Q234 -98 241.5 -110 Q249 -122 249 -139 Q249 -185 215 -205.5 Q181 -226 129 -226 Z " />
<glyph glyph-name="Scaron" unicode="&#x160;" horiz-adv-x="570" d="M535 629 Q516 664 467 686 Q418 708 358 708 Q324 708 285.5 698 Q247 688 215 666 Q183 644 161.5 610.5 Q140 577 140 529 Q140 494 151.5 470.5 Q163 447 183.5 430.5 Q204 414 232.5 402 Q261 390 296 378 Q337 363 372 347 Q407 331 432 309.5 Q457 288 471 259 Q485 230 485 190 Q485 142 467 103 Q449 64 416 37 Q383 10 337 -5 Q291 -20 235 -20 Q203 -20 172 -13 Q141 -6 114.5 7 Q88 20 67 37.5 Q46 55 33 75 L50 88 Q60 71 78 55 Q96 39 120.5 27 Q145 15 175.5 7.5 Q206 0 241 0 Q289 0 329.5 12.5 Q370 25 400 49.5 Q430 74 446.5 109 Q463 144 463 189 Q463 227 448.5 254 Q434 281 409 300.5 Q384 320 350.5 334 Q317 348 278 361 Q245 372 216 385.5 Q187 399 165 417.5 Q143 436 130.5 463 Q118 490 118 528 Q118 579 140 616.5 Q162 654 196.5 679 Q231 704 274.5 716 Q318 728 360 728 Q432 728 480.5 703 Q529 678 552 643 L535 629 Z M353 764 L280 908 L300 908 L368 776 L488 908 L512 908 L382 764 L353 764 Z " />
<glyph glyph-name="scaron" unicode="&#x161;" horiz-adv-x="400" d="M36 64 Q53 39 88.5 23.5 Q124 8 165 8 Q196 8 221.5 17.5 Q247 27 265 43 Q283 59 292.5 80.5 Q302 102 302 126 Q302 145 296.5 160 Q291 175 277.5 187.5 Q264 200 241.5 210.5 Q219 221 186 232 Q127 251 102.5 275 Q78 299 78 338 Q78 372 92.5 397.5 Q107 423 130 440 Q153 457 181.5 465.5 Q210 474 239 474 Q286 474 318.5 458 Q351 442 366 419 L348 406 Q336 429 304 442 Q272 455 238 455 Q217 455 193 449 Q169 443 148.5 429.5 Q128 416 114 394.5 Q100 373 100 341 Q100 302 125 284 Q150 266 199 250 Q271 227 297.5 198 Q324 169 324 127 Q324 97 312.5 72 Q301 47 279.5 28 Q258 9 228 -1.5 Q198 -12 161 -12 Q116 -12 77 5.5 Q38 23 20 50 L36 64 Z M237 564 L164 708 L184 708 L252 576 L372 708 L396 708 L266 564 L237 564 Z " />
<glyph glyph-name="Tcommaaccent" unicode="&#x162;" horiz-adv-x="515" d="M349 688 L228 0 L206 0 L327 688 L82 688 L86 708 L590 708 L586 688 L349 688 Z M165 -226 Q146 -226 119.5 -221 Q93 -216 73 -206 L80 -189 Q97 -197 122 -202 Q147 -207 165 -207 Q220 -207 242 -187 Q264 -167 264 -141 Q264 -115 244.5 -105 Q225 -95 203 -95 Q189 -95 165.5 -99 Q142 -103 129 -110 L120 -101 L207 0 L228 0 L154 -86 Q168 -81 179.5 -79.5 Q191 -78 205 -78 Q219 -78 233 -81 Q247 -84 258.5 -91 Q270 -98 277.5 -110 Q285 -122 285 -139 Q285 -185 251 -205.5 Q217 -226 165 -226 Z " />
<glyph glyph-name="tcommaaccent" unicode="&#x163;" horiz-adv-x="292" d="M232 -1 Q219 -6 205.5 -9 Q192 -12 177 -12 Q134 -12 112 8.5 Q90 29 90 65 Q90 73 91.5 87 Q93 101 95 109 L154 441 L48 441 L51 460 L156 460 L180 595 L202 595 L178 460 L304 460 L301 441 L175 441 L116 106 Q114 98 113 85.5 Q112 73 112 67 Q112 34 131 20.5 Q150 7 182 7 Q191 7 205.5 9 Q220 11 232 16 L232 -1 Z M99 -226 Q80 -226 53.5 -221 Q27 -216 7 -206 L14 -189 Q31 -197 56 -202 Q81 -207 99 -207 Q154 -207 176 -187 Q198 -167 198 -141 Q198 -115 178.5 -105 Q159 -95 137 -95 Q123 -95 99.5 -99 Q76 -103 63 -110 L54 -101 L141 0 L162 0 L88 -86 Q102 -81 113.5 -79.5 Q125 -78 139 -78 Q153 -78 167 -81 Q181 -84 192.5 -91 Q204 -98 211.5 -110 Q219 -122 219 -139 Q219 -185 185 -205.5 Q151 -226 99 -226 Z " />
<glyph glyph-name="Tcaron" unicode="&#x164;" horiz-adv-x="515" d="M349 688 L228 0 L206 0 L327 688 L82 688 L86 708 L590 708 L586 688 L349 688 Z M335 764 L262 908 L282 908 L350 776 L470 908 L494 908 L364 764 L335 764 Z " />
<glyph glyph-name="tcaron" unicode="&#x165;" horiz-adv-x="292" d="M232 -1 Q219 -6 205.5 -9 Q192 -12 177 -12 Q134 -12 112 8.5 Q90 29 90 65 Q90 73 91.5 87 Q93 101 95 109 L154 441 L48 441 L51 460 L156 460 L180 595 L202 595 L178 460 L304 460 L301 441 L175 441 L116 106 Q114 98 113 85.5 Q112 73 112 67 Q112 34 131 20.5 Q150 7 182 7 Q191 7 205.5 9 Q220 11 232 16 L232 -1 Z M294 543 L277 543 L365 731 L389 731 L294 543 Z " />
<glyph glyph-name="Tbar" unicode="&#x166;" horiz-adv-x="540" d="M334 527 L241 0 L219 0 L311 527 L110 527 L114 545 L314 545 L340 688 L95 688 L99 708 L603 708 L599 688 L362 688 L337 545 L534 545 L530 527 L334 527 Z " />
<glyph glyph-name="tbar" unicode="&#x167;" horiz-adv-x="292" d="M143 259 L116 106 Q114 98 113 85.5 Q112 73 112 67 Q112 34 131 20.5 Q150 7 182 7 Q191 7 205.5 9 Q220 11 232 16 L232 -1 Q219 -6 205.5 -9 Q192 -12 177 -12 Q134 -12 112 8.5 Q90 29 90 65 Q90 73 91.5 87 Q93 101 95 109 L121 259 L26 259 L30 277 L124 277 L154 441 L48 441 L51 460 L156 460 L180 595 L202 595 L178 460 L304 460 L301 441 L175 441 L146 277 L264 277 L260 259 L143 259 Z " />
<glyph glyph-name="Utilde" unicode="&#x168;" horiz-adv-x="716" d="M629 268 Q618 208 599 155.5 Q580 103 546.5 64 Q513 25 461.5 2.5 Q410 -20 335 -20 Q216 -20 156 37.5 Q96 95 96 197 Q96 215 98.5 236 Q101 257 105 277 L181 708 L203 708 L127 276 Q123 253 120.5 233 Q118 213 118 197 Q118 155 130.5 119 Q143 83 169.5 56.5 Q196 30 237 15 Q278 0 335 0 Q414 0 463.5 26 Q513 52 542.5 92.5 Q572 133 586 180.5 Q600 228 608 272 L685 708 L707 708 L629 268 Z M459 838 Q483 821 493.5 817.5 Q504 814 515 814 Q548 814 564 862 L581 862 Q570 826 551 810.5 Q532 795 512 795 Q496 795 484 800 Q472 805 452 819 Q429 835 418.5 839 Q408 843 397 843 Q365 843 348 792 L331 792 Q342 828 361 845 Q380 862 400 862 Q416 862 427.5 857 Q439 852 459 838 Z " />
<glyph glyph-name="utilde" unicode="&#x169;" horiz-adv-x="566" d="M222 -14 Q185 -14 157.5 -1.5 Q130 11 112 31.5 Q94 52 85 79 Q76 106 76 135 Q76 157 82 187 L130 460 L152 460 L103 186 Q101 175 99.5 161 Q98 147 98 136 Q98 112 105 88.5 Q112 65 127 46.5 Q142 28 166 16.5 Q190 5 225 5 Q263 5 296.5 20.5 Q330 36 357 65 Q384 94 403.5 135.5 Q423 177 432 230 L473 460 L495 460 L434 116 Q432 105 429.5 89 Q427 73 425 56.5 Q423 40 421 25 Q419 10 419 0 L397 0 Q398 10 400 25 Q402 40 404 57.5 Q406 75 409 91.5 Q412 108 414 121 L412 121 Q381 54 331.5 20 Q282 -14 222 -14 Z M340 638 Q364 621 374.5 617.5 Q385 614 396 614 Q429 614 445 662 L462 662 Q451 626 432 610.5 Q413 595 393 595 Q377 595 365 600 Q353 605 333 619 Q310 635 299.5 639 Q289 643 278 643 Q246 643 229 592 L212 592 Q223 628 242 645 Q261 662 281 662 Q297 662 308.5 657 Q320 652 340 638 Z " />
<glyph glyph-name="Umacron" unicode="&#x16a;" horiz-adv-x="716" d="M629 268 Q618 208 599 155.5 Q580 103 546.5 64 Q513 25 461.5 2.5 Q410 -20 335 -20 Q216 -20 156 37.5 Q96 95 96 197 Q96 215 98.5 236 Q101 257 105 277 L181 708 L203 708 L127 276 Q123 253 120.5 233 Q118 213 118 197 Q118 155 130.5 119 Q143 83 169.5 56.5 Q196 30 237 15 Q278 0 335 0 Q414 0 463.5 26 Q513 52 542.5 92.5 Q572 133 586 180.5 Q600 228 608 272 L685 708 L707 708 L629 268 Z M339 821 L343 841 L575 841 L571 821 L339 821 Z " />
<glyph glyph-name="umacron" unicode="&#x16b;" horiz-adv-x="566" d="M222 -14 Q185 -14 157.5 -1.5 Q130 11 112 31.5 Q94 52 85 79 Q76 106 76 135 Q76 157 82 187 L130 460 L152 460 L103 186 Q101 175 99.5 161 Q98 147 98 136 Q98 112 105 88.5 Q112 65 127 46.5 Q142 28 166 16.5 Q190 5 225 5 Q263 5 296.5 20.5 Q330 36 357 65 Q384 94 403.5 135.5 Q423 177 432 230 L473 460 L495 460 L434 116 Q432 105 429.5 89 Q427 73 425 56.5 Q423 40 421 25 Q419 10 419 0 L397 0 Q398 10 400 25 Q402 40 404 57.5 Q406 75 409 91.5 Q412 108 414 121 L412 121 Q381 54 331.5 20 Q282 -14 222 -14 Z M219 621 L223 641 L455 641 L451 621 L219 621 Z " />
<glyph glyph-name="Ubreve" unicode="&#x16c;" horiz-adv-x="716" d="M629 268 Q618 208 599 155.5 Q580 103 546.5 64 Q513 25 461.5 2.5 Q410 -20 335 -20 Q216 -20 156 37.5 Q96 95 96 197 Q96 215 98.5 236 Q101 257 105 277 L181 708 L203 708 L127 276 Q123 253 120.5 233 Q118 213 118 197 Q118 155 130.5 119 Q143 83 169.5 56.5 Q196 30 237 15 Q278 0 335 0 Q414 0 463.5 26 Q513 52 542.5 92.5 Q572 133 586 180.5 Q600 228 608 272 L685 708 L707 708 L629 268 Z M586 898 Q570 835 533 803.5 Q496 772 442 772 Q393 772 364 804.5 Q335 837 335 898 L352 898 Q352 846 377 819 Q402 792 443 792 Q490 792 521.5 816.5 Q553 841 570 898 L586 898 Z " />
<glyph glyph-name="ubreve" unicode="&#x16d;" horiz-adv-x="566" d="M222 -14 Q185 -14 157.5 -1.5 Q130 11 112 31.5 Q94 52 85 79 Q76 106 76 135 Q76 157 82 187 L130 460 L152 460 L103 186 Q101 175 99.5 161 Q98 147 98 136 Q98 112 105 88.5 Q112 65 127 46.5 Q142 28 166 16.5 Q190 5 225 5 Q263 5 296.5 20.5 Q330 36 357 65 Q384 94 403.5 135.5 Q423 177 432 230 L473 460 L495 460 L434 116 Q432 105 429.5 89 Q427 73 425 56.5 Q423 40 421 25 Q419 10 419 0 L397 0 Q398 10 400 25 Q402 40 404 57.5 Q406 75 409 91.5 Q412 108 414 121 L412 121 Q381 54 331.5 20 Q282 -14 222 -14 Z M464 698 Q448 635 411 603.5 Q374 572 320 572 Q271 572 242 604.5 Q213 637 213 698 L230 698 Q230 646 255 619 Q280 592 321 592 Q368 592 399.5 616.5 Q431 641 448 698 L464 698 Z " />
<glyph glyph-name="Uring" unicode="&#x16e;" horiz-adv-x="716" d="M629 268 Q618 208 599 155.5 Q580 103 546.5 64 Q513 25 461.5 2.5 Q410 -20 335 -20 Q216 -20 156 37.5 Q96 95 96 197 Q96 215 98.5 236 Q101 257 105 277 L181 708 L203 708 L127 276 Q123 253 120.5 233 Q118 213 118 197 Q118 155 130.5 119 Q143 83 169.5 56.5 Q196 30 237 15 Q278 0 335 0 Q414 0 463.5 26 Q513 52 542.5 92.5 Q572 133 586 180.5 Q600 228 608 272 L685 708 L707 708 L629 268 Z M537 864 Q537 890 521.5 909.5 Q506 929 472 929 Q433 929 410.5 901 Q388 873 388 836 Q388 810 403 791 Q418 772 453 772 Q491 772 514 799.5 Q537 827 537 864 Z M370 835 Q370 857 377 877 Q384 897 397.5 912 Q411 927 430 936 Q449 945 473 945 Q515 945 535 921.5 Q555 898 555 865 Q555 843 548 823 Q541 803 527.5 788 Q514 773 495 764 Q476 755 452 755 Q410 755 390 778 Q370 801 370 835 Z " />
<glyph glyph-name="uring" unicode="&#x16f;" horiz-adv-x="566" d="M222 -14 Q185 -14 157.5 -1.5 Q130 11 112 31.5 Q94 52 85 79 Q76 106 76 135 Q76 157 82 187 L130 460 L152 460 L103 186 Q101 175 99.5 161 Q98 147 98 136 Q98 112 105 88.5 Q112 65 127 46.5 Q142 28 166 16.5 Q190 5 225 5 Q263 5 296.5 20.5 Q330 36 357 65 Q384 94 403.5 135.5 Q423 177 432 230 L473 460 L495 460 L434 116 Q432 105 429.5 89 Q427 73 425 56.5 Q423 40 421 25 Q419 10 419 0 L397 0 Q398 10 400 25 Q402 40 404 57.5 Q406 75 409 91.5 Q412 108 414 121 L412 121 Q381 54 331.5 20 Q282 -14 222 -14 Z M414 664 Q414 690 398.5 709.5 Q383 729 349 729 Q310 729 287.5 701 Q265 673 265 636 Q265 610 280 591 Q295 572 330 572 Q368 572 391 599.5 Q414 627 414 664 Z M247 635 Q247 657 254 677 Q261 697 274.5 712 Q288 727 307 736 Q326 745 350 745 Q392 745 412 721.5 Q432 698 432 665 Q432 643 425 623 Q418 603 404.5 588 Q391 573 372 564 Q353 555 329 555 Q287 555 267 578 Q247 601 247 635 Z " />
<glyph glyph-name="Uhungarumlaut" unicode="&#x170;" horiz-adv-x="716" d="M629 268 Q618 208 599 155.5 Q580 103 546.5 64 Q513 25 461.5 2.5 Q410 -20 335 -20 Q216 -20 156 37.5 Q96 95 96 197 Q96 215 98.5 236 Q101 257 105 277 L181 708 L203 708 L127 276 Q123 253 120.5 233 Q118 213 118 197 Q118 155 130.5 119 Q143 83 169.5 56.5 Q196 30 237 15 Q278 0 335 0 Q414 0 463.5 26 Q513 52 542.5 92.5 Q572 133 586 180.5 Q600 228 608 272 L685 708 L707 708 L629 268 Z M391 764 L371 764 L498 908 L526 908 L391 764 Z M512 764 L492 764 L619 908 L647 908 L512 764 Z " />
<glyph glyph-name="uhungarumlaut" unicode="&#x171;" horiz-adv-x="566" d="M222 -14 Q185 -14 157.5 -1.5 Q130 11 112 31.5 Q94 52 85 79 Q76 106 76 135 Q76 157 82 187 L130 460 L152 460 L103 186 Q101 175 99.5 161 Q98 147 98 136 Q98 112 105 88.5 Q112 65 127 46.5 Q142 28 166 16.5 Q190 5 225 5 Q263 5 296.5 20.5 Q330 36 357 65 Q384 94 403.5 135.5 Q423 177 432 230 L473 460 L495 460 L434 116 Q432 105 429.5 89 Q427 73 425 56.5 Q423 40 421 25 Q419 10 419 0 L397 0 Q398 10 400 25 Q402 40 404 57.5 Q406 75 409 91.5 Q412 108 414 121 L412 121 Q381 54 331.5 20 Q282 -14 222 -14 Z M268 564 L248 564 L375 708 L403 708 L268 564 Z M389 564 L369 564 L496 708 L524 708 L389 564 Z " />
<glyph glyph-name="Uogonek" unicode="&#x172;" horiz-adv-x="716" d="M411 -192 Q393 -206 372.5 -214.5 Q352 -223 329 -223 Q297 -223 274.5 -207.5 Q252 -192 252 -160 Q252 -125 273.5 -94 Q295 -63 346 -20 L335 -20 Q216 -20 156 37.5 Q96 95 96 197 Q96 215 98.5 236 Q101 257 105 277 L181 708 L203 708 L127 276 Q123 253 120.5 233 Q118 213 118 197 Q118 155 130.5 119 Q143 83 169.5 56.5 Q196 30 237 15 Q278 0 335 0 Q414 0 463.5 26 Q513 52 542.5 92.5 Q572 133 586 180.5 Q600 228 608 272 L685 708 L707 708 L629 268 Q619 212 602 162.5 Q585 113 555 74.5 Q525 36 481 12 Q437 -12 373 -18 Q344 -44 325.5 -62.5 Q307 -81 295.5 -96.5 Q284 -112 279.5 -126 Q275 -140 275 -156 Q275 -179 289.5 -192 Q304 -205 330 -205 Q350 -205 370 -197 Q390 -189 404 -176 L411 -192 Z " />
<glyph glyph-name="uogonek" unicode="&#x173;" horiz-adv-x="566" d="M436 -192 Q418 -206 397.5 -214.5 Q377 -223 354 -223 Q322 -223 299.5 -207.5 Q277 -192 277 -160 Q277 -141 283.5 -123.5 Q290 -106 304.5 -87 Q319 -68 341.5 -47 Q364 -26 396 0 L397 0 Q398 10 400 25 Q402 40 404 57.5 Q406 75 409 91.5 Q412 108 414 121 L412 121 Q381 54 331.5 20 Q282 -14 222 -14 Q185 -14 157.5 -1.5 Q130 11 112 31.5 Q94 52 85 79 Q76 106 76 135 Q76 157 82 187 L130 460 L152 460 L103 186 Q101 175 99.5 161 Q98 147 98 136 Q98 112 105 88.5 Q112 65 127 46.5 Q142 28 166 16.5 Q190 5 225 5 Q263 5 296.5 20.5 Q330 36 357 65 Q384 94 403.5 135.5 Q423 177 432 230 L473 460 L495 460 L434 116 Q432 105 429.5 89 Q427 73 425 56.5 Q423 40 421 25 Q419 10 419 0 Q384 -30 361 -52 Q338 -74 324.5 -91.5 Q311 -109 305.5 -124 Q300 -139 300 -156 Q300 -179 314.5 -192 Q329 -205 355 -205 Q375 -205 395 -197 Q415 -189 429 -176 L436 -192 Z " />
<glyph glyph-name="Wcircumflex" unicode="&#x174;" horiz-adv-x="943" d="M652 0 L617 0 L560 685 L558 685 L209 0 L174 0 L115 708 L138 708 L194 21 L197 21 L546 708 L580 708 L637 21 L640 21 L992 708 L1017 708 L652 0 Z M613 908 L686 764 L666 764 L598 896 L478 764 L454 764 L584 908 L613 908 Z " />
<glyph glyph-name="wcircumflex" unicode="&#x175;" horiz-adv-x="692" d="M475 0 L445 0 L387 436 L385 436 L144 0 L114 0 L76 460 L99 460 L133 22 L135 22 L375 460 L406 460 L463 22 L465 22 L683 460 L707 460 L475 0 Z M455 708 L528 564 L508 564 L440 696 L320 564 L296 564 L426 708 L455 708 Z " />
<glyph glyph-name="Ycircumflex" unicode="&#x176;" horiz-adv-x="513" d="M274 310 L219 0 L197 0 L252 310 L90 708 L114 708 L266 332 L571 708 L598 708 L274 310 Z M398 908 L471 764 L451 764 L383 896 L263 764 L239 764 L369 908 L398 908 Z " />
<glyph glyph-name="ycircumflex" unicode="&#x177;" horiz-adv-x="428" d="M111 -152 Q88 -195 60 -218.5 Q32 -242 -12 -242 Q-21 -242 -33 -240 Q-45 -238 -52 -235 L-48 -216 Q-43 -218 -32.5 -220 Q-22 -222 -12 -222 Q11 -222 28.5 -214 Q46 -206 59 -193.5 Q72 -181 81.5 -165 Q91 -149 100 -133 L165 -13 L69 460 L91 460 L180 12 L422 460 L447 460 L111 -152 Z M319 708 L392 564 L372 564 L304 696 L184 564 L160 564 L290 708 L319 708 Z " />
<glyph glyph-name="Ydieresis" unicode="&#x178;" horiz-adv-x="513" d="M274 310 L219 0 L197 0 L252 310 L90 708 L114 708 L266 332 L571 708 L598 708 L274 310 Z M289 833 Q280 833 274 838.5 Q268 844 268 856 Q268 867 275 875.5 Q282 884 293 884 Q302 884 308 878.5 Q314 873 314 862 Q314 850 306.5 841.5 Q299 833 289 833 Z M439 833 Q430 833 424 838.5 Q418 844 418 856 Q418 867 425 875.5 Q432 884 443 884 Q452 884 458 878.5 Q464 873 464 862 Q464 850 456.5 841.5 Q449 833 439 833 Z " />
<glyph glyph-name="Zacute" unicode="&#x179;" horiz-adv-x="594" d="M14 0 L18 27 L600 688 L148 688 L152 708 L625 708 L620 679 L39 20 L516 20 L512 0 L14 0 Z M378 764 L358 764 L485 908 L513 908 L378 764 Z " />
<glyph glyph-name="zacute" unicode="&#x17a;" horiz-adv-x="430" d="M5 0 L7 21 L385 441 L99 441 L102 460 L412 460 L408 438 L33 19 L346 19 L343 0 L5 0 Z M255 564 L235 564 L362 708 L390 708 L255 564 Z " />
<glyph glyph-name="Zdotaccent" unicode="&#x17b;" horiz-adv-x="594" d="M14 0 L18 27 L600 688 L148 688 L152 708 L625 708 L620 679 L39 20 L516 20 L512 0 L14 0 Z M405 833 Q396 833 390 838.5 Q384 844 384 856 Q384 867 391 875.5 Q398 884 409 884 Q418 884 424 878.5 Q430 873 430 862 Q430 850 422.5 841.5 Q415 833 405 833 Z " />
<glyph glyph-name="zdotaccent" unicode="&#x17c;" horiz-adv-x="430" d="M5 0 L7 21 L385 441 L99 441 L102 460 L412 460 L408 438 L33 19 L346 19 L343 0 L5 0 Z M281 633 Q272 633 266 638.5 Q260 644 260 656 Q260 667 267 675.5 Q274 684 285 684 Q294 684 300 678.5 Q306 673 306 662 Q306 650 298.5 641.5 Q291 633 281 633 Z " />
<glyph glyph-name="Zcaron" unicode="&#x17d;" horiz-adv-x="594" d="M14 0 L18 27 L600 688 L148 688 L152 708 L625 708 L620 679 L39 20 L516 20 L512 0 L14 0 Z M372 764 L299 908 L319 908 L387 776 L507 908 L531 908 L401 764 L372 764 Z " />
<glyph glyph-name="zcaron" unicode="&#x17e;" horiz-adv-x="430" d="M5 0 L7 21 L385 441 L99 441 L102 460 L412 460 L408 438 L33 19 L346 19 L343 0 L5 0 Z M254 564 L181 708 L201 708 L269 576 L389 708 L413 708 L283 564 L254 564 Z " />
<glyph glyph-name="florin" unicode="&#x192;" horiz-adv-x="560" d="M552 683 Q544 691 530 696 Q516 701 502 701 Q476 701 455.5 691 Q435 681 420 665 Q405 649 394.5 629 Q384 609 377 589 L312 408 L430 408 L427 389 L306 389 L159 -20 Q149 -48 137.5 -70.5 Q126 -93 110 -109.5 Q94 -126 73 -135 Q52 -144 23 -144 Q7 -144 -7.5 -141.5 Q-22 -139 -33 -131 L-24 -112 Q-2 -124 22 -124 Q48 -124 67.5 -114.5 Q87 -105 101.5 -87.5 Q116 -70 127 -46.5 Q138 -23 148 5 L284 389 L173 389 L176 408 L290 408 L351 581 Q361 608 373.5 633 Q386 658 403 677.5 Q420 697 444 708.5 Q468 720 500 720 Q543 720 564 701 L552 683 Z " />
<glyph glyph-name="Scommaaccent" unicode="&#x218;" horiz-adv-x="570" d="M535 629 Q516 664 467 686 Q418 708 358 708 Q324 708 285.5 698 Q247 688 215 666 Q183 644 161.5 610.5 Q140 577 140 529 Q140 494 151.5 470.5 Q163 447 183.5 430.5 Q204 414 232.5 402 Q261 390 296 378 Q337 363 372 347 Q407 331 432 309.5 Q457 288 471 259 Q485 230 485 190 Q485 142 467 103 Q449 64 416 37 Q383 10 337 -5 Q291 -20 235 -20 Q203 -20 172 -13 Q141 -6 114.5 7 Q88 20 67 37.5 Q46 55 33 75 L50 88 Q60 71 78 55 Q96 39 120.5 27 Q145 15 175.5 7.5 Q206 0 241 0 Q289 0 329.5 12.5 Q370 25 400 49.5 Q430 74 446.5 109 Q463 144 463 189 Q463 227 448.5 254 Q434 281 409 300.5 Q384 320 350.5 334 Q317 348 278 361 Q245 372 216 385.5 Q187 399 165 417.5 Q143 436 130.5 463 Q118 490 118 528 Q118 579 140 616.5 Q162 654 196.5 679 Q231 704 274.5 716 Q318 728 360 728 Q432 728 480.5 703 Q529 678 552 643 L535 629 Z M167 -233 L150 -233 L238 -45 L262 -45 L167 -233 Z " />
<glyph glyph-name="scommaaccent" unicode="&#x219;" horiz-adv-x="400" d="M36 64 Q53 39 88.5 23.5 Q124 8 165 8 Q196 8 221.5 17.5 Q247 27 265 43 Q283 59 292.5 80.5 Q302 102 302 126 Q302 145 296.5 160 Q291 175 277.5 187.5 Q264 200 241.5 210.5 Q219 221 186 232 Q127 251 102.5 275 Q78 299 78 338 Q78 372 92.5 397.5 Q107 423 130 440 Q153 457 181.5 465.5 Q210 474 239 474 Q286 474 318.5 458 Q351 442 366 419 L348 406 Q336 429 304 442 Q272 455 238 455 Q217 455 193 449 Q169 443 148.5 429.5 Q128 416 114 394.5 Q100 373 100 341 Q100 302 125 284 Q150 266 199 250 Q271 227 297.5 198 Q324 169 324 127 Q324 97 312.5 72 Q301 47 279.5 28 Q258 9 228 -1.5 Q198 -12 161 -12 Q116 -12 77 5.5 Q38 23 20 50 L36 64 Z M90 -233 L73 -233 L161 -45 L185 -45 L90 -233 Z " />
<glyph glyph-name="uni021A" unicode="&#x21a;" horiz-adv-x="515" d="M349 688 L228 0 L206 0 L327 688 L82 688 L86 708 L590 708 L586 688 L349 688 Z M151 -233 L134 -233 L222 -45 L246 -45 L151 -233 Z " />
<glyph glyph-name="uni021B" unicode="&#x21b;" horiz-adv-x="292" d="M232 -1 Q219 -6 205.5 -9 Q192 -12 177 -12 Q134 -12 112 8.5 Q90 29 90 65 Q90 73 91.5 87 Q93 101 95 109 L154 441 L48 441 L51 460 L156 460 L180 595 L202 595 L178 460 L304 460 L301 441 L175 441 L116 106 Q114 98 113 85.5 Q112 73 112 67 Q112 34 131 20.5 Q150 7 182 7 Q191 7 205.5 9 Q220 11 232 16 L232 -1 Z M83 -233 L66 -233 L154 -45 L178 -45 L83 -233 Z " />
<glyph glyph-name="circumflex" unicode="&#x2c6;" horiz-adv-x="240" d="M220 708 L293 564 L273 564 L205 696 L85 564 L61 564 L191 708 L220 708 Z " />
<glyph glyph-name="caron" unicode="&#x2c7;" horiz-adv-x="240" d="M159 564 L86 708 L106 708 L174 576 L294 708 L318 708 L188 564 L159 564 Z " />
<glyph glyph-name="uni02C9" unicode="&#x2c9;" horiz-adv-x="240" d="M73 821 L77 841 L309 841 L305 821 L73 821 Z " />
<glyph glyph-name="breve" unicode="&#x2d8;" horiz-adv-x="240" d="M330 698 Q314 635 277 603.5 Q240 572 186 572 Q137 572 108 604.5 Q79 637 79 698 L96 698 Q96 646 121 619 Q146 592 187 592 Q234 592 265.5 616.5 Q297 641 314 698 L330 698 L330 698 Z " />
<glyph glyph-name="dotaccent" unicode="&#x2d9;" horiz-adv-x="240" d="M194 633 Q185 633 179 638.5 Q173 644 173 656 Q173 667 180 675.5 Q187 684 198 684 Q207 684 213 678.5 Q219 673 219 662 Q219 650 211.5 641.5 Q204 633 194 633 Z " />
<glyph glyph-name="ring" unicode="&#x2da;" horiz-adv-x="240" d="M272 664 Q272 690 256.5 709.5 Q241 729 207 729 Q168 729 145.5 701 Q123 673 123 636 Q123 610 138 591 Q153 572 188 572 Q226 572 249 599.5 Q272 627 272 664 Z M105 635 Q105 657 112 677 Q119 697 132.5 712 Q146 727 165 736 Q184 745 208 745 Q250 745 270 721.5 Q290 698 290 665 Q290 643 283 623 Q276 603 262.5 588 Q249 573 230 564 Q211 555 187 555 Q145 555 125 578 Q105 601 105 635 Z " />
<glyph glyph-name="ogonek" unicode="&#x2db;" horiz-adv-x="240" d="M132 -192 Q114 -206 93.5 -214.5 Q73 -223 50 -223 Q18 -223 -4.5 -207.5 Q-27 -192 -27 -160 Q-27 -141 -20.5 -123.5 Q-14 -106 0.5 -87 Q15 -68 37.5 -47 Q60 -26 92 0 L115 0 Q80 -30 57 -52 Q34 -74 20.5 -91.5 Q7 -109 1.5 -124 Q-4 -139 -4 -156 Q-4 -179 10.5 -192 Q25 -205 51 -205 Q71 -205 91 -197 Q111 -189 125 -176 L132 -192 Z " />
<glyph glyph-name="tilde" unicode="&#x2dc;" horiz-adv-x="240" d="M194 638 Q218 621 228.5 617.5 Q239 614 250 614 Q283 614 299 662 L316 662 Q305 626 286 610.5 Q267 595 247 595 Q231 595 219 600 Q207 605 187 619 Q164 635 153.5 639 Q143 643 132 643 Q100 643 83 592 L66 592 Q77 628 96 645 Q115 662 135 662 Q151 662 162.5 657 Q174 652 194 638 Z " />
<glyph glyph-name="hungarumlaut" unicode="&#x2dd;" horiz-adv-x="240" d="M119 564 L99 564 L226 708 L254 708 L119 564 Z M240 564 L220 564 L347 708 L375 708 L240 564 Z " />
<glyph glyph-name="endash" unicode="&#x2013;" horiz-adv-x="400" d="M33 244 L37 264 L377 264 L373 244 L33 244 Z " />
<glyph glyph-name="emdash" unicode="&#x2014;" horiz-adv-x="600" d="M33 244 L37 264 L577 264 L573 244 L33 244 Z " />
<glyph glyph-name="quoteleft" unicode="&#x2018;" horiz-adv-x="220" d="M218 708 L235 708 L139 480 L115 480 L218 708 Z " />
<glyph glyph-name="quoteright" unicode="&#x2019;" horiz-adv-x="220" d="M132 480 L115 480 L211 708 L235 708 L132 480 Z " />
<glyph glyph-name="quotesinglbase" unicode="&#x201a;" horiz-adv-x="220" d="M17 -138 L0 -138 L96 90 L120 90 L17 -138 Z " />
<glyph glyph-name="quotedblleft" unicode="&#x201c;" horiz-adv-x="350" d="M348 708 L365 708 L269 480 L245 480 L348 708 Z M220 708 L237 708 L139 480 L115 480 L220 708 Z " />
<glyph glyph-name="quotedblright" unicode="&#x201d;" horiz-adv-x="350" d="M132 480 L115 480 L211 708 L235 708 L132 480 Z M260 480 L243 480 L341 708 L365 708 L260 480 Z " />
<glyph glyph-name="quotedblbase" unicode="&#x201e;" horiz-adv-x="350" d="M17 -138 L0 -138 L96 90 L120 90 L17 -138 Z M145 -138 L128 -138 L226 90 L250 90 L145 -138 Z " />
<glyph glyph-name="dagger" unicode="&#x2020;" horiz-adv-x="520" d="M317 481 L210 -126 L188 -126 L295 481 L99 481 L102 501 L298 501 L335 708 L357 708 L320 501 L514 501 L511 481 L317 481 Z " />
<glyph glyph-name="daggerdbl" unicode="&#x2021;" horiz-adv-x="520" d="M99 481 L102 501 L298 501 L335 708 L357 708 L320 501 L514 501 L511 481 L317 481 L250 101 L444 101 L440 81 L246 81 L210 -126 L188 -126 L224 81 L28 81 L32 101 L228 101 L295 481 L99 481 Z " />
<glyph glyph-name="bullet" unicode="&#x2022;" horiz-adv-x="500" d="M73 354 Q73 391 87 423 Q101 455 125 479 Q149 503 181 517 Q213 531 250 531 Q287 531 319 517 Q351 503 375 479 Q399 455 413 423 Q427 391 427 354 Q427 317 413 285 Q399 253 375 229 Q351 205 319 191 Q287 177 250 177 Q213 177 181 191 Q149 205 125 229 Q101 253 87 285 Q73 317 73 354 Z " />
<glyph glyph-name="ellipsis" unicode="&#x2026;" horiz-adv-x="1000" d="M124 -6 Q115 -6 109.5 1 Q104 8 106 20 Q108 31 116 38 Q124 45 133 45 Q142 45 148 38 Q154 31 152 20 Q150 8 141 1 Q132 -6 124 -6 Z M794 -6 Q785 -6 779.5 1 Q774 8 776 20 Q778 31 786 38 Q794 45 803 45 Q812 45 818 38 Q824 31 822 20 Q820 8 811 1 Q802 -6 794 -6 Z M459 -6 Q450 -6 444.5 1 Q439 8 441 20 Q443 31 451 38 Q459 45 468 45 Q477 45 483 38 Q489 31 487 20 Q485 8 476 1 Q467 -6 459 -6 Z " />
<glyph glyph-name="perthousand" unicode="&#x2030;" horiz-adv-x="1000" d="M382 588 Q382 610 375.5 629.5 Q369 649 355 664 Q341 679 320 688 Q299 697 271 697 Q239 697 213.5 685 Q188 673 170 652.5 Q152 632 142 605.5 Q132 579 132 550 Q132 528 138.5 508 Q145 488 158.5 473 Q172 458 192.5 449.5 Q213 441 242 441 Q274 441 300 453 Q326 465 344 485 Q362 505 372 531.5 Q382 558 382 588 Z M113 548 Q113 582 124 612 Q135 642 156 664.5 Q177 687 206.5 700.5 Q236 714 273 714 Q305 714 329.5 704.5 Q354 695 370 678 Q386 661 394 638 Q402 615 402 589 Q402 555 391 525 Q380 495 359 472.5 Q338 450 308 437 Q278 424 241 424 Q177 424 145 460 Q113 496 113 548 Z M594 158 Q594 180 587.5 199.5 Q581 219 567 234 Q553 249 532 258 Q511 267 483 267 Q451 267 425.5 255 Q400 243 382 222.5 Q364 202 354 175.5 Q344 149 344 120 Q344 98 350.5 78 Q357 58 370.5 43 Q384 28 404.5 19.5 Q425 11 454 11 Q486 11 512 23 Q538 35 556 55 Q574 75 584 101.5 Q594 128 594 158 Z M325 118 Q325 152 336 182 Q347 212 368 234.5 Q389 257 418.5 270.5 Q448 284 485 284 Q517 284 541.5 274.5 Q566 265 582 248 Q598 231 606 208 Q614 185 614 159 Q614 125 603 95 Q592 65 571 42.5 Q550 20 520 7 Q490 -6 453 -6 Q389 -6 357 30 Q325 66 325 118 Z M929 158 Q929 180 922.5 199.5 Q916 219 902 234 Q888 249 867 258 Q846 267 818 267 Q786 267 760.5 255 Q735 243 717 222.5 Q699 202 689 175.5 Q679 149 679 120 Q679 98 685.5 78 Q692 58 705.5 43 Q719 28 739.5 19.5 Q760 11 789 11 Q821 11 847 23 Q873 35 891 55 Q909 75 919 101.5 Q929 128 929 158 Z M660 118 Q660 152 671 182 Q682 212 703 234.5 Q724 257 753.5 270.5 Q783 284 820 284 Q852 284 876.5 274.5 Q901 265 917 248 Q933 231 941 208 Q949 185 949 159 Q949 125 938 95 Q927 65 906 42.5 Q885 20 855 7 Q825 -6 788 -6 Q724 -6 692 30 Q660 66 660 118 Z M81 -27 L65 -16 L638 736 L654 725 L81 -27 Z " />
<glyph glyph-name="guilsinglleft" unicode="&#x2039;" horiz-adv-x="315" d="M240 435 L254 424 L107 237 L189 52 L171 42 L83 239 L240 435 Z " />
<glyph glyph-name="guilsinglright" unicode="&#x203a;" horiz-adv-x="315" d="M78 41 L64 52 L211 239 L129 424 L147 434 L235 237 L78 41 Z " />
<glyph glyph-name="fraction" unicode="&#x2044;" horiz-adv-x="100" d="M-223 -27 L-237 -16 L336 736 L350 725 L-223 -27 Z " />
<glyph glyph-name="Euro" unicode="&#x20ac;" horiz-adv-x="560" d="M570 677 Q544 694 513.5 701 Q483 708 445 708 Q395 708 349.5 687.5 Q304 667 265.5 631.5 Q227 596 196.5 547.5 Q166 499 147 444 L478 444 L468 425 L141 425 Q132 396 124.5 358 Q117 320 115 284 L406 284 L397 265 L114 265 Q114 207 129 158.5 Q144 110 173 74.5 Q202 39 243.5 19.5 Q285 0 338 0 Q424 0 490 46 L498 27 Q467 7 428 -6.5 Q389 -20 337 -20 Q274 -20 228 3.5 Q182 27 152 66 Q122 105 107.5 156.5 Q93 208 93 265 L22 265 L33 284 L94 284 Q94 294 96 311.5 Q98 329 101.5 349 Q105 369 109.5 389 Q114 409 119 425 L46 425 L55 444 L125 444 Q146 507 179 559 Q212 611 253.5 648.5 Q295 686 343.5 707 Q392 728 444 728 Q486 728 521 719.5 Q556 711 581 696 L570 677 L570 677 Z " />
<glyph glyph-name="afii61289" unicode="&#x2113;" horiz-adv-x="500" d="M233 -14 Q201 -14 176.5 2.5 Q152 19 152 63 Q152 82 156 101 L191 265 L115 194 L113 194 L105 204 L196 287 L254 561 Q263 603 277 633 Q291 663 308 682.5 Q325 702 344 711.5 Q363 721 382 721 Q410 721 426.5 701.5 Q443 682 443 646 Q443 627 439 608 Q424 536 364.5 452.5 Q305 369 212 281 L175 104 Q173 94 172 85.5 Q171 77 171 69 Q171 49 177 36.5 Q183 24 193 16.5 Q203 9 214.5 6 Q226 3 238 3 Q260 3 285 12.5 Q310 22 335 43 L337 43 L343 32 Q316 9 287.5 -2.5 Q259 -14 233 -14 Z M421 605 Q423 614 424 622.5 Q425 631 425 639 Q425 670 411.5 687 Q398 704 378 704 Q364 704 348.5 696 Q333 688 319 671 Q305 654 292.5 627 Q280 600 272 561 L217 303 Q257 342 291.5 382 Q326 422 352.5 461 Q379 500 396.5 536.5 Q414 573 421 605 Z " />
<glyph glyph-name="trademark" unicode="&#x2122;" horiz-adv-x="1000" d="M919 296 L919 687 L917 687 L748 296 L735 296 L569 687 L567 687 L567 296 L545 296 L545 708 L582 708 L742 331 L903 708 L941 708 L941 296 L919 296 Z M305 689 L305 296 L283 296 L283 689 L150 689 L150 708 L439 708 L439 689 L305 689 Z " />
<glyph glyph-name="Omega" unicode="&#x2126;" horiz-adv-x="738" d="M463 701 Q406 701 351 679.5 Q296 658 250.5 620 Q205 582 172.5 530.5 Q140 479 127 419 Q123 400 121 382.5 Q119 365 119 348 Q119 313 127.5 282 Q136 251 153.5 226 Q171 201 197.5 184 Q224 167 260 160 L226 0 L16 0 L20 20 L212 20 L238 142 Q168 163 132.5 219 Q97 275 97 349 Q97 381 105 419 Q118 483 153.5 538.5 Q189 594 238.5 634.5 Q288 675 347 698 Q406 721 467 721 Q521 721 565.5 703.5 Q610 686 642 654.5 Q674 623 691.5 579.5 Q709 536 709 484 Q709 451 702 419 Q692 371 669.5 327 Q647 283 614.5 246 Q582 209 540.5 182 Q499 155 451 142 L425 20 L617 20 L613 0 L403 0 L437 160 Q486 169 526 193 Q566 217 597 252 Q628 287 649 329.5 Q670 372 680 419 Q687 450 687 481 Q687 529 670.5 569.5 Q654 610 624.5 639 Q595 668 554 684.5 Q513 701 463 701 Z " />
<glyph glyph-name="estimated" unicode="&#x212e;" horiz-adv-x="800" d="M595 402 L595 595 Q513 674 401 674 Q289 674 210 595 L210 402 L595 402 Z M210 355 L210 115 Q286 37 402 37 Q485 37 546 74.5 Q607 112 658 196 L704 168 Q674 120 642.5 86 Q611 52 575 30.5 Q539 9 496.5 -1.5 Q454 -12 402 -12 Q324 -12 261 16.5 Q198 45 153 95 Q108 145 84 211.5 Q60 278 60 355 Q60 432 84 498.5 Q108 565 153 614.5 Q198 664 261 692 Q324 720 402 720 Q478 720 541.5 693 Q605 666 650 617.5 Q695 569 720 502 Q745 435 745 355 L210 355 Z " />
<glyph glyph-name="partialdiff" unicode="&#x2202;" horiz-adv-x="475" d="M401 298 Q402 320 402.5 339 Q403 358 403 380 Q403 458 388.5 518.5 Q374 579 347.5 620.5 Q321 662 284 683.5 Q247 705 203 705 Q169 705 144 695 Q119 685 93 665 L82 681 Q110 704 138.5 714.5 Q167 725 201 725 Q261 725 303 698 Q345 671 371.5 623.5 Q398 576 410.5 510 Q423 444 423 366 Q423 255 406 187.5 Q389 120 366 78 Q336 24 299.5 3.5 Q263 -17 218 -17 Q179 -17 146.5 0 Q114 17 90.5 47 Q67 77 53.5 117 Q40 157 40 203 Q40 255 54 294.5 Q68 334 92 360.5 Q116 387 148 400 Q180 413 216 413 Q275 413 324 381.5 Q373 350 401 298 Z M397 276 Q366 327 320.5 359.5 Q275 392 219 392 Q180 392 151 376 Q122 360 102.5 333.5 Q83 307 73.5 273 Q64 239 64 204 Q64 171 73.5 136 Q83 101 102.5 71.5 Q122 42 151 23.5 Q180 5 219 5 Q269 5 302.5 33.5 Q336 62 356 103.5 Q376 145 385.5 192 Q395 239 397 276 Z " />
<glyph glyph-name="Delta" unicode="&#x2206;" horiz-adv-x="657" d="M-13 0 L413 712 L442 712 L568 0 L-13 0 Z M424 693 L21 20 L544 20 L424 693 Z " />
<glyph glyph-name="product" unicode="&#x220f;" horiz-adv-x="704" d="M590 -214 L590 766 L114 766 L114 -214 L92 -214 L92 786 L612 786 L612 -214 L590 -214 Z " />
<glyph glyph-name="summation" unicode="&#x2211;" horiz-adv-x="593" d="M45 -214 L45 -192 L384 289 L59 764 L59 786 L537 786 L537 766 L85 766 L415 289 L73 -194 L548 -194 L548 -214 L45 -214 Z " />
<glyph glyph-name="minus" unicode="&#x2212;" horiz-adv-x="666" d="M100 297 L100 316 L566 316 L566 297 L100 297 Z " />
<glyph glyph-name="uni2215" unicode="&#x2215;" horiz-adv-x="100" d="M-223 -27 L-237 -16 L336 736 L350 725 L-223 -27 Z " />
<glyph glyph-name="uni2219" unicode="&#x2219;" horiz-adv-x="240" d="M128 229 Q119 229 113 234.5 Q107 240 107 252 Q107 263 114 271.5 Q121 280 132 280 Q141 280 147 274.5 Q153 269 153 258 Q153 246 145.5 237.5 Q138 229 128 229 Z " />
<glyph glyph-name="radical" unicode="&#x221a;" horiz-adv-x="475" d="M230 -215 L62 153 L0 123 L-8 143 L73 180 L243 -193 L448 786 L470 786 L261 -215 L230 -215 Z " />
<glyph glyph-name="infinity" unicode="&#x221e;" horiz-adv-x="722" d="M370 234 Q353 214 331.5 193 Q310 172 286.5 154.5 Q263 137 239 125.5 Q215 114 192 114 Q140 114 106.5 151 Q73 188 73 248 Q73 308 106.5 344.5 Q140 381 192 381 Q215 381 239 369.5 Q263 358 286.5 340.5 Q310 323 331.5 301.5 Q353 280 370 260 Q387 280 408.5 301.5 Q430 323 453.5 340.5 Q477 358 501 369.5 Q525 381 548 381 Q600 381 633.5 344.5 Q667 308 667 248 Q667 188 633.5 151 Q600 114 548 114 Q525 114 501 125.5 Q477 137 453.5 154.5 Q430 172 408.5 193 Q387 214 370 234 Z M382 246 Q411 215 434 193.5 Q457 172 476.5 158.5 Q496 145 513.5 138.5 Q531 132 548 132 Q572 132 590.5 141.5 Q609 151 621.5 167 Q634 183 640.5 203.5 Q647 224 647 246 Q647 269 640.5 290.5 Q634 312 621.5 328 Q609 344 590.5 353.5 Q572 363 548 363 Q531 363 513.5 356.5 Q496 350 476.5 335.5 Q457 321 433.5 299 Q410 277 382 246 Z M358 246 Q301 308 263.5 335.5 Q226 363 192 363 Q168 363 149.5 353.5 Q131 344 118.5 328 Q106 312 99.5 290.5 Q93 269 93 246 Q93 224 99.5 203.5 Q106 183 118.5 167 Q131 151 149.5 141.5 Q168 132 192 132 Q209 132 226.5 138.5 Q244 145 263.5 158.5 Q283 172 306 193.5 Q329 215 358 246 Z " />
<glyph glyph-name="integral" unicode="&#x222b;" horiz-adv-x="535" d="M258 71 Q258 30 257.5 1.5 Q257 -27 256.5 -47 Q256 -67 254.5 -80 Q253 -93 252 -102 Q244 -150 221.5 -177 Q199 -204 163 -204 Q144 -204 131 -196.5 Q118 -189 118 -174 Q118 -164 124.5 -159 Q131 -154 138 -154 Q145 -154 150.5 -160 Q156 -166 160 -174 Q165 -185 180 -185 Q205 -185 220.5 -141.5 Q236 -98 236 -10 L236 499 Q236 539 236.5 568 Q237 597 237.5 617 Q238 637 239 650 Q240 663 242 672 Q250 720 272.5 747 Q295 774 331 774 Q350 774 363 766.5 Q376 759 376 744 Q376 734 369.5 729 Q363 724 356 724 Q349 724 343.5 730 Q338 736 334 744 Q329 755 314 755 Q289 755 273.5 712 Q258 669 258 583 L258 71 L258 71 Z " />
<glyph glyph-name="approxequal" unicode="&#x2248;" horiz-adv-x="666" d="M437 328 Q464 328 482.5 335.5 Q501 343 512.5 355.5 Q524 368 530 384 Q536 400 539 417 L557 417 Q555 396 547.5 376.5 Q540 357 525.5 341.5 Q511 326 489 316.5 Q467 307 436 307 Q403 307 366.5 318 Q330 329 294 341.5 Q258 354 224.5 365 Q191 376 164 376 Q135 376 116 368.5 Q97 361 85 349 Q73 337 67 321 Q61 305 58 288 L40 288 Q42 309 49.5 328.5 Q57 348 71 363 Q85 378 106.5 387.5 Q128 397 158 397 Q191 397 227.5 386 Q264 375 301 362.5 Q338 350 373 339 Q408 328 437 328 Z M437 140 Q464 140 482.5 147.5 Q501 155 512.5 167.5 Q524 180 530 196 Q536 212 539 229 L557 229 Q555 208 547.5 188.5 Q540 169 525.5 153.5 Q511 138 489 128.5 Q467 119 436 119 Q403 119 366.5 130 Q330 141 294 153.5 Q258 166 224.5 177 Q191 188 164 188 Q135 188 116 180.5 Q97 173 85 161 Q73 149 67 133 Q61 117 58 100 L40 100 Q42 121 49.5 140.5 Q57 160 71 175 Q85 190 106.5 199.5 Q128 209 158 209 Q191 209 227.5 198 Q264 187 301 174.5 Q338 162 373 151 Q408 140 437 140 Z " />
<glyph glyph-name="notequal" unicode="&#x2260;" horiz-adv-x="666" d="M100 380 L100 399 L361 399 L434 546 L452 538 L383 399 L566 399 L566 380 L374 380 L299 228 L566 228 L566 209 L289 209 L204 37 L187 46 L268 209 L100 209 L100 228 L277 228 L352 380 L100 380 Z " />
<glyph glyph-name="lessequal" unicode="&#x2264;" horiz-adv-x="666" d="M100 0 L100 20 L566 20 L566 0 L100 0 Z M100 291 L100 315 L566 539 L566 519 L112 303 L566 87 L566 67 L100 291 Z " />
<glyph glyph-name="greaterequal" unicode="&#x2265;" horiz-adv-x="666" d="M100 20 L566 20 L566 0 L100 0 L100 20 Z M100 87 L554 303 L100 519 L100 539 L566 315 L566 291 L100 67 L100 87 Z " />
<glyph glyph-name="lozenge" unicode="&#x25ca;" horiz-adv-x="593" d="M307 -35 L283 -35 L122 356 L283 747 L307 747 L470 356 L307 -35 Z M295 733 L144 356 L295 -21 L446 356 L295 733 Z " />
<glyph glyph-name="dotlessj" unicode="&#xf6be;" horiz-adv-x="226" d="M67 -97 Q62 -125 53.5 -151 Q45 -177 30 -197 Q15 -217 -8 -229 Q-31 -241 -65 -241 Q-72 -241 -80 -240.5 Q-88 -240 -94 -238 L-92 -219 Q-79 -222 -67 -222 Q-35 -222 -15 -211 Q5 -200 17 -182.5 Q29 -165 35 -143 Q41 -121 45 -99 L143 460 L165 460 L67 -97 L67 -97 Z " />
<glyph glyph-name="commaaccent" unicode="&#xf6c3;" horiz-adv-x="240" d="M65 -233 L48 -233 L136 -45 L160 -45 L65 -233 Z " />
<glyph glyph-name="fl" unicode="&#xfb02;" horiz-adv-x="494" d="M330 0 L463 756 L485 756 L352 0 L330 0 Z M366 745 Q346 750 326 750 Q299 750 279.5 739 Q260 728 246.5 710.5 Q233 693 225 671 Q217 649 213 626 L184 460 L309 460 L306 441 L181 441 L103 0 L81 0 L159 441 L62 441 L65 460 L161 460 L190 625 Q197 667 211.5 694.5 Q226 722 244.5 738.5 Q263 755 283.5 761.5 Q304 768 325 768 Q352 768 370 762 L366 745 Z " />
<glyph glyph-name="uniF8FF" unicode="&#xf8ff;" horiz-adv-x="876" d="M484 664 Q508 693 539 707.5 Q570 722 591 722 Q591 655 545 603 Q499 551 435 551 Q435 582 449 612 Q457 629 484 664 Z M678 237 Q697 208 722.5 185.5 Q748 163 766 158 Q761 144 757 133 Q753 122 749 114 Q726 64 701 36 Q661 -8 643 -21 Q617 -38 583 -38 Q554 -38 514 -21 Q476 -5 455 -5 Q436 -5 380 -27 Q350 -38 332 -38 Q283 -38 229 20 Q207 43 185 76 Q144 136 124 191.5 Q104 247 104 319 Q104 407 158 478 Q216 554 304 554 Q346 554 375 542 Q438 516 453 516 Q480 516 510 528 Q576 554 600 554 Q658 554 690 531 Q705 519 750 467 Q708 448 683 407.5 Q658 367 658 321 Q658 266 678 237 Z " />
<glyph glyph-name="fi" unicode="&#xfb01;" horiz-adv-x="494" d="M366 745 Q346 750 326 750 Q299 750 279.5 739 Q260 728 246.5 710.5 Q233 693 225 671 Q217 649 213 626 L184 460 L309 460 L306 441 L181 441 L103 0 L81 0 L159 441 L62 441 L65 460 L161 460 L190 625 Q197 667 211.5 694.5 Q226 722 244.5 738.5 Q263 755 283.5 761.5 Q304 768 325 768 Q352 768 370 762 L366 745 Z M330 0 L411 460 L433 460 L352 0 L330 0 Z M449 633 Q440 633 434 638.5 Q428 644 428 656 Q428 667 435 675.5 Q442 684 453 684 Q462 684 468 678.5 Q474 673 474 662 Q474 650 466.5 641.5 Q459 633 449 633 Z " />
<glyph glyph-name="Ohorn" unicode="&#x1a0;" horiz-adv-x="872" d="M748 639 Q743 639 739.5 639 Q736 639 731 640 Q773 597 793 538.5 Q813 480 813 411 Q813 326 784.5 248 Q756 170 703.5 110.5 Q651 51 576 15.5 Q501 -20 409 -20 Q329 -20 269 4 Q209 28 169 70 Q129 112 109.5 169.5 Q90 227 90 295 Q90 380 118.5 458.5 Q147 537 200 597 Q253 657 328 692.5 Q403 728 495 728 Q554 728 592.5 717 Q631 706 658.5 693.5 Q686 681 707 670 Q728 659 752 659 Q796 659 822 683.5 Q848 708 848 750 Q848 772 842 789 L865 796 Q870 779 870 753 Q870 699 837.5 669 Q805 639 748 639 Z M791 411 Q791 472 773.5 526.5 Q756 581 719.5 621 Q683 661 627 684.5 Q571 708 495 708 Q409 708 338 673.5 Q267 639 217 581.5 Q167 524 139.5 449.5 Q112 375 112 295 Q112 233 130 179.5 Q148 126 184.5 86 Q221 46 277 23 Q333 0 409 0 Q495 0 565.5 34 Q636 68 686 125 Q736 182 763.5 256.5 Q791 331 791 411 Z " />
<glyph glyph-name="ohorn" unicode="&#x1a1;" horiz-adv-x="603" d="M511 410 Q496 410 484 413 Q536 356 536 268 Q536 212 517.5 161 Q499 110 464.5 71 Q430 32 381 9 Q332 -14 271 -14 Q218 -14 178 2 Q138 18 111.5 45.5 Q85 73 71.5 110.5 Q58 148 58 192 Q58 247 76.5 298 Q95 349 129.5 388 Q164 427 213.5 450.5 Q263 474 324 474 Q361 474 386.5 467 Q412 460 432.5 452 Q453 444 472 437 Q491 430 515 430 Q559 430 585 454.5 Q611 479 611 521 Q611 543 605 560 L628 567 Q633 550 633 524 Q633 470 600.5 440 Q568 410 511 410 Z M514 267 Q514 305 502.5 339 Q491 373 467 399 Q443 425 407 440 Q371 455 322 455 Q266 455 221.5 433 Q177 411 145.5 375 Q114 339 97 291.5 Q80 244 80 193 Q80 155 91.5 120.5 Q103 86 126.5 60.5 Q150 35 186 20 Q222 5 271 5 Q326 5 371 26.5 Q416 48 448 84.5 Q480 121 497 168.5 Q514 216 514 267 Z " />
<glyph glyph-name="Uhorn" unicode="&#x1af;" horiz-adv-x="716" d="M629 268 Q618 208 599 155.5 Q580 103 546.5 64 Q513 25 461.5 2.5 Q410 -20 335 -20 Q216 -20 156 37.5 Q96 95 96 197 Q96 215 98.5 236 Q101 257 105 277 L181 708 L203 708 L127 276 Q123 253 120.5 233 Q118 213 118 197 Q118 155 130.5 119 Q143 83 169.5 56.5 Q196 30 237 15 Q278 0 335 0 Q414 0 463.5 26 Q513 52 542.5 92.5 Q572 133 586 180.5 Q600 228 608 272 L685 708 L707 708 Q751 708 777 732.5 Q803 757 803 799 Q803 821 797 838 L820 845 Q825 828 825 802 Q825 748 792.5 718 Q760 688 703 688 L629 268 L629 268 Z " />
<glyph glyph-name="uhorn" unicode="&#x1b0;" horiz-adv-x="571" d="M222 -14 Q185 -14 157.5 -1.5 Q130 11 112 31.5 Q94 52 85 79 Q76 106 76 135 Q76 157 82 187 L130 460 L152 460 L103 186 Q101 175 99.5 161 Q98 147 98 136 Q98 112 105 88.5 Q112 65 127 46.5 Q142 28 166 16.5 Q190 5 225 5 Q263 5 296.5 20.5 Q330 36 357 65 Q384 94 403.5 135.5 Q423 177 432 230 L473 460 L495 460 Q539 460 565 484.5 Q591 509 591 551 Q591 573 585 590 L608 597 Q613 580 613 554 Q613 500 580.5 470 Q548 440 491 440 L434 116 Q432 105 429.5 89 Q427 73 425 56.5 Q423 40 421 25 Q419 10 419 0 L397 0 Q398 10 400 25 Q402 40 404 57.5 Q406 75 409 91.5 Q412 108 414 121 L412 121 Q381 54 331.5 20 Q282 -14 222 -14 Z " />
<glyph glyph-name="hookabovecomb" unicode="&#x309;" horiz-adv-x="240" d="M90 555 Q93 573 104.5 586 Q116 599 143 611 Q161 619 176 634.5 Q191 650 191 673 Q191 692 178 704.5 Q165 717 139 717 Q110 717 88.5 703 Q67 689 55 654 L36 659 Q50 699 77 717.5 Q104 736 140 736 Q173 736 192 718 Q211 700 211 673 Q211 645 193.5 625.5 Q176 606 149 594 Q127 584 119 575 Q111 566 109 555 L90 555 Z " />
<glyph glyph-name="uni037E" unicode="&#x37e;" horiz-adv-x="280" d="M34 -138 L17 -138 L114 90 L138 90 L34 -138 Z M168 409 Q159 409 153 414.5 Q147 420 147 432 Q147 443 154 451.5 Q161 460 172 460 Q181 460 187 454.5 Q193 449 193 438 Q193 426 185.5 417.5 Q178 409 168 409 Z " />
<glyph glyph-name="uni1E02" unicode="&#x1e02;" horiz-adv-x="605" d="M66 0 L191 708 L372 708 Q409 708 444.5 699 Q480 690 507.5 671.5 Q535 653 551.5 624.5 Q568 596 568 556 Q568 481 524 435 Q480 389 393 374 L393 372 Q417 369 443 357.5 Q469 346 490.5 326 Q512 306 526 277.5 Q540 249 540 211 Q540 155 519 115.5 Q498 76 462 50 Q426 24 378 12 Q330 0 276 0 L66 0 Z M547 554 Q547 588 532.5 613.5 Q518 639 493 655.5 Q468 672 435.5 680.5 Q403 689 367 689 L209 689 L155 382 L318 382 Q367 382 409 393 Q451 404 482 425.5 Q513 447 530 479 Q547 511 547 554 Z M518 207 Q518 247 502 276.5 Q486 306 460.5 325 Q435 344 403.5 353.5 Q372 363 341 363 L152 363 L91 19 L269 19 Q387 19 452.5 68 Q518 117 518 207 Z M394 833 Q385 833 379 838.5 Q373 844 373 856 Q373 867 380 875.5 Q387 884 398 884 Q407 884 413 878.5 Q419 873 419 862 Q419 850 411.5 841.5 Q404 833 394 833 Z " />
<glyph glyph-name="uni1E03" unicode="&#x1e03;" horiz-adv-x="623" d="M146 342 Q159 370 180 394 Q201 418 227.5 436 Q254 454 286 464 Q318 474 354 474 Q406 474 444.5 458.5 Q483 443 509 415.5 Q535 388 548 350.5 Q561 313 561 269 Q561 213 542.5 162 Q524 111 490 72 Q456 33 407.5 9.5 Q359 -14 299 -14 Q225 -14 174.5 25.5 Q124 65 109 128 L106 128 L84 0 L62 0 L195 756 L217 756 L143 342 L146 342 Z M352 455 Q302 455 259.5 432.5 Q217 410 186 372.5 Q155 335 137 287 Q119 239 119 188 Q119 150 131.5 116.5 Q144 83 167.5 58.5 Q191 34 224.5 19.5 Q258 5 299 5 Q353 5 397.5 27 Q442 49 473.5 85.5 Q505 122 522 169.5 Q539 217 539 268 Q539 307 527.5 341 Q516 375 492.5 400.5 Q469 426 434 440.5 Q399 455 352 455 Z M430 797 Q421 797 415 802.5 Q409 808 409 820 Q409 831 416 839.5 Q423 848 434 848 Q443 848 449 842.5 Q455 837 455 826 Q455 814 447.5 805.5 Q440 797 430 797 Z " />
<glyph glyph-name="uni1E0A" unicode="&#x1e0a;" horiz-adv-x="775" d="M66 0 L191 708 L377 708 Q449 708 511 689 Q573 670 618.5 632.5 Q664 595 690 540.5 Q716 486 716 416 Q716 306 679 227.5 Q642 149 579.5 98.5 Q517 48 433.5 24 Q350 0 257 0 L66 0 Z M210 688 L93 20 L256 20 Q345 20 424.5 42 Q504 64 564 111.5 Q624 159 659 233.5 Q694 308 694 413 Q694 480 669.5 531.5 Q645 583 602.5 617.5 Q560 652 501 670 Q442 688 373 688 L210 688 Z M465 833 Q456 833 450 838.5 Q444 844 444 856 Q444 867 451 875.5 Q458 884 469 884 Q478 884 484 878.5 Q490 873 490 862 Q490 850 482.5 841.5 Q475 833 465 833 Z " />
<glyph glyph-name="uni1E0B" unicode="&#x1e0b;" horiz-adv-x="617" d="M265 -14 Q213 -14 174.5 1.5 Q136 17 110 44.5 Q84 72 71 109.5 Q58 147 58 191 Q58 247 76.5 298 Q95 349 129 388 Q163 427 211.5 450.5 Q260 474 320 474 Q394 474 444.5 434.5 Q495 395 510 332 L513 332 L586 756 L608 756 L475 0 L453 0 L476 118 L473 118 Q459 90 438.5 66 Q418 42 391.5 24 Q365 6 333 -4 Q301 -14 265 -14 Z M267 5 Q316 5 359 27.5 Q402 50 433 87.5 Q464 125 482 173 Q500 221 500 272 Q500 310 487.5 343.5 Q475 377 451.5 401.5 Q428 426 394.5 440.5 Q361 455 320 455 Q266 455 221.5 433 Q177 411 145.5 374.5 Q114 338 97 290.5 Q80 243 80 192 Q80 153 91.5 119 Q103 85 126 59.5 Q149 34 184.5 19.5 Q220 5 267 5 Z M393 797 Q384 797 378 802.5 Q372 808 372 820 Q372 831 379 839.5 Q386 848 397 848 Q406 848 412 842.5 Q418 837 418 826 Q418 814 410.5 805.5 Q403 797 393 797 Z " />
<glyph glyph-name="uni1E1E" unicode="&#x1e1e;" horiz-adv-x="540" d="M209 688 L154 377 L494 377 L491 357 L151 357 L88 0 L66 0 L191 708 L572 708 L568 688 L209 688 Z M405 833 Q396 833 390 838.5 Q384 844 384 856 Q384 867 391 875.5 Q398 884 409 884 Q418 884 424 878.5 Q430 873 430 862 Q430 850 422.5 841.5 Q415 833 405 833 Z " />
<glyph glyph-name="uni1E1F" unicode="&#x1e1f;" horiz-adv-x="282" d="M366 745 Q346 750 326 750 Q299 750 279.5 739 Q260 728 246.5 710.5 Q233 693 225 671 Q217 649 213 626 L184 460 L309 460 L306 441 L181 441 L103 0 L81 0 L159 441 L62 441 L65 460 L161 460 L190 625 Q197 667 211.5 694.5 Q226 722 244.5 738.5 Q263 755 283.5 761.5 Q304 768 325 768 Q352 768 370 762 L366 745 Z M272 853 Q263 853 257 858.5 Q251 864 251 876 Q251 887 258 895.5 Q265 904 276 904 Q285 904 291 898.5 Q297 893 297 882 Q297 870 289.5 861.5 Q282 853 272 853 Z " />
<glyph glyph-name="uni1E22" unicode="&#x1e22;" horiz-adv-x="720" d="M552 0 L615 356 L151 356 L88 0 L66 0 L191 708 L213 708 L154 376 L618 376 L677 708 L699 708 L574 0 L552 0 Z M469 833 Q460 833 454 838.5 Q448 844 448 856 Q448 867 455 875.5 Q462 884 473 884 Q482 884 488 878.5 Q494 873 494 862 Q494 850 486.5 841.5 Q479 833 469 833 Z " />
<glyph glyph-name="uni1E23" unicode="&#x1e23;" horiz-adv-x="566" d="M146 339 Q176 406 225.5 440 Q275 474 335 474 Q372 474 399.5 461.5 Q427 449 445 428.5 Q463 408 472 381 Q481 354 481 325 Q481 303 475 273 L427 0 L405 0 L454 274 Q456 285 457.5 299 Q459 313 459 324 Q459 348 452 371.5 Q445 395 430 413.5 Q415 432 391 443.5 Q367 455 332 455 Q294 455 260.5 439.5 Q227 424 200 395 Q173 366 153.5 324.5 Q134 283 125 230 L84 0 L62 0 L195 756 L217 756 L144 339 L146 339 Z M386 797 Q377 797 371 802.5 Q365 808 365 820 Q365 831 372 839.5 Q379 848 390 848 Q399 848 405 842.5 Q411 837 411 826 Q411 814 403.5 805.5 Q396 797 386 797 Z " />
<glyph glyph-name="uni1E56" unicode="&#x1e56;" horiz-adv-x="560" d="M149 348 L88 0 L66 0 L191 708 L370 708 Q405 708 439 700 Q473 692 500 674 Q527 656 544 626 Q561 596 561 551 Q561 511 547 474 Q533 437 503.5 409 Q474 381 428 364.5 Q382 348 319 348 L149 348 Z M539 552 Q539 589 524.5 615.5 Q510 642 486.5 658 Q463 674 433.5 681.5 Q404 689 375 689 L209 689 L153 367 L324 367 Q429 367 484 418 Q539 469 539 552 Z M405 809 Q396 809 390 814.5 Q384 820 384 832 Q384 843 391 851.5 Q398 860 409 860 Q418 860 424 854.5 Q430 849 430 838 Q430 826 422.5 817.5 Q415 809 405 809 Z " />
<glyph glyph-name="uni1E57" unicode="&#x1e57;" horiz-adv-x="623" d="M42 -240 L20 -240 L143 460 L165 460 L143 342 L146 342 Q159 370 180 394 Q201 418 227.5 436 Q254 454 286 464 Q318 474 354 474 Q406 474 444.5 458.5 Q483 443 509 415.5 Q535 388 548 350.5 Q561 313 561 269 Q561 213 542.5 162 Q524 111 490 72 Q456 33 407.5 9.5 Q359 -14 299 -14 Q225 -14 174.5 25.5 Q124 65 109 128 L106 128 L42 -240 Z M352 455 Q302 455 259.5 432.5 Q217 410 186 372.5 Q155 335 137 287 Q119 239 119 188 Q119 150 131.5 116.5 Q144 83 167.5 58.5 Q191 34 224.5 19.5 Q258 5 299 5 Q353 5 397.5 27 Q442 49 473.5 85.5 Q505 122 522 169.5 Q539 217 539 268 Q539 307 527.5 341 Q516 375 492.5 400.5 Q469 426 434 440.5 Q399 455 352 455 Z M403 633 Q394 633 388 638.5 Q382 644 382 656 Q382 667 389 675.5 Q396 684 407 684 Q416 684 422 678.5 Q428 673 428 662 Q428 650 420.5 641.5 Q413 633 403 633 Z " />
<glyph glyph-name="uni1E60" unicode="&#x1e60;" horiz-adv-x="570" d="M535 629 Q516 664 467 686 Q418 708 358 708 Q324 708 285.5 698 Q247 688 215 666 Q183 644 161.5 610.5 Q140 577 140 529 Q140 494 151.5 470.5 Q163 447 183.5 430.5 Q204 414 232.5 402 Q261 390 296 378 Q337 363 372 347 Q407 331 432 309.5 Q457 288 471 259 Q485 230 485 190 Q485 142 467 103 Q449 64 416 37 Q383 10 337 -5 Q291 -20 235 -20 Q203 -20 172 -13 Q141 -6 114.5 7 Q88 20 67 37.5 Q46 55 33 75 L50 88 Q60 71 78 55 Q96 39 120.5 27 Q145 15 175.5 7.5 Q206 0 241 0 Q289 0 329.5 12.5 Q370 25 400 49.5 Q430 74 446.5 109 Q463 144 463 189 Q463 227 448.5 254 Q434 281 409 300.5 Q384 320 350.5 334 Q317 348 278 361 Q245 372 216 385.5 Q187 399 165 417.5 Q143 436 130.5 463 Q118 490 118 528 Q118 579 140 616.5 Q162 654 196.5 679 Q231 704 274.5 716 Q318 728 360 728 Q432 728 480.5 703 Q529 678 552 643 L535 629 Z M397 833 Q388 833 382 838.5 Q376 844 376 856 Q376 867 383 875.5 Q390 884 401 884 Q410 884 416 878.5 Q422 873 422 862 Q422 850 414.5 841.5 Q407 833 397 833 Z " />
<glyph glyph-name="uni1E61" unicode="&#x1e61;" horiz-adv-x="400" d="M36 64 Q53 39 88.5 23.5 Q124 8 165 8 Q196 8 221.5 17.5 Q247 27 265 43 Q283 59 292.5 80.5 Q302 102 302 126 Q302 145 296.5 160 Q291 175 277.5 187.5 Q264 200 241.5 210.5 Q219 221 186 232 Q127 251 102.5 275 Q78 299 78 338 Q78 372 92.5 397.5 Q107 423 130 440 Q153 457 181.5 465.5 Q210 474 239 474 Q286 474 318.5 458 Q351 442 366 419 L348 406 Q336 429 304 442 Q272 455 238 455 Q217 455 193 449 Q169 443 148.5 429.5 Q128 416 114 394.5 Q100 373 100 341 Q100 302 125 284 Q150 266 199 250 Q271 227 297.5 198 Q324 169 324 127 Q324 97 312.5 72 Q301 47 279.5 28 Q258 9 228 -1.5 Q198 -12 161 -12 Q116 -12 77 5.5 Q38 23 20 50 L36 64 Z M279 633 Q270 633 264 638.5 Q258 644 258 656 Q258 667 265 675.5 Q272 684 283 684 Q292 684 298 678.5 Q304 673 304 662 Q304 650 296.5 641.5 Q289 633 279 633 Z " />
<glyph glyph-name="uni1E6A" unicode="&#x1e6a;" horiz-adv-x="515" d="M349 688 L228 0 L206 0 L327 688 L82 688 L86 708 L590 708 L586 688 L349 688 Z M366 834 Q357 834 351 839.5 Q345 845 345 857 Q345 868 352 876.5 Q359 885 370 885 Q379 885 385 879.5 Q391 874 391 863 Q391 851 383.5 842.5 Q376 834 366 834 Z " />
<glyph glyph-name="uni1E6B" unicode="&#x1e6b;" horiz-adv-x="292" d="M232 -1 Q219 -6 205.5 -9 Q192 -12 177 -12 Q134 -12 112 8.5 Q90 29 90 65 Q90 73 91.5 87 Q93 101 95 109 L154 441 L48 441 L51 460 L156 460 L180 595 L202 595 L178 460 L304 460 L301 441 L175 441 L116 106 Q114 98 113 85.5 Q112 73 112 67 Q112 34 131 20.5 Q150 7 182 7 Q191 7 205.5 9 Q220 11 232 16 L232 -1 Z M213 713 Q204 713 198 718.5 Q192 724 192 736 Q192 747 199 755.5 Q206 764 217 764 Q226 764 232 758.5 Q238 753 238 742 Q238 730 230.5 721.5 Q223 713 213 713 Z " />
<glyph glyph-name="uni1EA0" unicode="&#x1ea0;" horiz-adv-x="633" d="M555 0 L519 203 L119 203 L-10 0 L-37 0 L418 708 L451 708 L577 0 L555 0 Z M432 693 L131 222 L516 222 L432 693 Z M280 -170 Q271 -170 265 -164.5 Q259 -159 259 -147 Q259 -136 266 -127.5 Q273 -119 284 -119 Q293 -119 299 -124.5 Q305 -130 305 -141 Q305 -153 297.5 -161.5 Q290 -170 280 -170 Z " />
<glyph glyph-name="uni1EA1" unicode="&#x1ea1;" horiz-adv-x="512" d="M396 104 Q391 78 388.5 48.5 Q386 19 386 0 L365 0 Q365 20 369 51.5 Q373 83 378 110 L375 110 Q349 51 301.5 18.5 Q254 -14 192 -14 Q169 -14 143.5 -8 Q118 -2 96 11.5 Q74 25 59.5 48 Q45 71 45 105 Q45 157 73.5 189.5 Q102 222 151 240 Q200 258 265 264 Q330 270 404 270 Q409 290 411 308 Q413 326 413 334 Q413 396 378 425.5 Q343 455 283 455 Q242 455 206.5 440 Q171 425 139 400 L127 417 Q163 445 204 459.5 Q245 474 284 474 Q356 474 395.5 438.5 Q435 403 435 337 Q435 326 433 311 Q431 296 429 286 L396 104 Z M401 251 L373 251 Q307 251 251 244.5 Q195 238 154 221.5 Q113 205 90 177.5 Q67 150 67 108 Q67 78 79.5 58 Q92 38 110.5 26.5 Q129 15 151.5 10 Q174 5 195 5 Q240 5 274.5 24 Q309 43 333.5 72.5 Q358 102 372.5 137.5 Q387 173 393 207 L401 251 Z M189 -170 Q180 -170 174 -164.5 Q168 -159 168 -147 Q168 -136 175 -127.5 Q182 -119 193 -119 Q202 -119 208 -124.5 Q214 -130 214 -141 Q214 -153 206.5 -161.5 Q199 -170 189 -170 Z " />
<glyph glyph-name="uni1EA2" unicode="&#x1ea2;" horiz-adv-x="633" d="M555 0 L519 203 L119 203 L-10 0 L-37 0 L418 708 L451 708 L577 0 L555 0 Z M432 693 L131 222 L516 222 L432 693 Z M427 755 Q430 773 441.5 786 Q453 799 480 811 Q498 819 513 834.5 Q528 850 528 873 Q528 892 515 904.5 Q502 917 476 917 Q447 917 425.5 902.5 Q404 888 392 853 L373 859 Q387 899 414 917.5 Q441 936 477 936 Q510 936 529 918 Q548 900 548 873 Q548 845 530.5 825.5 Q513 806 486 794 Q464 784 456 775 Q448 766 446 755 L427 755 Z " />
<glyph glyph-name="uni1EA3" unicode="&#x1ea3;" horiz-adv-x="512" d="M396 104 Q391 78 388.5 48.5 Q386 19 386 0 L365 0 Q365 20 369 51.5 Q373 83 378 110 L375 110 Q349 51 301.5 18.5 Q254 -14 192 -14 Q169 -14 143.5 -8 Q118 -2 96 11.5 Q74 25 59.5 48 Q45 71 45 105 Q45 157 73.5 189.5 Q102 222 151 240 Q200 258 265 264 Q330 270 404 270 Q409 290 411 308 Q413 326 413 334 Q413 396 378 425.5 Q343 455 283 455 Q242 455 206.5 440 Q171 425 139 400 L127 417 Q163 445 204 459.5 Q245 474 284 474 Q356 474 395.5 438.5 Q435 403 435 337 Q435 326 433 311 Q431 296 429 286 L396 104 Z M401 251 L373 251 Q307 251 251 244.5 Q195 238 154 221.5 Q113 205 90 177.5 Q67 150 67 108 Q67 78 79.5 58 Q92 38 110.5 26.5 Q129 15 151.5 10 Q174 5 195 5 Q240 5 274.5 24 Q309 43 333.5 72.5 Q358 102 372.5 137.5 Q387 173 393 207 L401 251 Z M301 555 Q304 573 315.5 586 Q327 599 354 611 Q372 619 387 634.5 Q402 650 402 673 Q402 692 389 704.5 Q376 717 350 717 Q321 717 299.5 703 Q278 689 266 654 L247 659 Q261 699 288 717.5 Q315 736 351 736 Q384 736 403 718 Q422 700 422 673 Q422 645 404.5 625.5 Q387 606 360 594 Q338 584 330 575 Q322 566 320 555 L301 555 Z " />
<glyph glyph-name="uni1EA4" unicode="&#x1ea4;" horiz-adv-x="633" d="M555 0 L519 203 L119 203 L-10 0 L-37 0 L418 708 L451 708 L577 0 L555 0 Z M432 693 L131 222 L516 222 L432 693 Z M581 857 L561 857 L670 981 L698 981 L581 857 Z M485 908 L558 764 L538 764 L470 896 L350 764 L326 764 L456 908 L485 908 Z " />
<glyph glyph-name="uni1EA5" unicode="&#x1ea5;" horiz-adv-x="512" d="M396 104 Q391 78 388.5 48.5 Q386 19 386 0 L365 0 Q365 20 369 51.5 Q373 83 378 110 L375 110 Q349 51 301.5 18.5 Q254 -14 192 -14 Q169 -14 143.5 -8 Q118 -2 96 11.5 Q74 25 59.5 48 Q45 71 45 105 Q45 157 73.5 189.5 Q102 222 151 240 Q200 258 265 264 Q330 270 404 270 Q409 290 411 308 Q413 326 413 334 Q413 396 378 425.5 Q343 455 283 455 Q242 455 206.5 440 Q171 425 139 400 L127 417 Q163 445 204 459.5 Q245 474 284 474 Q356 474 395.5 438.5 Q435 403 435 337 Q435 326 433 311 Q431 296 429 286 L396 104 Z M401 251 L373 251 Q307 251 251 244.5 Q195 238 154 221.5 Q113 205 90 177.5 Q67 150 67 108 Q67 78 79.5 58 Q92 38 110.5 26.5 Q129 15 151.5 10 Q174 5 195 5 Q240 5 274.5 24 Q309 43 333.5 72.5 Q358 102 372.5 137.5 Q387 173 393 207 L401 251 Z M455 657 L435 657 L544 781 L572 781 L455 657 Z M355 688 L428 544 L408 544 L340 676 L220 544 L196 544 L326 688 L355 688 Z " />
<glyph glyph-name="uni1EA6" unicode="&#x1ea6;" horiz-adv-x="633" d="M555 0 L519 203 L119 203 L-10 0 L-37 0 L418 708 L451 708 L577 0 L555 0 Z M432 693 L131 222 L516 222 L432 693 Z M485 908 L558 764 L538 764 L470 896 L350 764 L326 764 L456 908 L485 908 Z M266 981 L357 857 L337 857 L238 981 L266 981 Z " />
<glyph glyph-name="uni1EA7" unicode="&#x1ea7;" horiz-adv-x="512" d="M396 104 Q391 78 388.5 48.5 Q386 19 386 0 L365 0 Q365 20 369 51.5 Q373 83 378 110 L375 110 Q349 51 301.5 18.5 Q254 -14 192 -14 Q169 -14 143.5 -8 Q118 -2 96 11.5 Q74 25 59.5 48 Q45 71 45 105 Q45 157 73.5 189.5 Q102 222 151 240 Q200 258 265 264 Q330 270 404 270 Q409 290 411 308 Q413 326 413 334 Q413 396 378 425.5 Q343 455 283 455 Q242 455 206.5 440 Q171 425 139 400 L127 417 Q163 445 204 459.5 Q245 474 284 474 Q356 474 395.5 438.5 Q435 403 435 337 Q435 326 433 311 Q431 296 429 286 L396 104 Z M401 251 L373 251 Q307 251 251 244.5 Q195 238 154 221.5 Q113 205 90 177.5 Q67 150 67 108 Q67 78 79.5 58 Q92 38 110.5 26.5 Q129 15 151.5 10 Q174 5 195 5 Q240 5 274.5 24 Q309 43 333.5 72.5 Q358 102 372.5 137.5 Q387 173 393 207 L401 251 Z M355 688 L428 544 L408 544 L340 676 L220 544 L196 544 L326 688 L355 688 Z M140 781 L231 657 L211 657 L112 781 L140 781 Z " />
<glyph glyph-name="uni1EA8" unicode="&#x1ea8;" horiz-adv-x="633" d="M555 0 L519 203 L119 203 L-10 0 L-37 0 L418 708 L451 708 L577 0 L555 0 Z M432 693 L131 222 L516 222 L432 693 Z M485 908 L558 764 L538 764 L470 896 L350 764 L326 764 L456 908 L485 908 Z M591 847 Q593 861 601 870.5 Q609 880 632 891 Q650 899 658.5 908.5 Q667 918 667 933 Q667 946 658 954.5 Q649 963 630 963 Q609 963 593.5 952.5 Q578 942 570 917 L551 922 Q572 981 630 981 Q659 981 673.5 967.5 Q688 954 688 933 Q688 894 639 874 Q625 868 618.5 861 Q612 854 610 847 L591 847 Z " />
<glyph glyph-name="uni1EA9" unicode="&#x1ea9;" horiz-adv-x="512" d="M396 104 Q391 78 388.5 48.5 Q386 19 386 0 L365 0 Q365 20 369 51.5 Q373 83 378 110 L375 110 Q349 51 301.5 18.5 Q254 -14 192 -14 Q169 -14 143.5 -8 Q118 -2 96 11.5 Q74 25 59.5 48 Q45 71 45 105 Q45 157 73.5 189.5 Q102 222 151 240 Q200 258 265 264 Q330 270 404 270 Q409 290 411 308 Q413 326 413 334 Q413 396 378 425.5 Q343 455 283 455 Q242 455 206.5 440 Q171 425 139 400 L127 417 Q163 445 204 459.5 Q245 474 284 474 Q356 474 395.5 438.5 Q435 403 435 337 Q435 326 433 311 Q431 296 429 286 L396 104 Z M401 251 L373 251 Q307 251 251 244.5 Q195 238 154 221.5 Q113 205 90 177.5 Q67 150 67 108 Q67 78 79.5 58 Q92 38 110.5 26.5 Q129 15 151.5 10 Q174 5 195 5 Q240 5 274.5 24 Q309 43 333.5 72.5 Q358 102 372.5 137.5 Q387 173 393 207 L401 251 Z M355 688 L428 544 L408 544 L340 676 L220 544 L196 544 L326 688 L355 688 Z M465 647 Q467 661 475 670.5 Q483 680 506 691 Q524 699 532.5 708.5 Q541 718 541 733 Q541 746 532 754.5 Q523 763 504 763 Q483 763 467.5 752.5 Q452 742 444 717 L425 722 Q446 781 504 781 Q533 781 547.5 767.5 Q562 754 562 733 Q562 694 513 674 Q499 668 492.5 661 Q486 654 484 647 L465 647 Z " />
</font>
</svg>
