<svg id="Layer_2" data-name="Layer 2" xmlns="http://www.w3.org/2000/svg" width="0.11in" height="0.46in" viewBox="0 0 7.71 33.28">
  <title>scroll</title>
  <path d="M3.85,19.06A3.86,3.86,0,0,1,0,15.21V9.46a3.86,3.86,0,0,1,7.71,0v5.75A3.86,3.86,0,0,1,3.85,19.06Zm0-11.7a2.1,2.1,0,0,0-2.1,2.1v5.75a2.11,2.11,0,0,0,4.21,0V9.46A2.11,2.11,0,0,0,3.85,7.36Z"/>
  <path d="M3.85,33.28A.88.88,0,0,1,3,32.4V18.19a.88.88,0,1,1,1.75,0V32.4A.88.88,0,0,1,3.85,33.28Z"/>
  <path d="M3.85,7.36A.88.88,0,0,1,3,6.48V.88a.88.88,0,1,1,1.75,0v5.6A.88.88,0,0,1,3.85,7.36Z"/>
</svg>
